SplineFontDB: 3.0
FontName: CMUTypewriterVariable-Italic
FullName: CMU Typewriter Text Variable Width Italic
FamilyName: CMU Typewriter Text Variable Width
Weight: Medium
Copyright: Converted by Andrey V. Panov from TeX fonts
UComments: "2009-6-18: Created." 
Version: 0.7.0
ItalicAngle: -14.04
UnderlinePosition: -100
UnderlineWidth: 50
Ascent: 800
Descent: 200
LayerCount: 2
Layer: 0 0 "+BBcEMAQ0BD0EOAQ5 +BD8EOwQwBD0A"  1
Layer: 1 0 "+BB8ENQRABDUENAQ9BDgEOQAA +BD8EOwQwBD0A"  0
NeedsXUIDChange: 1
XUID: [1067 7388447]
FSType: 0
OS2Version: 0
OS2_WeightWidthSlopeOnly: 0
OS2_UseTypoMetrics: 1
CreationTime: 1245313983
ModificationTime: 1245314451
PfmFamily: 17
TTFWeight: 500
TTFWidth: 5
LineGap: 200
VLineGap: 90
OS2TypoAscent: 0
OS2TypoAOffset: 1
OS2TypoDescent: 0
OS2TypoDOffset: 1
OS2TypoLinegap: 200
OS2WinAscent: 827
OS2WinAOffset: 0
OS2WinDescent: 233
OS2WinDOffset: 0
HheadAscent: 827
HheadAOffset: 0
HheadDescent: -233
HheadDOffset: 0
Lookup: 1 0 0 "Case substitutions"  {"Case substitutions subtable"  } ['case' ('cyrl' <'dflt' > 'grek' <'dflt' > 'latn' <'dflt' > ) ]
Lookup: 4 0 1 "Latin Dutch ligatures"  {"Latin Dutch ligatures subtable"  } ['liga' ('latn' <'NLD ' > ) ]
Lookup: 4 0 1 "Latin ligatures excepting Turkic"  {"Latin ligatures excepting Turkic subtable"  } ['liga' ('latn' <'dflt' 'NLD ' 'VIT ' > ) ]
Lookup: 4 0 1 "Latin ligatures"  {"Latin ligatures subtable"  } ['liga' ('latn' <'dflt' 'NLD ' 'VIT ' 'TRK ' 'AZE ' > ) ]
Lookup: 4 0 1 "Cyrillic ligatures"  {"Cyrillic ligatures subtable"  } ['liga' ('cyrl' <'dflt' 'MKD ' 'SRB ' > ) ]
Lookup: 3 0 0 "Latin alternatives"  {"Latin alternatives subtable"  } ['salt' ('latn' <'dflt' > ) ]
Lookup: 3 0 0 "Stilistic set 01"  {"Stilistic set 01 subtable"  } ['ss01' ('latn' <'dflt' > 'grek' <'dflt' > 'cyrl' <'dflt' > ) ]
Lookup: 1 0 0 "Latin Vietnamese substitutions"  {"Latin Vietnamese substitutions subtable"  } ['locl' ('latn' <'VIT ' > ) ]

StartChar: .notdef
Encoding: 0 0 0
Width: 525
Flags: HW
HStem: 10 60<105 420> 705 60<105 420>
VStem: 10 60<112 663> 455 60<112 663>
DStem2: 105 705 70 663 0.508289 -0.861187<18.3797 309.738 396.718 688.585> 70 112 105 70 0.508289 0.861187<0 291.358 378.338 670.205>
LayerCount: 2
Fore
SplineSet
10 10 m 1
 10 765 l 1
 515 765 l 1
 515 10 l 1
 10 10 l 1
70 112 m 1
 232 388 l 1
 70 663 l 1
 70 112 l 1
105 70 m 1
 420 70 l 1
 262 337 l 1
 105 70 l 1
105 705 m 1
 262 438 l 1
 420 705 l 1
 105 705 l 1
292 388 m 1
 455 112 l 1
 455 663 l 1
 292 388 l 1
EndSplineSet
EndChar

StartChar: SF100000
Encoding: 9472 9472 1
Width: 525
Flags: HW
HStem: 240 70<0 525>
LayerCount: 2
Fore
SplineSet
-0 240 m 1
 -0 310 l 1
 525 310 l 1
 525 240 l 1
 -0 240 l 1
EndSplineSet
EndChar

StartChar: SF110000
Encoding: 9474 9474 2
Width: 525
Flags: HW
VStem: 227 70<-355 837>
LayerCount: 2
Fore
SplineSet
227 -355 m 1
 227 837 l 1
 297 837 l 1
 297 -355 l 1
 227 -355 l 1
EndSplineSet
EndChar

StartChar: SF010000
Encoding: 9484 9484 3
Width: 525
Flags: HW
HStem: 240 70<297 525>
VStem: 227 70<-355 240>
LayerCount: 2
Fore
SplineSet
227 310 m 1
 525 310 l 1
 525 240 l 1
 297 240 l 1
 297 -355 l 1
 227 -355 l 1
 227 310 l 1
EndSplineSet
EndChar

StartChar: SF030000
Encoding: 9488 9488 4
Width: 525
Flags: HW
HStem: 240 70<0 227>
VStem: 227 70<-355 240>
LayerCount: 2
Fore
SplineSet
0 240 m 1
 0 310 l 1
 297 310 l 1
 297 -355 l 1
 227 -355 l 1
 227 240 l 1
 0 240 l 1
EndSplineSet
EndChar

StartChar: SF020000
Encoding: 9492 9492 5
Width: 525
Flags: HW
HStem: 240 70<297 525>
VStem: 227 70<310 837>
LayerCount: 2
Fore
SplineSet
227 240 m 1
 227 837 l 1
 297 837 l 1
 297 310 l 1
 525 310 l 1
 525 240 l 1
 227 240 l 1
EndSplineSet
EndChar

StartChar: SF040000
Encoding: 9496 9496 6
Width: 525
Flags: HW
HStem: 240 70<0 227>
VStem: 227 70<310 837>
LayerCount: 2
Fore
SplineSet
0 240 m 1
 0 310 l 1
 227 310 l 1
 227 837 l 1
 297 837 l 1
 297 240 l 1
 0 240 l 1
EndSplineSet
EndChar

StartChar: SF080000
Encoding: 9500 9500 7
Width: 525
Flags: HW
HStem: 240 70<297 525>
VStem: 227 70<-355 240 310 837>
LayerCount: 2
Fore
SplineSet
227 -355 m 1
 227 837 l 1
 297 837 l 1
 297 310 l 1
 525 310 l 1
 525 240 l 1
 297 240 l 1
 297 -355 l 1
 227 -355 l 1
EndSplineSet
EndChar

StartChar: SF090000
Encoding: 9508 9508 8
Width: 525
Flags: HW
HStem: 240 70<0 227>
VStem: 227 70<-355 240 310 837>
LayerCount: 2
Fore
SplineSet
0 240 m 1
 0 310 l 1
 227 310 l 1
 227 837 l 1
 297 837 l 1
 297 -355 l 1
 227 -355 l 1
 227 240 l 1
 0 240 l 1
EndSplineSet
EndChar

StartChar: SF060000
Encoding: 9516 9516 9
Width: 525
Flags: HW
HStem: 240 70<0 227 297 525>
VStem: 227 70<-355 240>
LayerCount: 2
Fore
SplineSet
0 240 m 1
 0 310 l 1
 525 310 l 1
 525 240 l 1
 297 240 l 1
 297 -355 l 1
 227 -355 l 1
 227 240 l 1
 0 240 l 1
EndSplineSet
EndChar

StartChar: SF070000
Encoding: 9524 9524 10
Width: 525
Flags: HW
HStem: 240 70<0 227 297 525>
VStem: 227 70<310 837>
LayerCount: 2
Fore
SplineSet
0 240 m 1
 0 310 l 1
 227 310 l 1
 227 837 l 1
 297 837 l 1
 297 310 l 1
 525 310 l 1
 525 240 l 1
 0 240 l 1
EndSplineSet
EndChar

StartChar: SF050000
Encoding: 9532 9532 11
Width: 525
Flags: HW
HStem: 240 70<0 227 297 525>
VStem: 227 70<-355 240 310 837>
LayerCount: 2
Fore
SplineSet
-0 240 m 1
 -0 310 l 1
 227 310 l 1
 227 837 l 1
 297 837 l 1
 297 310 l 1
 525 310 l 1
 525 240 l 1
 297 240 l 1
 297 -355 l 1
 227 -355 l 1
 227 240 l 1
 -0 240 l 1
EndSplineSet
EndChar

StartChar: SF510000
Encoding: 9554 9554 14
Width: 525
Flags: HW
HStem: 160 70<297 525> 320 70<297 525>
VStem: 227 70<-355 160 230 320>
LayerCount: 2
Fore
SplineSet
227 -355 m 1
 227 390 l 1
 525 390 l 1
 525 320 l 1
 297 320 l 1
 297 230 l 1
 525 230 l 1
 525 160 l 1
 297 160 l 1
 297 -355 l 1
 227 -355 l 1
EndSplineSet
EndChar

StartChar: SF520000
Encoding: 9555 9555 15
Width: 525
Flags: HW
HStem: 240 70<217 307 377 525>
VStem: 147 70<-355 240> 307 70<-355 240>
LayerCount: 2
Fore
SplineSet
147 310 m 1
 525 310 l 1
 525 240 l 1
 377 240 l 1
 377 -355 l 1
 307 -355 l 1
 307 240 l 1
 217 240 l 1
 217 -355 l 1
 147 -355 l 1
 147 310 l 1
EndSplineSet
EndChar

StartChar: SF390000
Encoding: 9556 9556 16
Width: 525
Flags: HW
HStem: 160 70<377 525> 320 70<217 525>
VStem: 147 70<-355 320> 307 70<-355 160>
LayerCount: 2
Fore
SplineSet
147 -355 m 1
 147 390 l 1
 525 390 l 1
 525 320 l 1
 217 320 l 1
 217 -355 l 1
 147 -355 l 1
307 230 m 1
 525 230 l 1
 525 160 l 1
 377 160 l 1
 377 -355 l 1
 307 -355 l 1
 307 230 l 1
EndSplineSet
EndChar

StartChar: SF220000
Encoding: 9557 9557 17
Width: 525
Flags: HW
HStem: 160 70<0 227> 320 70<0 227>
VStem: 227 70<-355 160 230 320>
LayerCount: 2
Fore
SplineSet
0 160 m 1
 0 230 l 1
 227 230 l 1
 227 320 l 1
 0 320 l 1
 0 390 l 1
 297 390 l 1
 297 -355 l 1
 227 -355 l 1
 227 160 l 1
 0 160 l 1
EndSplineSet
EndChar

StartChar: SF210000
Encoding: 9558 9558 18
Width: 525
Flags: HW
HStem: 240 70<0 147 217 307>
VStem: 147 70<-355 240> 307 70<-355 240>
LayerCount: 2
Fore
SplineSet
0 240 m 1
 0 310 l 1
 377 310 l 1
 377 -355 l 1
 307 -355 l 1
 307 240 l 1
 217 240 l 1
 217 -355 l 1
 147 -355 l 1
 147 240 l 1
 0 240 l 1
EndSplineSet
EndChar

StartChar: SF250000
Encoding: 9559 9559 19
Width: 525
Flags: HW
HStem: 160 70<0 147> 320 70<0 307>
VStem: 147 70<-355 160> 307 70<-355 320>
LayerCount: 2
Fore
SplineSet
0 160 m 1
 0 230 l 1
 217 230 l 1
 217 -355 l 1
 147 -355 l 1
 147 160 l 1
 0 160 l 1
0 320 m 1
 0 390 l 1
 377 390 l 1
 377 -355 l 1
 307 -355 l 1
 307 320 l 1
 0 320 l 1
EndSplineSet
EndChar

StartChar: SF500000
Encoding: 9560 9560 20
Width: 525
Flags: HW
HStem: 160 70<297 525> 320 70<297 525>
VStem: 227 70<230 320 390 837>
LayerCount: 2
Fore
SplineSet
227 160 m 1
 227 837 l 1
 297 837 l 1
 297 390 l 1
 525 390 l 1
 525 320 l 1
 297 320 l 1
 297 230 l 1
 525 230 l 1
 525 160 l 1
 227 160 l 1
EndSplineSet
EndChar

StartChar: SF490000
Encoding: 9561 9561 21
Width: 525
Flags: HW
HStem: 240 70<217 307 377 525>
VStem: 147 70<310 837> 307 70<310 837>
LayerCount: 2
Fore
SplineSet
147 240 m 1
 147 837 l 1
 217 837 l 1
 217 310 l 1
 307 310 l 1
 307 837 l 1
 377 837 l 1
 377 310 l 1
 525 310 l 1
 525 240 l 1
 147 240 l 1
EndSplineSet
EndChar

StartChar: SF380000
Encoding: 9562 9562 22
Width: 525
Flags: HW
HStem: 160 70<217 525> 320 70<377 525>
VStem: 147 70<230 837> 307 70<390 837>
LayerCount: 2
Fore
SplineSet
147 160 m 1
 147 837 l 1
 217 837 l 1
 217 230 l 1
 525 230 l 1
 525 160 l 1
 147 160 l 1
307 320 m 1
 307 837 l 1
 377 837 l 1
 377 390 l 1
 525 390 l 1
 525 320 l 1
 307 320 l 1
EndSplineSet
EndChar

StartChar: SF280000
Encoding: 9563 9563 23
Width: 525
Flags: HW
HStem: 160 70<0 227> 320 70<0 227>
VStem: 227 70<230 320 390 837>
LayerCount: 2
Fore
SplineSet
0 160 m 1
 0 230 l 1
 227 230 l 1
 227 320 l 1
 0 320 l 1
 0 390 l 1
 227 390 l 1
 227 837 l 1
 297 837 l 1
 297 160 l 1
 0 160 l 1
EndSplineSet
EndChar

StartChar: SF270000
Encoding: 9564 9564 24
Width: 525
Flags: HW
HStem: 240 70<0 147 217 307>
VStem: 147 70<310 837> 307 70<310 837>
LayerCount: 2
Fore
SplineSet
0 240 m 1
 0 310 l 1
 147 310 l 1
 147 837 l 1
 217 837 l 1
 217 310 l 1
 307 310 l 1
 307 837 l 1
 377 837 l 1
 377 240 l 1
 0 240 l 1
EndSplineSet
EndChar

StartChar: SF260000
Encoding: 9565 9565 25
Width: 525
Flags: HW
HStem: 160 70<0 307> 320 70<0 147>
VStem: 147 70<390 837> 307 70<230 837>
LayerCount: 2
Fore
SplineSet
0 160 m 1
 0 230 l 1
 307 230 l 1
 307 837 l 1
 377 837 l 1
 377 160 l 1
 0 160 l 1
0 320 m 1
 0 390 l 1
 147 390 l 1
 147 837 l 1
 217 837 l 1
 217 320 l 1
 0 320 l 1
EndSplineSet
EndChar

StartChar: SF360000
Encoding: 9566 9566 26
Width: 525
Flags: HW
HStem: 160 70<297 525> 320 70<297 525>
VStem: 227 70<-355 160 230 320 390 837>
LayerCount: 2
Fore
SplineSet
227 -355 m 1
 227 837 l 1
 297 837 l 1
 297 390 l 1
 525 390 l 1
 525 320 l 1
 297 320 l 1
 297 230 l 1
 525 230 l 1
 525 160 l 1
 297 160 l 1
 297 -355 l 1
 227 -355 l 1
EndSplineSet
EndChar

StartChar: SF370000
Encoding: 9567 9567 27
Width: 525
Flags: HW
HStem: 240 70<377 525>
VStem: 147 70<-355 837> 307 70<-355 240 310 837>
LayerCount: 2
Fore
SplineSet
307 -355 m 1
 307 837 l 1
 377 837 l 1
 377 310 l 1
 525 310 l 1
 525 240 l 1
 377 240 l 1
 377 -355 l 1
 307 -355 l 1
EndSplineSet
Refer: 2 9474 S 1 0 0 1 -80 0 2
EndChar

StartChar: SF420000
Encoding: 9568 9568 28
Width: 525
Flags: HW
HStem: 160 70<377 525> 320 70<377 525>
VStem: 147 70<-355 837> 307 218<160 230 320 390> 307 70<-355 160 390 837>
LayerCount: 2
Fore
SplineSet
307 230 m 1xf0
 525 230 l 1
 525 160 l 1xf0
 377 160 l 1
 377 -355 l 1
 307 -355 l 1xe8
 307 230 l 1xf0
307 320 m 1xf0
 307 837 l 1
 377 837 l 1
 377 390 l 1xe8
 525 390 l 1
 525 320 l 1
 307 320 l 1xf0
EndSplineSet
Refer: 2 9474 S 1 0 0 1 -80 0 2
EndChar

StartChar: SF190000
Encoding: 9569 9569 29
Width: 525
Flags: HW
HStem: 160 70<0 227> 320 70<0 227>
VStem: 227 70<-355 160 230 320 390 837>
LayerCount: 2
Fore
SplineSet
0 160 m 1
 0 230 l 1
 227 230 l 1
 227 320 l 1
 0 320 l 1
 0 390 l 1
 227 390 l 1
 227 837 l 1
 297 837 l 1
 297 -355 l 1
 227 -355 l 1
 227 160 l 1
 0 160 l 1
EndSplineSet
EndChar

StartChar: SF200000
Encoding: 9570 9570 30
Width: 525
Flags: HW
HStem: 240 70<0 147>
VStem: 147 70<-355 240 310 837> 307 70<-355 837>
LayerCount: 2
Fore
SplineSet
0 240 m 1
 0 310 l 1
 147 310 l 1
 147 837 l 1
 217 837 l 1
 217 -355 l 1
 147 -355 l 1
 147 240 l 1
 0 240 l 1
EndSplineSet
Refer: 2 9474 S 1 0 0 1 80 0 2
EndChar

StartChar: SF230000
Encoding: 9571 9571 31
Width: 525
Flags: HW
HStem: 160 70<0 147> 320 70<0 147>
VStem: 0 217<160 230 320 390> 147 70<-355 160 390 837> 307 70<-355 837>
LayerCount: 2
Fore
SplineSet
0 160 m 1
 0 230 l 1
 217 230 l 1xe8
 217 -355 l 1
 147 -355 l 1
 147 160 l 1xd8
 0 160 l 1
0 320 m 1xe8
 0 390 l 1xe8
 147 390 l 1
 147 837 l 1
 217 837 l 1xd8
 217 320 l 1
 0 320 l 1xe8
EndSplineSet
Refer: 2 9474 S 1 0 0 1 80 0 2
EndChar

StartChar: SF470000
Encoding: 9572 9572 32
Width: 525
Flags: HW
HStem: 160 70<0 227 297 525> 320 70<0 525>
VStem: 227 70<-355 160>
LayerCount: 2
Fore
SplineSet
0 160 m 1
 0 230 l 1
 525 230 l 1
 525 160 l 1
 297 160 l 1
 297 -355 l 1
 227 -355 l 1
 227 160 l 1
 0 160 l 1
EndSplineSet
Refer: 1 9472 S 1 0 0 1 0 80 2
EndChar

StartChar: SF480000
Encoding: 9573 9573 33
Width: 525
Flags: HW
HStem: 240 70<0 147 217 307 377 525>
VStem: 147 70<-355 240> 307 70<-355 240>
LayerCount: 2
Fore
SplineSet
0 240 m 1
 0 310 l 1
 525 310 l 1
 525 240 l 1
 377 240 l 1
 377 -355 l 1
 307 -355 l 1
 307 240 l 1
 217 240 l 1
 217 -355 l 1
 147 -355 l 1
 147 240 l 1
 0 240 l 1
EndSplineSet
EndChar

StartChar: SF410000
Encoding: 9574 9574 34
Width: 525
Flags: HW
HStem: 160 70<0 147 377 525> 320 70<0 525>
VStem: 147 70<-355 160> 307 70<-355 160>
LayerCount: 2
Fore
SplineSet
0 160 m 1
 0 230 l 1
 217 230 l 1
 217 -355 l 1
 147 -355 l 1
 147 160 l 1
 0 160 l 1
307 230 m 1
 525 230 l 1
 525 160 l 1
 377 160 l 1
 377 -355 l 1
 307 -355 l 1
 307 230 l 1
EndSplineSet
Refer: 1 9472 S 1 0 0 1 0 80 2
EndChar

StartChar: SF450000
Encoding: 9575 9575 35
Width: 525
Flags: HW
HStem: 160 70<0 525> 320 70<0 227 297 525>
VStem: 227 70<390 837>
LayerCount: 2
Fore
SplineSet
0 320 m 1
 0 390 l 1
 227 390 l 1
 227 837 l 1
 297 837 l 1
 297 390 l 1
 525 390 l 1
 525 320 l 1
 0 320 l 1
EndSplineSet
Refer: 1 9472 S 1 0 0 1 0 -80 2
EndChar

StartChar: SF460000
Encoding: 9576 9576 36
Width: 525
Flags: HW
HStem: 240 70<0 147 217 307 377 525>
VStem: 147 70<310 837> 307 70<310 837>
LayerCount: 2
Fore
SplineSet
0 240 m 1
 0 310 l 1
 147 310 l 1
 147 837 l 1
 217 837 l 1
 217 310 l 1
 307 310 l 1
 307 837 l 1
 377 837 l 1
 377 310 l 1
 525 310 l 1
 525 240 l 1
 0 240 l 1
EndSplineSet
EndChar

StartChar: SF400000
Encoding: 9577 9577 37
Width: 525
Flags: HW
HStem: 160 70<0 525> 320 70<0 147 377 525>
VStem: 147 70<390 837> 307 70<390 837>
LayerCount: 2
Fore
SplineSet
0 320 m 1
 0 390 l 1
 147 390 l 1
 147 837 l 1
 217 837 l 1
 217 320 l 1
 0 320 l 1
307 320 m 1
 307 837 l 1
 377 837 l 1
 377 390 l 1
 525 390 l 1
 525 320 l 1
 307 320 l 1
EndSplineSet
Refer: 1 9472 S 1 0 0 1 0 -80 2
EndChar

StartChar: SF540000
Encoding: 9578 9578 38
Width: 525
Flags: HW
HStem: 160 70<0 227 297 525> 320 70<0 227 297 525>
VStem: 227 70<-355 160 230 320 390 837>
LayerCount: 2
Fore
SplineSet
0 160 m 1
 0 230 l 1
 227 230 l 1
 227 320 l 1
 0 320 l 1
 0 390 l 1
 227 390 l 1
 227 837 l 1
 297 837 l 1
 297 390 l 1
 525 390 l 1
 525 320 l 1
 297 320 l 1
 297 230 l 1
 525 230 l 1
 525 160 l 1
 297 160 l 1
 297 -355 l 1
 227 -355 l 1
 227 160 l 1
 0 160 l 1
EndSplineSet
EndChar

StartChar: SF530000
Encoding: 9579 9579 39
Width: 525
Flags: HW
HStem: 240 70<0 147 217 307 377 525>
VStem: 147 70<-355 240 310 837> 307 70<-355 240 310 837>
LayerCount: 2
Fore
SplineSet
-0 240 m 1
 -0 310 l 1
 147 310 l 1
 147 837 l 1
 217 837 l 1
 217 310 l 1
 307 310 l 1
 307 837 l 1
 377 837 l 1
 377 310 l 1
 525 310 l 1
 525 240 l 1
 377 240 l 1
 377 -355 l 1
 307 -355 l 1
 307 240 l 1
 217 240 l 1
 217 -355 l 1
 147 -355 l 1
 147 240 l 1
 -0 240 l 1
EndSplineSet
EndChar

StartChar: uni262D
Encoding: 9773 9773 40
Width: 525
Flags: HW
TeX: 117 0
HStem: 0 20G<30.5 60.5 462.5 467> 39 76<244.267 355.503> 102 51<98.531 128.337>
VStem: 89 43<98.6716 137.734> 431 65<186.303 382.211>
DStem2: 84 357 128 301 0.626941 0.779067<0 63.6069 102.652 165.701>
LayerCount: 2
Fore
SplineSet
18 18 m 0
 18 64 89 102 89 128 c 0
 89 148 93 153 104 153 c 0xb8
 115 153 118 159 132 180 c 1
 175 152 232 115 298 115 c 0
 336 115 356 128 356 129 c 0
 356 135 311 186 178 363 c 1
 128 301 l 1
 84 357 l 1
 188 486 l 1
 264 470 l 1
 203 393 l 1
 373 190 l 1
 396 165 l 1
 401 165 431 218 431 295 c 0
 431 473 263 587 263 593 c 1
 301 593 496 478 496 267 c 0
 496 167 458 114 450 100 c 1
 493 46 496 44 496 38 c 0
 496 17 470 -1 464 -1 c 0xd8
 461 -1 462 -3 409 62 c 1
 387 51 366 39 328 39 c 0xd8
 225 39 147 138 136 138 c 0
 132 138 132 134 132 130 c 2
 132 118 l 2
 132 108 128 102 120 102 c 0
 91 102 84 0 37 0 c 0
 24 0 18 7 18 18 c 0
EndSplineSet
EndChar

StartChar: circumflex.cap
Encoding: 65536 -1 41
Width: 608
Flags: HW
HStem: 659 165
VStem: 316 326<684 712>
AnchorPoint: "above" 460 622 mark 0
LayerCount: 2
Fore
SplineSet
316 698 m 0
 316 717 339 728 354 737 c 0
 491 822 493 824 504 824 c 0
 520 824 530 811 584 763 c 0
 641 711 642 712 642 698 c 0
 642 680 619 659 604 659 c 0
 586 659 576 674 498 751 c 1
 361 660 362 659 349 659 c 0
 329 659 316 684 316 698 c 0
EndSplineSet
EndChar

StartChar: dieresis.cap
Encoding: 65537 -1 42
Width: 608
Flags: HW
HStem: 719 100<355.764 431.265 560.868 636.236>
VStem: 343 101<732.087 806.4> 548 101<731.464 805.902>
AnchorPoint: "above" 459 622 mark 0
LayerCount: 2
Fore
SplineSet
548 764 m 0
 548 797 579 819 604 819 c 0
 631 819 649 797 649 774 c 0
 649 746 624 719 593 719 c 0
 566 719 548 740 548 764 c 0
EndSplineSet
Refer: 403 183 S 1 0 0 1 152 550 2
EndChar

StartChar: dotaccent.cap
Encoding: 65538 -1 43
Width: 608
Flags: HW
HStem: 672 100<446.773 522.236>
VStem: 434 101<684.773 759.319>
AnchorPoint: "above" 459 622 mark 0
LayerCount: 2
Fore
SplineSet
434 717 m 0
 434 747 462 772 489 772 c 0
 513 772 535 754 535 727 c 0
 535 700 510 672 479 672 c 0
 454 672 434 691 434 717 c 0
EndSplineSet
EndChar

StartChar: caron.cap
Encoding: 65539 -1 44
Width: 608
Flags: HW
HStem: 636 168
VStem: 353 290<767 790>
AnchorPoint: "above" 460 622 mark 0
LayerCount: 2
Fore
SplineSet
353 775 m 0
 353 790 367 804 383 804 c 2
 386 804 l 2
 394 804 406 799 476 711 c 1
 603 803 599 804 614 804 c 0
 629 804 643 791 643 775 c 0
 643 760 631 751 624 746 c 0
 484 636 480 636 470 636 c 0
 448 636 443 656 376 736 c 0
 355 762 353 767 353 775 c 0
EndSplineSet
EndChar

StartChar: ring.cap
Encoding: 65540 -1 45
Width: 608
Flags: HW
HStem: 590 62<427.771 517.354> 766 61<445.669 535.095>
VStem: 361 61<657.702 741.486> 541 60<676.354 759.798>
AnchorPoint: "above" 459 622 mark 0
LayerCount: 2
Fore
SplineSet
361 679 m 0
 361 754 434 827 511 827 c 0
 564 827 601 791 601 738 c 0
 601 664 529 590 452 590 c 0
 399 590 361 626 361 679 c 0
422 695 m 0
 422 669 441 652 467 652 c 0
 509 652 541 691 541 723 c 0
 541 749 521 766 496 766 c 0
 458 766 422 731 422 695 c 0
EndSplineSet
EndChar

StartChar: breve.cap
Encoding: 65541 -1 46
Width: 608
Flags: HW
HStem: 652 64<402.003 562.189>
VStem: 322 62<734.747 817.192> 616 62<760.914 817.476>
AnchorPoint: "above" 460 622 mark 0
LayerCount: 2
Fore
SplineSet
322 768 m 0
 322 805 335 819 355 819 c 0
 379 819 386 801 386 791 c 0
 386 784 384 777 384 770 c 0
 384 738 424 716 476 716 c 0
 531 716 597 742 616 792 c 0
 617 796 622 819 648 819 c 0
 664 819 678 808 678 790 c 0
 678 753 613 652 475 652 c 0
 386 652 322 698 322 768 c 0
EndSplineSet
EndChar

StartChar: grave
Encoding: 96 96 47
Width: 608
Flags: HW
TeX: 610 0
HStem: 506 71<432.967 493.708> 568 71<304.522 370.031>
VStem: 301 199<546 602>
LayerCount: 2
Fore
SplineSet
301 602 m 0
 301 624 320 639 337 639 c 2
 339 639 l 2x60
 348 639 350 638 474 577 c 0
 483 573 500 564 500 546 c 0xa0
 500 533 484 506 464 506 c 2
 463 506 l 2xa0
 455 506 453 507 329 568 c 0
 318 574 301 581 301 602 c 0
EndSplineSet
EndChar

StartChar: acute
Encoding: 180 180 48
Width: 608
Flags: HW
TeX: 610 0
ItalicCorrection: 65
HStem: 506 69<383.9 454.813>
VStem: 381 227<546 606>
LayerCount: 2
Fore
SplineSet
381 546 m 0
 381 564 395 571 404 575 c 0
 565 638 564 639 575 639 c 0
 592 639 608 626 608 606 c 0
 608 576 595 576 433 512 c 0
 426 509 419 506 411 506 c 2
 410 506 l 2
 386 506 381 533 381 546 c 0
EndSplineSet
EndChar

StartChar: circumflex
Encoding: 710 710 49
Width: 525
Flags: HW
TeX: 638 0
HStem: 488 156
VStem: 231 325<511 542>
LayerCount: 2
Fore
SplineSet
231 527 m 0
 231 548 233 545 394 636 c 0
 401 640 408 644 416 644 c 2
 417 644 l 2
 429 644 428 642 537 556 c 0
 543 551 556 542 556 527 c 0
 556 511 536 488 518 488 c 0
 503 488 496 497 410 572 c 1
 283 494 l 2
 278 491 271 488 263 488 c 0
 242 488 231 511 231 527 c 0
EndSplineSet
EndChar

StartChar: tilde
Encoding: 732 732 50
Width: 608
Flags: HW
TeX: 638 0
ItalicCorrection: 101
HStem: 491 66<461.317 536.588> 544 67<345.615 421.534>
LayerCount: 2
Fore
SplineSet
260 523 m 0
 260 534 265 541 277 550 c 0
 341 599 376 611 401 611 c 0x40
 455 611 466 557 488 557 c 0x80
 520 557 571 611 593 611 c 0x40
 605 611 622 598 622 579 c 0
 622 565 613 557 605 551 c 0
 539 500 503 491 481 491 c 0x80
 423 491 421 544 393 544 c 0x40
 363 544 310 491 291 491 c 0x80
 276 491 260 505 260 523 c 0
EndSplineSet
EndChar

StartChar: dieresis
Encoding: 168 168 51
Width: 608
Flags: HW
TeX: 610 0
ItalicCorrection: 71
HStem: 511 100<304.464 380.152 507.849 583.536>
VStem: 292 101<523.75 598.319> 495 101<523.681 597.798>
LayerCount: 2
Fore
SplineSet
495 556 m 0
 495 587 524 611 551 611 c 0
 578 611 596 591 596 566 c 0
 596 536 569 511 541 511 c 0
 516 511 495 531 495 556 c 0
EndSplineSet
Refer: 92 46 S 1 0 0 1 143 511 2
EndChar

StartChar: hungarumlaut
Encoding: 733 733 52
Width: 608
Flags: HW
TeX: 610 0
ItalicCorrection: 94
HStem: 506 133<471.93 512.551>
LayerCount: 2
Fore
SplineSet
293 545 m 0
 293 566 309 572 326 579 c 0
 476 638 476 639 487 639 c 0
 507 639 520 623 520 606 c 0
 520 596 516 590 513 584 c 1
 652 638 652 639 662 639 c 0
 682 639 695 623 695 605 c 0
 695 575 683 577 519 512 c 0
 512 509 506 506 498 506 c 0
 480 506 467 523 467 543 c 0
 467 549 468 556 471 562 c 1
 332 507 332 506 323 506 c 0
 299 506 293 531 293 545 c 0
EndSplineSet
EndChar

StartChar: ring
Encoding: 730 730 53
Width: 911
Flags: HW
TeX: 638 0
HStem: 473 36<541.856 628.755> 612 35<560.393 645.68>
VStem: 476 59<515.31 591.118> 654 59<529.815 605.703>
LayerCount: 2
Fore
SplineSet
476 545 m 0
 476 600 545 647 616 647 c 0
 671 647 713 619 713 576 c 0
 713 522 644 473 574 473 c 0
 518 473 476 502 476 545 c 0
535 549 m 0
 535 522 559 509 582 509 c 0
 622 509 654 542 654 572 c 0
 654 596 633 612 607 612 c 0
 570 612 535 581 535 549 c 0
EndSplineSet
EndChar

StartChar: caron
Encoding: 711 711 54
Width: 525
Flags: HW
TeX: 638 0
HStem: 484 155
VStem: 270 289<594 623>
LayerCount: 2
Fore
SplineSet
270 609 m 0
 270 623 282 639 299 639 c 0
 315 639 325 626 396 559 c 1
 461 598 512 639 530 639 c 0
 545 639 559 626 559 610 c 0
 559 594 546 585 539 580 c 0
 404 487 404 484 390 484 c 0
 378 484 369 493 364 498 c 0
 277 590 270 594 270 609 c 0
EndSplineSet
EndChar

StartChar: breve
Encoding: 728 728 55
Width: 608
Flags: HW
TeX: 638 0
ItalicCorrection: 102
HStem: 498 65<344.147 544.052>
VStem: 277 62<575.02 637.01>
LayerCount: 2
Fore
SplineSet
277 594 m 0
 277 615 284 639 310 639 c 0
 327 639 340 628 340 611 c 0
 340 607 339 601 339 597 c 0
 339 568 401 563 436 563 c 0
 603 563 549 638 602 638 c 0
 618 638 632 627 632 610 c 0
 632 588 600 498 435 498 c 0
 305 498 277 556 277 594 c 0
EndSplineSet
EndChar

StartChar: macron
Encoding: 175 175 56
Width: 608
Flags: HW
TeX: 610 0
ItalicCorrection: 109
HStem: 559 63<264.034 639.148>
LayerCount: 2
Fore
SplineSet
262 588 m 0
 262 599 267 622 299 622 c 2
 607 622 l 2
 638 622 641 601 641 593 c 0
 641 580 635 559 604 559 c 2
 295 559 l 1
 266 560 262 579 262 588 c 0
EndSplineSet
EndChar

StartChar: cedilla
Encoding: 184 184 58
Width: 550
Flags: HW
TeX: 0 194
HStem: -208 61<108.802 279.985>
VStem: 230 85<-11.4815 43.4282> 301 71<-125.49 -70.1337>
LayerCount: 2
Fore
SplineSet
107 -179 m 0
 107 -170 112 -147 143 -147 c 2
 164 -147 l 2
 184 -147 301 -148 301 -93 c 0xa0
 301 -78 285 -69 265 -67 c 0
 256 -66 243 -67 234 -52 c 0
 232 -48 230 -46 230 -41 c 0
 230 -33 234 -18 243 20 c 0
 247 35 251 57 279 57 c 2xc0
 282 57 l 2
 308 57 315 44 315 28 c 0xc0
 315 14 309 -1 307 -12 c 1
 336 -21 372 -47 372 -92 c 0
 372 -133 345 -178 282 -196 c 0
 239 -208 197 -208 147 -208 c 2
 142 -208 l 2
 113 -208 107 -190 107 -179 c 0
EndSplineSet
EndChar

StartChar: ogonek
Encoding: 731 731 59
Width: 375
Flags: HW
TeX: 0 222
HStem: -192 65<107.983 188.334> -79 20G<243.5 258.5>
VStem: 34 73<-126.639 -80.6051>
LayerCount: 2
Fore
SplineSet
34 -116 m 0
 34 -26 174 10 224 43 c 0
 232 48 241 56 252 56 c 0
 266 56 280 45 280 28 c 0
 280 -18 147 -41 110 -101 c 0
 108 -104 107 -107 107 -112 c 0
 107 -119 117 -127 133 -127 c 0
 155 -127 188 -114 223 -75 c 0
 226 -72 236 -59 251 -59 c 0
 266 -59 282 -75 282 -90 c 0
 282 -113 206 -192 125 -192 c 0
 75 -192 34 -162 34 -116 c 0
EndSplineSet
EndChar

StartChar: guilsinglleft
Encoding: 8249 8249 61
Width: 550
Flags: HW
TeX: 438 0
ItalicCorrection: 51
HStem: 0 21G<352.5 377>
VStem: 330 67<3.53394 94.3441>
LayerCount: 2
Fore
SplineSet
213 219 m 0
 213 259 294 250 431 419 c 0
 435 425 444 439 463 439 c 0
 480 439 493 426 493 411 c 0
 493 384 389 269 301 215 c 1
 327 188 372 135 395 43 c 0
 396 38 397 34 397 30 c 0
 397 13 387 0 367 0 c 0
 338 0 337 26 330 47 c 0
 313 99 280 148 240 183 c 0
 232 190 213 202 213 219 c 0
EndSplineSet
EndChar

StartChar: guilsinglright
Encoding: 8250 8250 62
Width: 550
Flags: HW
TeX: 438 0
ItalicCorrection: 51
HStem: 0 21G<185.5 206>
VStem: 262 63<351.061 436.805>
LayerCount: 2
Fore
SplineSet
165 28 m 0
 165 54 267 167 358 224 c 1
 278 311 262 394 262 415 c 0
 262 425 271 439 291 439 c 0
 318 439 322 416 325 405 c 0
 363 274 445 251 445 220 c 0
 445 182 352 177 232 26 c 0
 223 15 216 0 196 0 c 0
 175 0 165 17 165 28 c 0
EndSplineSet
EndChar

StartChar: quotedblright
Encoding: 8221 8221 64
Width: 433
Flags: HW
TeX: 610 0
ItalicCorrection: 13
HStem: 372 239
VStem: 195 109<518.459 598.72> 417 109<518.459 598.72>
LayerCount: 2
Fore
SplineSet
369 404 m 0
 369 437 425 435 456 511 c 1
 419 518 417 546 417 555 c 0
 417 582 440 611 473 611 c 0
 496 611 526 595 526 548 c 0
 526 457 432 372 400 372 c 0
 382 372 369 390 369 404 c 0
EndSplineSet
Refer: 85 8217 S 1 0 0 1 -81 0 2
EndChar

StartChar: quotedblbase
Encoding: 8222 8222 65
Width: 433
Flags: HW
TeX: 99 138
ItalicCorrection: 13
HStem: -138 238
VStem: 67 109<8.97987 88.3614> 289 109<8.97987 88.3614>
LayerCount: 2
Fore
SplineSet
20 -107 m 0
 20 -74 74 -77 106 0 c 1
 69 7 67 36 67 45 c 0
 67 73 90 100 123 100 c 0
 146 100 176 85 176 38 c 0
 176 -51 84 -138 50 -138 c 0
 33 -138 20 -121 20 -107 c 0
241 -106 m 0
 241 -74 297 -76 328 0 c 1
 291 7 289 36 289 45 c 0
 289 73 312 100 345 100 c 0
 368 100 398 85 398 38 c 0
 398 -51 305 -138 272 -138 c 0
 256 -138 241 -122 241 -106 c 0
EndSplineSet
EndChar

StartChar: endash
Encoding: 8211 8211 68
Width: 608
Flags: HW
TeX: 430 0
ItalicCorrection: 95
HStem: 235 62<108.904 630.341>
LayerCount: 2
Fore
SplineSet
107 264 m 0
 107 273 111 297 143 297 c 2
 599 297 l 1
 628 296 632 277 632 268 c 0
 632 258 628 235 597 235 c 2
 143 235 l 2
 111 235 107 254 107 264 c 0
EndSplineSet
EndChar

StartChar: emdash
Encoding: 8212 8212 69
Width: 1216
Flags: HW
TeX: 430 0
ItalicCorrection: 95
HStem: 235 62<151.106 1197.5>
LayerCount: 2
Fore
SplineSet
149 264 m 0
 149 273 154 297 185 297 c 2
 1163 297 l 2
 1195 297 1199 277 1199 268 c 0
 1199 252 1191 235 1161 235 c 2
 183 235 l 2
 156 235 149 253 149 264 c 0
EndSplineSet
Substitution2: "Cyrillic substitutions subtable" emdash.cyr
AlternateSubs2: "Cyrillic alternatives subtable" emdash.cyr
EndChar

StartChar: dotlessi
Encoding: 305 305 71
Width: 375
Flags: HW
TeX: 430 0
ItalicCorrection: 99
HStem: -5 62<229.596 294.357> 374 62<187.338 251.547>
VStem: 159 70<58.0044 146.105> 252 70<284.167 372.996> 328 75<91.8781 168.532>
AnchorPoint: "below" 186 0 basechar 0
AnchorPoint: "above" 296 436 basechar 0
LayerCount: 2
Fore
SplineSet
79 287 m 0
 79 316 131 436 231 436 c 0
 280 436 322 402 322 350 c 2
 322 344 l 2
 322 311 229 106 229 80 c 0
 229 66 239 57 253 57 c 0
 275 57 308 79 328 130 c 1
 335 145 335 172 366 172 c 2
 367 172 l 2
 397 172 403 154 403 143 c 0
 403 112 349 -5 251 -5 c 0
 200 -5 159 29 159 81 c 2
 159 87 l 2
 159 118 252 325 252 350 c 0
 252 366 242 374 229 374 c 0
 215 374 197 364 182 347 c 0
 139 298 158 259 116 259 c 2
 114 259 l 2
 83 259 79 276 79 287 c 0
EndSplineSet
EndChar

StartChar: dotlessj
Encoding: 567 567 72
Width: 404
Flags: HW
TeX: 430 222
ItalicCorrection: 25
HStem: -228 62<65.0938 134.84> 374 62<203.071 291.806>
VStem: -27 91<-164.812 -120.164> 79 71<260.362 319.909> 294 70<249.125 371.303>
DStem2: 152.986 -228 224.486 -228 0.242599 0.970127<103.376 586.909>
AnchorPoint: "below" 122 -222 basechar 0
AnchorPoint: "above" 355 436 basechar 0
LayerCount: 2
Fore
SplineSet
-27 -164 m 0
 -27 -135 -5 -111 22 -111 c 0
 47 -111 64 -129 64 -151 c 0
 64 -156 63 -161 62 -165 c 1
 67 -165 73 -166 78 -166 c 0
 103 -166 172 -154 205 -20 c 2
 291 324 l 2
 292 330 294 336 294 342 c 0
 294 361 279 374 258 374 c 0
 215 374 172 332 150 283 c 0
 139 260 129 259 114 259 c 0
 85 259 79 275 79 286 c 0
 79 318 151 436 260 436 c 0
 318 436 364 398 364 341 c 0
 364 321 358 307 354 290 c 2
 273 -34 l 2
 239 -172 153 -228 77 -228 c 0
 -11 -228 -27 -189 -27 -164 c 0
EndSplineSet
EndChar

StartChar: ff
Encoding: 64256 64256 73
Width: 750
Flags: HW
TeX: 610 222
ItalicCorrection: 196
HStem: -227 61<69.734 116.371 352.587 454.172> 369 61<140.562 232 314 595 677 786.367> 554 62<344 493.855 701.274 770.955>
VStem: -16 91<-162.581 -109.111> 265 91<-161.626 -108.56> 492 90<498.018 549.626> 767 90<498.62 550.625>
DStem2: 227 343 303 369 0.180875 0.983506<-193.944 26.4755 101.301 220.746> 595 369 595 -14 0.181613 0.98337<-227.921 0 74.8779 201.282>
LayerCount: 2
Fore
SplineSet
-16 -155 m 0
 -16 -116 13 -100 34 -100 c 0
 55 -100 75 -116 75 -140 c 0
 75 -149 73 -154 69 -163 c 1
 75 -164 80 -166 85 -166 c 0
 142 -166 165 -3 227 343 c 0
 229 352 231 360 232 369 c 1
 176 369 l 2
 162 369 139 371 139 398 c 0
 139 408 143 429 174 430 c 1
 243 430 l 1
 255 498 259 538 291 573 c 0
 319 605 358 616 430 616 c 0
 495 616 581 614 582 545 c 0
 582 512 561 489 533 489 c 0
 508 489 492 506 492 528 c 0
 492 536 493 542 496 550 c 1
 479 553 458 555 439 555 c 2
 436 555 l 2
 346 555 332 550 314 430 c 1
 606 430 l 1
 624 543 633 616 743 616 c 0
 795 616 857 601 857 544 c 0
 857 505 828 489 807 489 c 0
 782 489 767 505 767 528 c 0
 767 535 769 543 772 551 c 1
 763 553 752 554 742 554 c 0
 694 554 694 526 677 430 c 1
 754 430 l 2
 784 430 788 411 788 402 c 0
 788 391 784 369 752 369 c 2
 666 369 l 1
 666 369 613 62 595 -14 c 0
 569 -126 550 -146 528 -168 c 0
 469 -227 411 -228 391 -228 c 0
 336 -228 265 -216 265 -155 c 0
 265 -124 285 -100 314 -100 c 0
 339 -100 356 -118 356 -140 c 0
 356 -148 354 -154 351 -162 c 1
 365 -165 377 -166 389 -166 c 0
 421 -166 445 -155 471 -130 c 0
 518 -85 530 7 595 369 c 1
 303 369 l 1
 221 -85 216 -130 167 -186 c 0
 133 -224 101 -227 85 -227 c 0
 41 -227 -16 -208 -16 -155 c 0
EndSplineSet
Ligature2: "Latin ligatures subtable" f f
EndChar

StartChar: fi
Encoding: 64257 64257 74
Width: 691
Flags: HW
TeX: 610 222
ItalicCorrection: 99
HStem: -227 61<69.6039 116.553> -5 62<569.767 625.032> 369 61<140.562 232 314 560> 555 61<353.094 584.443>
VStem: -16 91<-162.581 -109.111> 494 70<63.0445 181.614> 585 90<504.515 550.229> 649 71<82.3955 170.592>
DStem2: 227 340 221 -66 0.184289 0.982872<-227.365 29.4247 104.492 215.935>
LayerCount: 2
Fore
SplineSet
-16 -155 m 0
 -16 -116 13 -100 34 -100 c 0
 55 -100 75 -116 75 -140 c 0
 75 -149 73 -154 69 -163 c 1
 75 -164 80 -166 85 -166 c 0
 142 -166 165 -3 227 340 c 0
 229 349 231 360 232 369 c 1xfd
 176 369 l 2
 162 369 139 371 139 398 c 0
 139 408 143 429 174 430 c 1
 243 430 l 1
 250 469 256 552 321 592 c 0
 359 615 418 616 476 616 c 2
 514 616 l 1
 566 615 675 617 675 547 c 0
 675 518 652 495 625 495 c 0
 601 495 585 510 585 536 c 0xfe
 585 540 585 544 586 549 c 1
 557 553 547 555 489 555 c 0
 392 555 366 553 343 523 c 0
 323 497 324 479 314 430 c 1
 596 430 l 2
 597 430 601 431 605 431 c 0
 631 431 638 418 638 402 c 0
 638 396 638 390 636 383 c 2
 566 105 l 2
 565 99 564 93 564 89 c 0
 564 79 568 72 572 65 c 1
 581 59 590 57 597 57 c 0
 618 57 633 82 649 143 c 0
 657 172 671 172 687 172 c 0
 715 172 720 151 720 143 c 0
 720 134 692 -5 595 -5 c 0
 545 -5 494 30 494 89 c 0
 494 109 491 93 560 369 c 1
 303 369 l 1
 303 368 l 1
 301 354 243 24 221 -66 c 0
 208 -117 199 -150 165 -188 c 0
 131 -225 101 -227 85 -227 c 0
 40 -227 -16 -208 -16 -155 c 0
EndSplineSet
Ligature2: "Latin ligatures excepting Turkic subtable" f i
EndChar

StartChar: fl
Encoding: 64258 64258 75
Width: 721
Flags: HW
TeX: 610 222
ItalicCorrection: 99
HStem: -227 61<69.734 116.371> -5 62<598.767 654.475> 369 61<140.562 232 314 589> 555 61<348.886 545.013>
VStem: -16 91<-162.581 -109.111> 523 70<63.0907 181.708> 679 70<82.8185 170.266>
DStem2: 227 343 303 369 0.180875 0.983506<-196.069 26.4755 101.301 215.898> 439.958 -227 511.977 -227 0.242599 0.970127<381.57 614.353 677.412 761.815 793.829 850.617>
LayerCount: 2
Fore
SplineSet
-16 -155 m 0
 -16 -116 13 -100 34 -100 c 0
 55 -100 75 -116 75 -140 c 0
 75 -149 73 -154 69 -163 c 1
 75 -164 80 -166 85 -166 c 0
 142 -166 165 -3 227 343 c 0
 229 352 231 360 232 369 c 1
 176 369 l 2
 162 369 139 371 139 398 c 0
 139 408 143 429 174 430 c 1
 243 430 l 1
 257 507 264 592 371 611 c 0
 400 616 430 616 459 616 c 2
 466 616 l 2
 594 616 627 598 633 543 c 1
 645 598 648 611 677 611 c 2
 678 611 l 2
 697 611 713 605 713 582 c 0
 713 572 710 563 709 561 c 2
 595 105 l 2
 593 98 593 94 593 89 c 0
 593 81 596 74 601 65 c 1
 610 59 619 57 626 57 c 0
 648 57 663 82 679 142 c 0
 687 169 699 172 715 172 c 0
 744 172 749 154 749 143 c 0
 749 135 721 -5 624 -5 c 0
 574 -5 523 30 523 89 c 0
 523 109 520 93 589 369 c 1
 303 369 l 1
 226 -56 219 -127 167 -186 c 0
 133 -224 101 -227 85 -227 c 0
 41 -227 -16 -208 -16 -155 c 0
314 430 m 1
 605 430 l 1
 625 512 l 1
 617 501 603 489 583 489 c 0
 557 489 543 507 543 529 c 0
 543 536 544 543 546 550 c 1
 525 554 500 555 475 555 c 0
 347 555 331 550 314 430 c 1
EndSplineSet
Ligature2: "Latin ligatures subtable" f l
EndChar

StartChar: ffi
Encoding: 64259 64259 76
Width: 1081
Flags: HW
TeX: 610 222
ItalicCorrection: 99
HStem: -227 61<69.9459 116.259 351.284 463.1> -5 62<954.897 1013.79> 369 61<140.461 232 314 607 689 949> 555 61<349.776 525.06 731.245 973.593>
VStem: -16 91<-162.581 -109.111> 265 90<-161.626 -109.164> 521 91<498.97 549.626> 883 70<59.5494 181.125> 974 90<503.867 550.275> 1043 66<92.2168 170.141>
DStem2: 226 334 221 -65 0.17437 0.98468<-226.444 35.51 109.874 220.412>
LayerCount: 2
Fore
SplineSet
-16 -155 m 0
 -16 -116 13 -100 34 -100 c 0
 55 -100 75 -116 75 -140 c 0
 75 -149 73 -154 69 -163 c 1
 75 -164 80 -166 85 -166 c 0
 141 -166 164 -9 226 334 c 1
 232 369 l 1
 183 369 l 2
 174 369 164 368 155 372 c 0
 146 377 139 386 139 398 c 0
 139 408 143 430 174 430 c 2
 243 430 l 1
 257 509 265 592 368 611 c 0
 393 615 417 616 442 616 c 2
 474 616 l 2
 553 616 612 601 612 544 c 0
 612 501 577 489 562 489 c 0
 537 489 521 506 521 528 c 0
 521 536 523 542 526 550 c 1
 506 553 483 555 460 555 c 2
 447 555 l 2
 363 555 336 553 320 464 c 2
 314 430 l 1
 618 430 l 1
 642 595 698 616 857 616 c 2
 898 616 l 2
 945 616 1064 618 1064 547 c 0
 1064 521 1044 495 1014 495 c 0
 991 495 974 510 974 536 c 0
 974 540 974 544 975 548 c 1
 945 554 914 555 881 555 c 2xff80
 859 555 l 2
 743 555 736 543 721 526 c 0
 697 498 693 451 689 430 c 1
 996 430 l 2
 1012 430 1023 422 1027 410 c 0
 1030 401 1027 391 1025 382 c 2
 955 105 l 2
 954 98 953 93 953 89 c 0
 953 64 974 57 986 57 c 0
 1022 57 1038 145 1043 155 c 0
 1049 166 1062 172 1075 172 c 0
 1092 172 1109 162 1109 143 c 0xff40
 1109 134 1081 -5 984 -5 c 0
 932 -5 883 30 883 88 c 0
 883 108 880 92 949 369 c 1
 678 369 l 1
 634 125 605 -76 561 -141 c 0
 551 -156 495 -227 396 -227 c 0
 333 -227 265 -219 265 -156 c 0
 265 -125 285 -100 314 -100 c 0
 339 -100 355 -118 355 -140 c 0
 355 -148 353 -154 350 -162 c 1
 366 -165 381 -166 394 -166 c 0
 431 -166 455 -154 481 -130 c 0
 541 -76 549 74 607 369 c 1
 303 369 l 1
 303 368 l 1
 300 351 242 20 221 -65 c 0
 205 -128 192 -160 161 -192 c 0
 131 -222 105 -227 85 -227 c 0
 50 -227 -16 -213 -16 -155 c 0
EndSplineSet
Ligature2: "Latin ligatures excepting Turkic subtable" ff i
Ligature2: "Latin ligatures excepting Turkic subtable" f f i
EndChar

StartChar: ffl
Encoding: 64260 64260 77
Width: 1096
Flags: HW
TeX: 610 222
ItalicCorrection: 99
HStem: -227 61<69.9459 116.259 351.284 463.092> -5 62<973.303 1028.67> 369 61<140.659 232 314 607 689 964> 555 61<344.918 495.201 723.479 917.773>
VStem: -16 91<-162.581 -109.111> 265 90<-161.626 -109.164> 491 91<498.27 549.626> 897 71<62.8067 181.359> 1057 67<92.2168 170.141>
DStem2: 226 334 221 -65 0.184648 0.982805<-226.855 35.5061 110.598 229.433> 814.958 -227 886.977 -227 0.242599 0.970127<380.654 614.353 677.17 761.572 793.829 850.618>
LayerCount: 2
Fore
SplineSet
-16 -155 m 0
 -16 -116 13 -100 34 -100 c 0
 55 -100 75 -116 75 -140 c 0
 75 -149 73 -154 69 -163 c 1
 75 -164 80 -166 85 -166 c 0
 141 -166 164 -10 226 334 c 1
 232 369 l 1
 183 369 l 2
 174 369 164 368 155 372 c 0
 146 377 139 386 139 398 c 0
 139 407 143 429 174 430 c 1
 243 430 l 1
 255 497 259 539 292 575 c 0
 320 606 359 616 430 616 c 2
 437 616 l 2
 501 616 582 611 582 545 c 0
 582 512 561 490 534 489 c 0
 511 489 491 504 491 528 c 0
 491 536 493 542 496 550 c 1
 479 553 459 555 440 555 c 2
 424 555 l 2
 326 555 333 524 314 430 c 1
 618 430 l 1
 642 598 694 616 835 616 c 2
 841 616 l 2
 946 616 1001 609 1008 543 c 1
 1020 598 1023 611 1052 611 c 2
 1053 611 l 2
 1072 611 1088 605 1088 582 c 0
 1088 572 1085 564 1084 561 c 2
 970 105 l 2
 968 98 968 94 968 89 c 0
 968 81 971 74 976 65 c 1
 983 61 990 57 1001 57 c 0
 1037 57 1052 145 1057 155 c 0
 1063 166 1077 172 1090 172 c 0
 1107 172 1124 162 1124 143 c 0
 1124 134 1096 -5 999 -5 c 0
 947 -5 897 30 897 88 c 0
 897 108 895 92 964 369 c 1
 678 369 l 1
 638 144 607 -73 561 -141 c 0
 551 -156 495 -227 396 -227 c 0
 333 -227 265 -219 265 -156 c 0
 265 -125 285 -100 314 -100 c 0
 339 -100 355 -118 355 -140 c 0
 355 -148 353 -154 350 -162 c 1
 366 -165 381 -166 394 -166 c 0
 431 -166 455 -154 481 -130 c 0
 541 -75 549 73 607 369 c 1
 303 369 l 1
 303 368 l 1
 303 368 245 31 221 -65 c 0
 209 -112 198 -154 161 -192 c 0
 131 -222 105 -227 85 -227 c 0
 50 -227 -16 -213 -16 -155 c 0
689 430 m 1
 979 430 l 1
 999 512 l 1
 991 501 978 489 958 489 c 0
 932 489 918 507 918 529 c 0
 918 536 919 543 921 550 c 1
 899 554 874 555 849 555 c 0
 720 555 707 550 689 430 c 1
EndSplineSet
Ligature2: "Latin ligatures subtable" ff l
Ligature2: "Latin ligatures subtable" f f l
EndChar

StartChar: uni2423
Encoding: 9251 9251 78
Width: 608
Flags: HW
TeX: 430 111
ItalicCorrection: 40
HStem: -133 43<106 457>
DStem2: 51.9939 -133 95.247 -133 0.242599 0.970127<55.6162 376.965>
LayerCount: 2
Fore
SplineSet
58 -116 m 0
 58 -105 68 -69 74 -45 c 2
 137 208 l 2
 138 210 143 241 167 241 c 0
 180 241 183 232 183 223 c 0
 183 219 182 215 181 211 c 2
 115 -55 l 1
 106 -90 l 1
 457 -90 l 1
 457 -89 l 1
 530 205 l 2
 531 209 535 241 560 241 c 0
 569 241 577 234 577 224 c 0
 577 216 573 205 571 195 c 2
 499 -95 l 2
 495 -113 491 -133 461 -133 c 2
 82 -133 l 2
 73 -133 58 -133 58 -116 c 0
EndSplineSet
EndChar

StartChar: exclam
Encoding: 33 33 79
Width: 375
Flags: HW
TeX: 610 0
ItalicCorrection: 86
HStem: 0 100<161.464 237.152> 602 20G<310 348.5>
VStem: 149 101<12.75 87.3193> 200 84<185.984 247.231> 277 103<535.08 608.555>
LayerCount: 2
Fore
SplineSet
200 212 m 0xd0
 200 216 201 221 202 225 c 2
 277 567 l 2
 278 569 285 622 335 622 c 0
 362 622 380 600 380 578 c 0xc8
 380 568 377 558 375 550 c 2
 284 222 l 2
 278 199 275 183 243 183 c 2
 236 183 l 2xd0
 205 183 200 201 200 212 c 0xd0
EndSplineSet
Refer: 92 46 S 1 0 0 1 0 0 3
EndChar

StartChar: quotedbl
Encoding: 34 34 80
Width: 608
Flags: HW
TeX: 610 0
ItalicCorrection: 51
HStem: 328 293<316 334.947 492 510.947>
VStem: 275 64<330.452 425.446> 450 65<330.452 425.218>
LayerCount: 2
Fore
SplineSet
450 356 m 0
 450 366 456 392 487 557 c 0
 489 568 492 621 540 621 c 0
 563 621 581 605 581 581 c 0
 581 572 583 578 515 362 c 0
 512 354 508 328 481 328 c 0
 461 328 450 343 450 356 c 0
EndSplineSet
Refer: 317 39 S 1 0 0 1 29 0 2
EndChar

StartChar: numbersign
Encoding: 35 35 81
Width: 958
Flags: HW
TeX: 610 0
ItalicCorrection: 74
HStem: 0 21G<246 266.5 477 497.5> 199 62<159.474 330 447 562 678 912.553> 350 62<196.315 432 548 663 779 950.248> 590 20G<612.5 631.5 844 862.5>
DStem2: 330 199 404 199 0.558204 0.829704<-185.886 0 117.793 182.222 298.415 496.438> 562 199 636 199 0.555702 0.831382<-186.45 0 116.687 181.665 297.672 495.71>
LayerCount: 2
Fore
SplineSet
158 230 m 0
 158 239 161 261 194 261 c 2
 354 261 l 1
 378 262 369 255 432 350 c 1
 232 350 l 2
 199 350 195 372 195 381 c 0
 195 394 201 412 235 412 c 2
 474 412 l 1
 587 581 l 2
 594 591 602 610 623 610 c 0
 640 610 654 596 654 580 c 0
 654 566 652 567 548 412 c 1
 705 412 l 1
 818 582 l 2
 824 591 834 610 854 610 c 0
 871 610 885 596 885 580 c 0
 885 566 883 567 779 412 c 1
 906 412 l 2
 917 412 929 412 936 407 c 0
 945 401 952 392 952 381 c 0
 952 352 926 350 914 350 c 2
 737 350 l 1
 678 261 l 1
 823 261 l 2
 835 261 848 262 860 262 c 0
 889 262 914 258 914 230 c 0
 914 221 910 207 893 201 c 0
 884 198 874 199 864 199 c 2
 636 199 l 1
 503 0 509 0 486 0 c 0
 468 0 456 17 456 31 c 0
 456 45 458 44 562 199 c 1
 404 199 l 1
 271 0 278 0 255 0 c 0
 237 0 224 17 224 31 c 0
 224 45 226 44 330 199 c 1
 202 199 l 2
 195 199 188 199 181 201 c 0
 169 204 158 214 158 230 c 0
447 261 m 1
 590 261 l 2
 607 261 604 262 644 322 c 0
 650 331 657 340 663 350 c 1
 506 350 l 1
 447 261 l 1
EndSplineSet
EndChar

StartChar: dollar
Encoding: 36 36 82
Width: 608
Flags: HW
TeX: 694 83
ItalicCorrection: 123
HStem: -83 21G<278 303>
VStem: 137 71<79.4762 182.198> 209 66<386.526 486.615> 260 74<-73.6087 -4.43927> 488 66<134.054 246.668> 531 94<418.824 487.359>
DStem2: 250.994 -83 314.495 -83 0.242599 0.970127<29.7603 82.4635 163.96 384.42 456.7 653.635 733.918 786.864>
LayerCount: 2
Fore
SplineSet
137 131 m 0
 137 204 170 216 191 216 c 0
 214 216 232 200 232 176 c 0
 232 146 208 139 208 125 c 0
 208 111 212 68 286 57 c 1
 344 290 l 1
 220 314 209 398 209 425 c 0
 209 525 317 605 426 615 c 1
 439 674 442 694 470 694 c 0
 490 694 501 680 501 666 c 0
 501 657 497 645 489 614 c 1
 530 608 625 589 625 487 c 0
 625 419 593 407 572 407 c 0
 545 407 531 429 531 447 c 0xe4
 531 472 551 486 555 489 c 1
 552 518 541 545 474 553 c 1
 422 345 l 1
 512 329 554 265 554 203 c 0
 554 120 478 14 334 -4 c 1
 334 -5 l 1xd8
 321 -66 316 -83 290 -83 c 0
 266 -83 260 -64 260 -55 c 0xd8
 260 -46 263 -34 271 -3 c 1
 199 6 137 48 137 131 c 0
275 432 m 0xe0
 275 417 280 375 362 359 c 1
 410 551 l 1
 327 533 275 480 275 432 c 0xe0
351 61 m 1
 433 78 488 142 488 196 c 0xc8
 488 217 480 261 405 277 c 1
 351 61 l 1
EndSplineSet
EndChar

StartChar: percent
Encoding: 37 37 83
Width: 958
Flags: HW
TeX: 694 83
ItalicCorrection: 31
HStem: -83 62<659.632 753.092> 243 62<725.108 818.581> 306 61<290.169 382.989> 632 62<355.872 448.548>
VStem: 217 57<382.033 534.266> 465 58<464.541 617.345> 586 57<-6.16805 145.255> 835 57<75.4229 227.548>
DStem2: 219 -12 267 -62 0.672459 0.740134<-40.1389 960.778>
LayerCount: 2
Fore
SplineSet
198 -48 m 0
 198 -30 212 -19 219 -12 c 2
 842 674 l 2
 855 688 862 694 876 694 c 0
 896 694 910 677 910 659 c 0
 910 644 901 635 893 627 c 2
 267 -62 l 2
 259 -70 249 -83 232 -83 c 0
 212 -83 198 -66 198 -48 c 0
217 444 m 0
 217 565 312 694 410 694 c 0
 477 694 523 637 523 555 c 0
 523 432 426 306 329 306 c 0
 262 306 217 364 217 444 c 0
274 448 m 0
 274 398 296 367 330 367 c 0
 392 367 465 461 465 552 c 0
 465 610 436 632 409 632 c 0
 347 632 274 538 274 448 c 0
586 56 m 0
 586 176 682 305 780 305 c 0
 847 305 892 249 892 167 c 0
 892 44 795 -83 698 -83 c 0
 631 -83 586 -25 586 56 c 0
643 59 m 0
 643 11 665 -21 699 -21 c 0
 759 -21 835 69 835 163 c 0
 835 213 812 243 778 243 c 0
 715 243 643 148 643 59 c 0
EndSplineSet
EndChar

StartChar: ampersand
Encoding: 38 38 84
Width: 900
Flags: HW
TeX: 610 0
ItalicCorrection: 65
HStem: -11 61<321.245 599.25> 220 66<628.392 702.092> 270 61<326.822 406.768> 369 62<329.767 407.984> 560 62<372.97 499.674> 590 20G<847 859.5>
VStem: 148 70<126.099 252.102> 221 70<399.57 479.883> 409 70<334.943 368.523> 490 91<485.786 547.487> 557 71<286.232 341.781> 760 70<182.007 334.413> 818 66<537.423 607.695>
LayerCount: 2
Fore
SplineSet
148 180 m 0
 148 237 186 310 233 355 c 1
 226 372 221 390 221 413 c 0
 221 516 325 622 444 622 c 0
 502 622 581 604 581 535 c 0
 581 491 551 476 531 476 c 0
 506 476 490 495 490 517 c 0
 490 530 494 537 501 548 c 1
 496 550 478 560 443 560 c 0
 362 560 291 481 291 412 c 0
 291 408 292 403 292 399 c 1
 315 412 356 431 402 431 c 0
 456 431 479 394 479 362 c 0
 479 320 440 270 375 270 c 0
 335 270 298 284 275 303 c 1
 274 303 l 1
 267 295 218 235 218 181 c 0
 218 109 314 50 455 50 c 0
 545 50 613 68 666 103 c 0
 721 139 760 202 760 262 c 0xbbd0
 760 310 729 350 715 371 c 1
 670 351 641 347 630 322 c 0
 628 318 628 314 628 310 c 0
 628 297 637 286 650 286 c 0
 657 286 664 289 672 289 c 0
 694 289 705 269 705 256 c 0
 705 231 684 220 658 220 c 0
 615 220 557 252 557 309 c 0
 557 391 649 416 698 439 c 0
 796 486 813 581 818 591 c 0
 827 608 844 610 850 610 c 0
 869 610 884 595 884 578 c 0xd7a8
 884 552 851 462 777 407 c 1
 796 378 830 330 830 267 c 0xd790
 830 156 741 -11 455 -11 c 0
 248 -11 148 87 148 180 c 0
326 345 m 1
 344 335 358 331 370 331 c 0
 396 331 409 349 409 360 c 0xb380
 409 365 405 369 394 369 c 0
 379 369 353 361 326 345 c 1
EndSplineSet
EndChar

StartChar: quoteright
Encoding: 8217 8217 85
Width: 375
Flags: HW
TeX: 610 0
ItalicCorrection: 86
HStem: 372 239
VStem: 276 109<518.459 598.72>
LayerCount: 2
Fore
SplineSet
229 403 m 0
 229 436 284 435 315 511 c 1
 278 518 276 546 276 555 c 0
 276 582 299 611 332 611 c 0
 355 611 385 595 385 548 c 0
 385 457 291 372 259 372 c 0
 244 372 229 386 229 403 c 0
EndSplineSet
EndChar

StartChar: parenleft
Encoding: 40 40 86
Width: 492
Flags: HW
TeX: 694 83
ItalicCorrection: 144
HStem: -83 21G<339.5 354.5>
VStem: 190 69<80.6121 323.776>
LayerCount: 2
Fore
SplineSet
190 204 m 0
 190 495 477 694 526 694 c 0
 542 694 556 684 556 666 c 0
 556 648 542 641 530 634 c 0
 377 545 259 372 259 197 c 0
 259 59 332 -4 360 -28 c 0
 368 -34 376 -42 376 -55 c 0
 376 -72 363 -83 346 -83 c 0
 333 -83 317 -76 283 -41 c 0
 262 -20 190 57 190 204 c 0
EndSplineSet
EndChar

StartChar: parenright
Encoding: 41 41 87
Width: 492
Flags: HW
TeX: 694 83
ItalicCorrection: 47
HStem: -83 21G<107 139.5>
VStem: 384 69<287.351 531.14>
LayerCount: 2
Fore
SplineSet
87 -54 m 0
 87 -35 106 -27 116 -21 c 0
 267 67 384 240 384 414 c 0
 384 549 314 613 282 639 c 0
 275 645 267 654 267 666 c 0
 267 689 288 694 297 694 c 0
 311 694 320 686 328 680 c 0
 403 623 453 530 453 409 c 0
 453 111 162 -83 117 -83 c 0
 97 -83 87 -68 87 -54 c 0
EndSplineSet
EndChar

StartChar: asterisk
Encoding: 42 42 88
Width: 608
Flags: HW
TeX: 520 0
ItalicCorrection: 86
VStem: 300 97<115 253>
LayerCount: 2
Fore
SplineSet
162 207 m 0
 162 237 181 241 318 306 c 1
 309 311 300 316 227 362 c 0
 218 368 208 376 208 389 c 0
 208 405 225 430 250 430 c 0
 264 430 263 427 362 358 c 1
 388 471 389 520 433 520 c 0
 448 520 459 511 459 496 c 1
 458 482 453 468 423 358 c 1
 540 419 558 430 571 430 c 0
 584 430 597 420 597 405 c 0
 597 374 577 370 441 305 c 1
 450 300 459 295 532 249 c 0
 541 243 551 236 551 223 c 0
 551 206 534 181 509 181 c 0
 497 181 500 182 397 253 c 1
 397 252 369 126 363 114 c 0
 356 101 340 91 326 91 c 0
 314 91 300 99 300 115 c 0
 300 121 303 130 336 253 c 1
 228 197 201 181 188 181 c 0
 173 181 162 192 162 207 c 0
EndSplineSet
EndChar

StartChar: plus
Encoding: 43 43 89
Width: 900
Flags: HW
TeX: 655 44
ItalicCorrection: 47
HStem: -44 21G<438.5 460> 275 62<178.467 486 565 873.655>
VStem: 572 64<590.226 652.572>
DStem2: 406.228 -44 469.747 -44 0.242599 0.970127<101.706 328.823 408.136 635.444>
LayerCount: 2
Fore
SplineSet
177 306 m 0
 177 324 190 333 199 335 c 0
 206 337 214 337 221 337 c 2
 502 337 l 1
 505 349 507 360 510 372 c 2
 572 618 l 2
 574 625 578 655 606 655 c 0
 621 655 636 643 636 625 c 0
 636 610 565 337 565 337 c 1
 835 337 l 2
 870 337 875 316 875 306 c 0
 875 288 861 278 853 276 c 0
 846 274 838 275 831 275 c 2
 550 275 l 1
 479 -7 l 2
 478 -13 474 -44 446 -44 c 0
 431 -44 416 -31 416 -13 c 0
 416 2 486 275 486 275 c 1
 214 275 l 2
 184 275 177 294 177 306 c 0
EndSplineSet
EndChar

StartChar: comma
Encoding: 44 44 90
Width: 375
Flags: HW
TeX: 99 138
HStem: -138 238
VStem: 149 107<7.29248 88.3751>
LayerCount: 2
Fore
SplineSet
102 -107 m 0
 102 -74 148 -83 186 1 c 1
 158 8 149 28 149 45 c 0
 149 73 172 100 205 100 c 0
 225 100 256 87 256 41 c 0
 256 -50 164 -138 132 -138 c 0
 114 -138 102 -121 102 -107 c 0
EndSplineSet
EndChar

StartChar: hyphen
Encoding: 45 45 91
Width: 433
Flags: HW
TeX: 430 0
ItalicCorrection: 24
HStem: 185 61<107.898 384.517>
VStem: 106 280<186.898 243.784>
LayerCount: 2
Fore
SplineSet
106 213 m 0
 106 223 111 246 143 246 c 2
 351 246 l 2
 383 246 386 226 386 217 c 0
 386 208 382 185 350 185 c 2
 141 185 l 2
 110 185 106 205 106 213 c 0
EndSplineSet
EndChar

StartChar: period
Encoding: 46 46 92
Width: 375
Flags: HW
TeX: 99 0
HStem: 0 100<161.464 237.152>
VStem: 149 101<12.75 87.3193>
LayerCount: 2
Fore
SplineSet
149 45 m 0
 149 75 176 100 204 100 c 0
 228 100 250 82 250 55 c 0
 250 25 222 0 194 0 c 0
 169 0 149 19 149 45 c 0
EndSplineSet
EndChar

StartChar: slash
Encoding: 47 47 93
Width: 608
Flags: HW
TeX: 694 83
ItalicCorrection: 144
HStem: -83 21G<107.5 123.5>
DStem2: 102 -20 150 -60 0.591615 0.806221<-34.9489 888.008>
LayerCount: 2
Fore
SplineSet
87 -53 m 0
 87 -39 96 -29 102 -20 c 2
 610 672 l 2
 616 679 625 694 642 694 c 0
 658 694 673 680 673 663 c 0
 673 651 667 645 660 635 c 2
 150 -60 l 2
 138 -76 130 -83 117 -83 c 0
 98 -83 87 -67 87 -53 c 0
EndSplineSet
EndChar

StartChar: zero
Encoding: 48 48 94
Width: 608
Flags: HW
TeX: 610 0
ItalicCorrection: 123
HStem: -11 62<256.714 387.836> 560 62<369.846 507.112>
VStem: 148 73<88.4106 304> 542 70<311.268 522.782>
LayerCount: 2
Fore
SplineSet
148 158 m 0
 148 237 184 404 250 501 c 0
 323 609 417 622 459 622 c 0
 531 622 612 588 612 452 c 0
 612 382 575 162 466 57 c 0
 432 25 374 -11 301 -11 c 0
 230 -11 148 23 148 158 c 0
221 179 m 0
 221 88 261 51 316 51 c 0
 488 51 542 375 542 438 c 0
 542 543 483 560 444 560 c 0
 266 560 221 242 221 179 c 0
EndSplineSet
Substitution2: "LGC old numerals subtable" zerooldstyle
EndChar

StartChar: one
Encoding: 49 49 95
Width: 608
Flags: HW
TeX: 610 0
ItalicCorrection: 123
HStem: -0 62<161.5 298 369 490.288> 435 60<263.208 354.764> 599 20G<462 483>
DStem2: 282.496 -0 353.496 -0 0.242599 0.970127<81.1337 487.619 560.751 624.869>
LayerCount: 2
Fore
SplineSet
160 29 m 0
 160 39 163 62 196 62 c 2
 298 62 l 1
 401 473 l 1
 352 442 316 435 297 435 c 0
 268 435 262 454 262 465 c 0
 262 478 270 490 284 495 c 0
 296 499 364 489 441 599 c 0
 445 604 453 619 471 619 c 0
 495 619 500 599 500 590 c 0
 500 584 499 579 498 575 c 2
 383 114 l 2
 379 97 374 79 369 62 c 1
 457 62 l 2
 482 62 492 48 492 33 c 0
 492 24 489 1 457 -0 c 1
 194 -0 l 2
 163 0 160 20 160 29 c 0
EndSplineSet
Substitution2: "LGC old numerals subtable" oneoldstyle
EndChar

StartChar: two
Encoding: 50 50 96
Width: 608
Flags: HW
TeX: 610 0
ItalicCorrection: 123
HStem: -11 68<327.149 483.33> 560 62<340.574 499.34>
VStem: 173 72<404.2 474.772> 545 69<123.975 189.678 381.997 515.397>
LayerCount: 2
Fore
SplineSet
99 18 m 0
 99 44 142 167 286 241 c 0
 370 284 545 327 545 449 c 0
 545 516 493 560 423 560 c 0
 357 560 273 515 245 434 c 0
 241 423 238 402 210 402 c 0
 209 402 208 402 207 402 c 0
 180 402 173 419 173 430 c 0
 173 483 267 622 424 622 c 0
 532 622 614 552 614 448 c 0
 614 288 430 231 336 189 c 0
 271 160 238 125 218 104 c 1
 301 98 360 57 424 57 c 0
 485 57 527 117 541 161 c 0
 547 180 553 192 576 192 c 2
 577 192 l 2
 606 192 612 174 612 163 c 0
 612 131 551 -11 422 -11 c 0
 342 -11 273 42 209 42 c 0
 158 42 181 -10 135 -11 c 0
 104 -11 99 6 99 18 c 0
EndSplineSet
Substitution2: "LGC old numerals subtable" twooldstyle
EndChar

StartChar: three
Encoding: 51 51 97
Width: 608
Flags: HW
TeX: 610 0
ItalicCorrection: 123
HStem: -11 62<210.797 381.709> 287 61<297.416 444.881> 560 62<352.567 523.83>
VStem: 117 93<107.425 177> 220 70<451.411 509.608> 480 70<129.826 254.429> 554 70<422.359 530.301>
LayerCount: 2
Fore
SplineSet
117 118 m 0
 117 175 149 188 169 188 c 0
 192 188 210 172 210 148 c 0
 210 129 199 116 188 107 c 1
 199 70 231 51 282 51 c 0
 359 51 480 94 480 192 c 0
 480 246 443 287 380 287 c 2
 329 287 l 1
 300 288 296 308 296 316 c 0
 296 325 299 348 330 348 c 2
 368 348 l 2
 503 348 554 436 554 481 c 0
 554 529 510 560 449 560 c 0
 387 560 310 533 290 477 c 0
 284 460 279 450 255 450 c 2
 253 450 l 2
 243 450 220 451 220 479 c 0
 220 526 295 622 450 622 c 0
 550 622 624 566 624 481 c 0
 624 413 575 353 494 311 c 1
 523 288 550 248 550 191 c 0
 550 51 392 -11 280 -11 c 0
 186 -11 117 40 117 118 c 0
EndSplineSet
Substitution2: "LGC old numerals subtable" threeoldstyle
EndChar

StartChar: four
Encoding: 52 52 98
Width: 608
Flags: HW
TeX: 610 222
ItalicCorrection: 123
HStem: -31 62<435.282 524.251> 0 21G<88.5 107 331.5 350.5> 18 62<212 318.406> 602 20G<476 489.5>
VStem: 309 67<-219.767 -116.678> 447 67<529.103 619.361>
DStem2: 299.986 -222 370.737 -222 0.242599 0.970127<32.7281 215.379 278.196 438.139>
LayerCount: 2
Fore
SplineSet
65 32 m 0
 65 55 90 64 110 78 c 0
 379 270 439 579 447 598 c 0
 455 616 471 622 481 622 c 0
 498 622 514 609 514 589 c 0
 514 581 460 298 212 80 c 1x3c
 274 80 318 61 367 46 c 1
 403 189 400 219 438 219 c 0
 461 219 472 200 472 187 c 0
 472 179 467 159 435 31 c 1
 442 31 l 2
 495 31 509 47 525 47 c 0
 537 47 555 35 555 16 c 0
 555 -21 471 -31 448 -31 c 0x9c
 438 -31 429 -30 419 -29 c 1
 415 -50 378 -195 376 -199 c 0
 370 -212 358 -222 343 -222 c 0
 320 -222 309 -202 309 -191 c 0
 309 -181 317 -156 352 -14 c 1
 306 -1 267 18 209 18 c 0x3c
 92 18 119 0 95 0 c 0x5c
 82 0 65 15 65 32 c 0
EndSplineSet
Substitution2: "LGC old numerals subtable" fouroldstyle
EndChar

StartChar: five
Encoding: 53 53 99
Width: 608
Flags: HW
TeX: 610 0
ItalicCorrection: 123
HStem: -11 62<222.747 382.325> 327 62<309.977 467.403> 549 62<337 622.539>
VStem: 127 93<109.472 178.201> 496 70<155.272 297.312>
DStem2: 125.728 -11 197.224 -11 0.242599 0.970127<403.892 594.525>
LayerCount: 2
Fore
SplineSet
127 120 m 0
 127 176 158 189 179 189 c 0
 200 189 220 174 220 150 c 0
 220 134 211 119 198 109 c 1
 209 70 247 51 295 51 c 0
 396 51 496 136 496 233 c 0
 496 285 466 327 407 327 c 0
 310 327 264 273 255 267 c 0
 250 264 242 262 234 262 c 0
 221 262 208 268 203 282 c 0
 200 291 204 301 206 310 c 2
 272 577 l 2
 278 602 285 611 312 611 c 2
 589 611 l 2
 620 611 624 591 624 582 c 0
 624 568 618 549 587 549 c 2
 337 549 l 1
 291 364 l 1
 327 379 362 389 409 389 c 0
 506 389 566 319 566 232 c 0
 566 100 433 -11 293 -11 c 0
 198 -11 127 41 127 120 c 0
EndSplineSet
Substitution2: "LGC old numerals subtable" fiveoldstyle
EndChar

StartChar: six
Encoding: 54 54 100
Width: 608
Flags: HW
TeX: 610 0
ItalicCorrection: 123
HStem: -11 61<253.992 390.377> 334 61<315.237 465.464> 560 62<427.475 552.539>
VStem: 151 70<86.0772 248.386> 498 70<159.65 299.276> 536 92<482.353 548.439>
LayerCount: 2
Fore
SplineSet
151 175 m 0
 151 251 177 341 196 384 c 0
 258 521 385 622 511 622 c 0
 572 622 628 598 628 536 c 0
 628 486 597 472 577 472 c 0
 555 472 536 488 536 512 c 0xf4
 536 527 542 537 553 549 c 1
 546 553 535 560 509 560 c 0
 429 560 312 490 254 345 c 1
 298 376 348 395 406 395 c 0
 526 395 568 299 568 240 c 0
 568 108 445 -11 310 -11 c 0
 246 -11 151 22 151 175 c 0
221 166 m 1
 221 128 232 50 311 50 c 0xf8
 356 50 388 66 424 95 c 0
 493 151 498 219 498 239 c 0
 498 264 482 334 401 334 c 0
 313 334 244 271 229 218 c 0
 228 214 221 166 221 166 c 1
EndSplineSet
Substitution2: "LGC old numerals subtable" sixoldstyle
EndChar

StartChar: seven
Encoding: 55 55 101
Width: 608
Flags: HW
TeX: 610 0
ItalicCorrection: 123
HStem: -11 21G<356.5 376> 490 62<497.473 551.101> 554 68<332.771 448.503>
VStem: 333 67<-8.68257 84.396>
LayerCount: 2
Fore
SplineSet
144 431 m 0
 144 440 144 440 227 595 c 0
 236 612 242 622 263 622 c 2
 267 622 l 2
 287 622 298 610 300 592 c 1
 334 608 373 622 420 622 c 0
 490 622 490 552 529 552 c 0
 553 552 599 566 635 604 c 0
 645 615 650 622 671 622 c 2
 672 622 l 2
 702 622 705 601 705 594 c 0
 705 583 702 580 670 539 c 0
 444 247 410 33 400 11 c 0
 397 5 386 -11 366 -11 c 0
 347 -11 333 4 333 22 c 0
 333 30 364 191 500 413 c 1
 552 492 l 1
 543 491 533 490 523 490 c 0
 455 490 453 554 414 554 c 0
 378 554 275 528 213 422 c 0
 206 410 199 402 180 402 c 2
 179 402 l 2
 148 402 144 421 144 431 c 0
EndSplineSet
Substitution2: "LGC old numerals subtable" sevenoldstyle
EndChar

StartChar: eight
Encoding: 56 56 102
Width: 608
Flags: HW
TeX: 610 0
ItalicCorrection: 123
HStem: -11 61<238.281 404.298> 299 62<318.108 455.859> 560 62<357.461 519.483>
VStem: 124 72<90.0507 214.646> 212 71<392.377 497.393> 499 71<133.862 258.956> 555 72<422.882 527.444>
LayerCount: 2
Fore
SplineSet
124 137 m 0
 124 176 142 277 309 330 c 1
 274 340 212 373 212 437 c 0
 212 520 321 622 461 622 c 2
 462 622 l 1
 555 621 627 570 627 492 c 0xfa
 627 427 577 364 464 330 c 1
 537 307 570 256 570 206 c 0xfc
 570 104 446 -11 301 -11 c 0
 199 -11 124 48 124 137 c 0
196 149 m 0
 196 90 246 50 316 50 c 0
 411 50 499 123 499 199 c 0xfc
 499 259 447 299 379 299 c 0
 283 299 196 226 196 149 c 0
283 443 m 0
 283 394 330 361 395 361 c 0
 480 361 555 418 555 478 c 0
 555 530 503 560 443 560 c 0xfa
 355 560 283 500 283 443 c 0
EndSplineSet
Substitution2: "LGC old numerals subtable" eightoldstyle
EndChar

StartChar: nine
Encoding: 57 57 103
Width: 608
Flags: HW
TeX: 610 0
ItalicCorrection: 123
HStem: -11 62<208.999 342.598> 215 62<296.745 445.157> 560 62<372.031 509.268>
VStem: 132 92<62.5611 128.647> 192 70<311.826 451.32> 540 69<365.492 528.753>
LayerCount: 2
Fore
SplineSet
132 76 m 0
 132 125 163 139 183 139 c 0
 206 139 224 123 224 99 c 0xf4
 224 84 218 74 208 62 c 1
 218 57 230 51 263 51 c 0
 360 51 461 147 506 266 c 1
 458 234 410 215 353 215 c 0
 232 215 192 313 192 371 c 0
 192 503 315 622 456 622 c 0
 523 622 609 584 609 439 c 0
 609 386 593 292 564 226 c 0
 504 88 383 -11 262 -11 c 0xec
 153 -11 132 41 132 76 c 0
262 371 m 0
 262 342 281 277 359 277 c 0
 443 277 526 339 534 410 c 0
 535 422 540 433 540 452 c 0xec
 540 485 528 560 454 560 c 0
 398 560 364 537 336 515 c 0
 267 460 262 393 262 371 c 0
EndSplineSet
Substitution2: "LGC old numerals subtable" nineoldstyle
EndChar

StartChar: semicolon
Encoding: 59 59 105
Width: 375
Flags: HW
TeX: 430 138
ItalicCorrection: 40
HStem: -138 238 330 100<244.358 320.125>
VStem: 149 107<7.29248 88.3751> 232 101<342.75 418.361>
LayerCount: 2
Fore
SplineSet
232 375 m 0
 232 403 256 430 287 430 c 0
 314 430 333 410 333 385 c 0
 333 355 305 330 277 330 c 0xd0
 252 330 232 349 232 375 c 0
EndSplineSet
Refer: 90 44 S 1 0 0 1 0 -0 3
EndChar

StartChar: less
Encoding: 60 60 106
Width: 900
Flags: HW
TeX: 555 -55
ItalicCorrection: 80
DStem2: 324 303 235 273 0.924905 -0.380198<0 496.268> 245 341 324 303 0.946478 0.322769<62.5065 658.118>
LayerCount: 2
Fore
SplineSet
206 306 m 0
 206 332 235 337 245 341 c 2
 852 548 l 2
 858 550 863 551 869 551 c 0
 884 551 899 539 899 521 c 0
 899 502 885 494 872 489 c 2
 324 303 l 1
 760 124 l 2
 775 118 792 111 792 91 c 0
 792 76 781 60 761 60 c 0
 754 60 747 62 741 65 c 2
 235 273 l 2
 222 278 206 286 206 306 c 0
EndSplineSet
EndChar

StartChar: equal
Encoding: 61 61 107
Width: 900
Flags: HW
TeX: 415 -195
ItalicCorrection: 74
HStem: 199 62<159.55 854.715> 350 62<196.315 891.687>
LayerCount: 2
Fore
SplineSet
158 230 m 0
 158 240 164 261 192 261 c 2
 817 261 l 2
 850 261 856 242 856 230 c 0
 856 218 850 199 815 199 c 2
 197 199 l 2
 162 199 158 221 158 230 c 0
195 381 m 0
 195 394 201 412 236 412 c 2
 854 412 l 2
 890 412 893 390 893 381 c 0
 893 373 890 350 857 350 c 2
 232 350 l 2
 199 350 195 372 195 381 c 0
EndSplineSet
EndChar

StartChar: greater
Encoding: 62 62 108
Width: 900
Flags: HW
TeX: 555 -55
ItalicCorrection: 18
DStem2: 309 546 290 487 0.925431 -0.378917<-20.099 476.087> 695 298 805 270 0.94663 0.322323<-562.067 32.5688>
LayerCount: 2
Fore
SplineSet
152 90 m 0
 152 103 159 116 179 122 c 2
 695 298 l 2
 705 302 716 305 726 308 c 1
 717 313 707 316 697 320 c 2
 290 487 l 2
 275 493 259 501 259 521 c 0
 259 539 274 551 289 551 c 0
 296 551 303 549 309 546 c 2
 817 338 l 2
 830 333 845 326 845 306 c 0
 845 282 824 276 805 270 c 2
 200 64 l 2
 194 62 188 60 182 60 c 0
 167 60 152 72 152 90 c 0
EndSplineSet
EndChar

StartChar: question
Encoding: 63 63 109
Width: 608
Flags: HW
TeX: 610 0
ItalicCorrection: 94
HStem: 0 100<278.464 354.152> 183 62<348.062 413.429> 560 62<353.51 517.974>
VStem: 218 90<438.973 499.718> 266 101<12.75 87.3193> 283 65<245.839 289.865> 536 65<455.52 541.377>
LayerCount: 2
Fore
SplineSet
218 471 m 0xf2
 218 523 296 622 450 622 c 0
 563 622 601 550 601 502 c 0
 601 445 560 404 532 383 c 0
 518 373 502 364 378 295 c 0
 353 282 348 266 348 258 c 0
 348 249 354 245 364 245 c 0
 382 245 410 258 421 274 c 0
 429 286 428 305 459 305 c 0
 485 305 494 293 494 278 c 0xe6
 494 234 435 183 359 183 c 0
 311 183 283 217 283 258 c 0xe6
 283 291 302 323 326 342 c 0
 336 350 336 349 473 425 c 0
 527 454 536 487 536 503 c 0
 536 533 504 560 449 560 c 0
 351 560 307 504 303 500 c 1
 305 494 308 487 308 479 c 0
 308 454 288 431 259 431 c 0
 236 431 218 449 218 471 c 0xf2
EndSplineSet
Refer: 92 46 S 1 0 0 1 117 0 2
EndChar

StartChar: at
Encoding: 64 64 110
Width: 783
Flags: HW
TeX: 610 0
ItalicCorrection: 77
HStem: -5 61<345.288 577.602> 107 61<464.952 603.897> 442 62<533.768 674.728> 554 62<472.792 681.227>
VStem: 168 57<160.915 340.608> 375 57<200.317 341.339> 707 72<300.028 481.223>
LayerCount: 2
Fore
SplineSet
168 245 m 0
 168 436 376 616 594 616 c 0
 686 616 779 580 779 434 c 0
 779 379 760 300 747 267 c 0
 714 185 626 107 527 107 c 0
 436 107 375 175 375 262 c 0
 375 387 491 504 612 504 c 0
 650 504 690 492 720 462 c 1
 715 492 704 554 594 554 c 0
 402 554 225 400 225 248 c 0
 225 133 323 56 456 56 c 0
 561 56 636 105 648 108 c 0
 652 109 659 110 665 110 c 0
 697 110 702 92 702 81 c 0
 702 58 673 49 659 42 c 0
 585 7 516 -5 455 -5 c 0
 290 -5 168 97 168 245 c 0
432 264 m 0
 432 207 470 168 529 168 c 0
 616 168 707 256 707 347 c 0
 707 404 668 442 610 442 c 0
 521 442 432 353 432 264 c 0
EndSplineSet
EndChar

StartChar: A
Encoding: 65 65 111
Width: 841
Flags: HW
TeX: 610 0
HStem: -0 62<91.383 194.812 258 329.566 526.452 614 688 764.64> 171 61<362 595> 603 20G<549.5 612>
DStem2: 190 72 258 62 0.519947 0.854199<26.8144 167.66 226.103 606.448> 632 581 560 558 0.107277 -0.994229<15.1433 343.017 404.416 514.074>
AnchorPoint: "ogonek" 291 0 basechar 0
AnchorPoint: "below" 420 0 basechar 0
AnchorPoint: "above" 579 622 basechar 0
LayerCount: 2
Fore
SplineSet
90 29 m 0
 90 60 115 62 129 62 c 2
 172 62 l 2
 181 62 184 63 190 72 c 2
 498 578 l 2
 522 618 535 623 564 623 c 2
 594 623 l 2
 630 623 630 594 632 581 c 2
 688 62 l 1
 726 62 l 2
 742 62 766 61 766 33 c 0
 766 17 759 0 729 -0 c 2
 561 -0 l 2
 530 0 525 19 525 29 c 0
 525 60 550 62 563 62 c 0
 580 62 597 62 614 62 c 1
 602 171 l 1
 333 171 l 2
 322 171 322 168 258 62 c 1
 292 62 l 2
 305 62 331 61 331 33 c 0
 331 17 324 0 294 -0 c 2
 125 -0 l 2
 94 0 90 20 90 29 c 0
362 232 m 1
 595 232 l 1
 560 558 l 1
 362 232 l 1
EndSplineSet
EndChar

StartChar: B
Encoding: 66 66 112
Width: 812
Flags: HW
TeX: 610 0
ItalicCorrection: 85
HStem: 0 62<96.6418 196 268 584.714> 287 61<339 608.375> 549 62<233.559 318 389 684.916>
VStem: 686 71<134.407 241.244> 728 72<419.983 512.166>
DStem2: 180.496 0 252.496 0 0.242599 0.970127<81.3763 313.24 376.057 565.958>
AnchorPoint: "below" 371 0 basechar 0
AnchorPoint: "above" 527 622 basechar 0
LayerCount: 2
Fore
SplineSet
95 29 m 0
 95 38 98 61 129 62 c 1
 196 62 l 1
 318 549 l 1
 268 549 l 2
 255 549 232 551 232 578 c 0
 232 589 236 611 269 611 c 2
 595 611 l 2
 744 611 800 539 800 481 c 0xe8
 800 417 742 353 612 320 c 1
 690 308 757 263 757 194 c 0
 757 103 640 12 506 1 c 0
 492 0 477 0 463 0 c 2
 128 0 l 2
 101 0 95 17 95 29 c 0
268 62 m 1
 459 62 l 2
 589 62 686 120 686 187 c 0xf0
 686 220 662 287 526 287 c 2
 324 287 l 1
 268 62 l 1
339 348 m 1
 493 348 l 2
 509 348 525 349 541 350 c 0
 646 359 728 414 728 468 c 0xe8
 728 500 695 549 582 549 c 2
 389 549 l 1
 339 348 l 1
EndSplineSet
EndChar

StartChar: C
Encoding: 67 67 113
Width: 841
Flags: HW
TeX: 610 0
ItalicCorrection: 123
HStem: -11 61<354.386 592.95> 560 62<484.564 708.927>
VStem: 168 70<158.019 335.776> 712 72<134.028 199.981> 778 71<401.767 503.61>
AnchorPoint: "below" 459 0 basechar 0
AnchorPoint: "above" 598 622 basechar 0
LayerCount: 2
Fore
SplineSet
168 244 m 0
 168 439 377 622 598 622 c 0
 676 622 751 601 796 560 c 1
 797 560 l 1
 832 608 839 622 859 622 c 0
 876 622 889 610 889 594 c 0
 889 586 890 593 849 429 c 0
 844 408 834 400 814 400 c 0
 781 400 778 418 778 434 c 2
 778 441 l 2xe8
 778 532 677 560 604 560 c 0
 414 560 238 400 238 243 c 0
 238 145 313 50 465 50 c 0
 555 50 682 84 712 171 c 0
 717 186 720 202 748 202 c 2
 749 202 l 2
 778 202 784 184 784 173 c 0xf0
 784 120 697 -11 456 -11 c 0
 289 -11 168 90 168 244 c 0
EndSplineSet
EndChar

StartChar: D
Encoding: 68 68 114
Width: 871
Flags: HW
TeX: 610 0
ItalicCorrection: 77
HStem: -0 62<95.8453 196 267 559.595> 549 62<233.672 317 389 672.911>
VStem: 781 73<261.89 445.406>
DStem2: 180.496 -0 251.496 -0 0.242599 0.970127<81.1337 565.715>
AnchorPoint: "below" 400 0 basechar 0
AnchorPoint: "above" 555 622 basechar 0
LayerCount: 2
Fore
SplineSet
94 29 m 0
 94 39 99 62 129 62 c 2
 196 62 l 1
 317 549 l 1
 268 549 l 2
 256 549 232 551 232 578 c 0
 232 587 235 611 267 611 c 2
 589 611 l 2
 643 611 690 605 742 575 c 0
 778 554 854 494 854 373 c 0
 854 187 667 0 443 -0 c 2
 129 -0 l 2
 99 0 94 18 94 29 c 0
267 62 m 1
 441 62 l 2
 633 62 781 213 781 356 c 0
 781 433 735 549 558 549 c 2
 389 549 l 1
 267 62 l 1
EndSplineSet
EndChar

StartChar: E
Encoding: 69 69 115
Width: 783
Flags: HW
TeX: 610 0
ItalicCorrection: 123
HStem: -0 62<96.6418 196 268 661.812> 286 62<339 520> 549 62<233.562 318 389 749>
VStem: 735 93<483 582>
DStem2: 180.496 -0 252.496 -0 0.242599 0.970127<81.3763 312.27 376.057 565.958>
AnchorPoint: "ogonek" 399 0 basechar 0
AnchorPoint: "below" 399 0 basechar 0
AnchorPoint: "above" 555 622 basechar 0
LayerCount: 2
Fore
SplineSet
95 29 m 0
 95 38 98 61 129 62 c 1
 196 62 l 1
 318 549 l 1
 269 549 l 2
 255 549 232 550 232 578 c 0
 232 589 236 611 269 611 c 2
 794 611 l 2
 825 611 828 590 828 582 c 0
 828 572 824 562 804 482 c 0
 799 463 788 455 770 455 c 2
 769 455 l 2
 749 455 735 460 735 483 c 0
 735 499 742 521 749 549 c 1
 389 549 l 1
 339 348 l 1
 535 348 l 1
 541 354 535 403 577 404 c 0
 607 404 613 387 613 375 c 0
 613 370 611 363 585 259 c 0
 582 248 578 229 551 229 c 2
 549 229 l 2
 525 229 515 241 515 259 c 0
 515 267 516 270 520 286 c 1
 324 286 l 1
 324 285 l 1
 268 62 l 1
 657 62 l 1
 679 159 681 172 710 172 c 2
 712 172 l 2
 741 172 747 155 747 143 c 0
 747 140 720 25 714 14 c 0
 706 1 692 0 684 -0 c 2
 129 -0 l 2
 100 0 95 19 95 29 c 0
EndSplineSet
EndChar

StartChar: F
Encoding: 70 70 116
Width: 754
Flags: HW
TeX: 610 0
ItalicCorrection: 138
HStem: -0 62<96.6418 196 268 375.346> 275 61<336 511> 549 62<233.676 318 389 734>
VStem: 719 94<488.906 547.052>
DStem2: 180.496 -0 252.496 -0 0.242599 0.970127<81.3763 300.871 363.688 565.958>
CounterMasks: 1 e0
AnchorPoint: "below" 378 0 basechar 0
AnchorPoint: "above" 533 622 basechar 0
LayerCount: 2
Fore
SplineSet
95 29 m 0
 95 38 98 61 129 62 c 1
 196 62 l 1
 318 549 l 1
 270 549 l 2
 256 549 232 550 232 578 c 0
 232 590 237 611 269 611 c 2
 776 611 l 2
 789 611 813 610 813 582 c 0
 813 571 789 476 786 471 c 0
 780 460 767 454 754 454 c 0
 736 454 719 466 719 483 c 0
 719 493 724 507 734 549 c 1
 389 549 l 1
 336 336 l 1
 527 336 l 1
 537 384 543 393 568 393 c 2
 569 393 l 2
 595 393 604 380 604 364 c 0
 604 354 585 282 576 248 c 0
 573 237 569 218 542 218 c 2
 541 218 l 2
 516 218 506 229 506 247 c 0
 506 256 508 264 511 275 c 1
 321 275 l 1
 268 62 l 1
 343 62 l 2
 373 62 377 42 377 33 c 0
 377 22 372 0 341 -0 c 2
 129 -0 l 2
 98 0 95 20 95 29 c 0
EndSplineSet
EndChar

StartChar: G
Encoding: 71 71 117
Width: 900
Flags: HW
TeX: 610 0
ItalicCorrection: 65
HStem: -11 62<352.7 566.402> -0 21G<697 729.5> 208 61<600.447 717 793 871.724> 560 62<483.065 711.11>
VStem: 168 70<156.427 338.978> 778 70<401.206 503.533>
AnchorPoint: "below" 455 0 basechar 0
AnchorPoint: "above" 598 622 basechar 0
LayerCount: 2
Fore
SplineSet
168 243 m 0
 168 434 371 622 598 622 c 0
 708 622 768 585 796 560 c 1
 797 560 l 1
 832 608 839 622 859 622 c 0
 876 622 888 610 888 594 c 0
 888 586 889 592 848 428 c 0
 841 401 827 400 813 400 c 0
 793 400 778 405 778 432 c 2
 778 442 l 2
 778 520 698 560 603 560 c 0
 413 560 238 400 238 243 c 0
 238 128 333 51 459 51 c 0xbc
 565 51 672 117 717 208 c 1
 633 208 l 2
 602 208 599 226 599 236 c 0
 599 266 625 269 635 269 c 2
 836 269 l 2
 850 269 873 267 873 240 c 0
 873 209 847 207 835 207 c 0
 834 207 833 208 832 208 c 2
 793 208 l 1
 793 207 l 1
 789 190 785 174 751 38 c 0
 746 20 744 0 715 -0 c 2
 713 -0 l 2x7c
 681 0 678 22 678 27 c 0
 678 34 681 44 687 69 c 1
 628 27 553 -11 452 -11 c 0
 293 -11 168 91 168 243 c 0
EndSplineSet
EndChar

StartChar: H
Encoding: 72 72 118
Width: 841
Flags: HW
TeX: 610 0
ItalicCorrection: 136
HStem: -0 62<96.6594 196 268 352.324 504.659 604 676 760.051> 287 61<339 660> 549 62<233.559 318 389 489.341 641.559 726 797 897.314>
DStem2: 180.496 -0 252.496 -0 0.242599 0.970127<81.3763 313.24 376.057 565.958> 588.496 -0 660.496 -0 0.242599 0.970127<81.3763 295.773 358.833 565.958>
AnchorPoint: "below" 420 0 basechar 0
AnchorPoint: "above" 575 622 basechar 0
LayerCount: 2
Fore
SplineSet
95 29 m 0
 95 38 98 61 129 62 c 1
 196 62 l 1
 318 549 l 1
 268 549 l 2
 255 549 232 551 232 578 c 0
 232 589 236 611 269 611 c 2
 455 611 l 2
 485 611 491 594 491 582 c 0
 491 572 487 550 456 549 c 1
 389 549 l 1
 339 348 l 1
 676 348 l 1
 726 549 l 1
 676 549 l 2
 663 549 640 551 640 578 c 0
 640 589 644 611 677 611 c 2
 863 611 l 2
 895 611 899 591 899 582 c 0
 899 572 895 550 864 549 c 1
 797 549 l 1
 676 62 l 1
 725 62 l 2
 738 62 762 60 762 33 c 0
 762 21 756 0 724 -0 c 2
 538 -0 l 2
 507 0 503 19 503 29 c 0
 503 38 506 61 537 62 c 1
 604 62 l 1
 660 287 l 1
 324 287 l 1
 268 62 l 1
 318 62 l 2
 331 62 354 60 354 33 c 0
 354 21 349 0 317 -0 c 2
 130 -0 l 2
 99 0 95 19 95 29 c 0
EndSplineSet
EndChar

StartChar: I
Encoding: 73 73 119
Width: 433
Flags: HW
TeX: 610 0
ItalicCorrection: 138
HStem: -0 62<91.6724 196 267 356.346> 549 62<228.876 317 389 493.341>
DStem2: 180.496 -0 251.496 -0 0.242599 0.970127<81.1337 565.715>
AnchorPoint: "ogonek" 216 0 basechar 0
AnchorPoint: "below" 215 0 basechar 0
AnchorPoint: "above" 371 622 basechar 0
LayerCount: 2
Fore
SplineSet
90 29 m 0
 90 38 93 62 125 62 c 2
 196 62 l 1
 317 549 l 1
 264 549 l 2
 250 549 227 551 227 578 c 0
 227 588 231 611 264 611 c 2
 459 611 l 2
 489 611 495 594 495 582 c 0
 495 572 491 550 460 549 c 1
 389 549 l 1
 267 62 l 1
 285 62 303 62 321 62 c 0
 335 62 358 60 358 33 c 0
 358 21 353 0 322 -0 c 2
 125 -0 l 2
 93 0 90 20 90 29 c 0
EndSplineSet
EndChar

StartChar: J
Encoding: 74 74 120
Width: 608
Flags: HW
TeX: 610 0
ItalicCorrection: 112
HStem: -11 62<214.512 359.82> 549 62<402.528 516 582.222 663.341>
VStem: 136 77<60.0117 105.849>
DStem2: 375.739 -11 447.74 -11 0.242599 0.970127<93.3474 577.298>
AnchorPoint: "below" 316 0 basechar 0
AnchorPoint: "above" 569 622 basechar 0
LayerCount: 2
Fore
SplineSet
136 86 m 0
 136 132 167 146 187 146 c 0
 211 146 228 127 228 106 c 0
 228 103 228 86 213 71 c 1
 213 70 l 1
 225 62 241 51 285 51 c 0
 329 51 397 75 415 146 c 2
 516 549 l 1
 436 549 l 2
 411 549 401 564 401 578 c 0
 401 589 405 611 439 611 c 2
 630 611 l 2
 661 611 665 591 665 582 c 0
 665 564 654 556 649 553 c 0
 641 549 632 549 624 549 c 2
 587 549 l 1
 584 535 581 521 577 507 c 2
 483 130 l 2
 462 46 380 -11 282 -11 c 0
 222 -11 136 10 136 86 c 0
EndSplineSet
EndChar

StartChar: K
Encoding: 75 75 121
Width: 871
Flags: HW
TeX: 610 0
ItalicCorrection: 123
HStem: -0 62<102.729 203 261 345.374 585.624 648 723 790.495> 549 62<240.559 324 383 482.341 689.676 736 796.008 913.561>
DStem2: 187.496 -0 245.496 -0 0.242599 0.970127<77.9799 210.889 286.318 565.715> 312 264 293 191 0.830014 0.557743<0 177.044 241.113 510.883> 540 357 487 321 0.527148 -0.849774<2.65302 307.615>
AnchorPoint: "below" 439 0 basechar 0
AnchorPoint: "above" 594 622 basechar 0
LayerCount: 2
Fore
SplineSet
101 29 m 0
 101 39 105 61 136 62 c 1
 203 62 l 1
 324 549 l 1
 275 549 l 2
 262 549 239 551 239 578 c 0
 239 589 243 611 276 611 c 2
 447 611 l 2
 460 611 484 609 484 582 c 0
 484 572 480 550 449 549 c 1
 383 549 l 1
 312 264 l 1
 736 549 l 1
 723 549 l 2
 692 549 688 569 688 578 c 0
 688 589 693 611 725 611 c 2
 881 611 l 2
 911 611 915 591 915 582 c 0
 915 552 889 549 879 549 c 2
 836 549 l 2
 827 549 823 547 796 529 c 2
 540 357 l 1
 723 62 l 1
 756 62 l 2
 765 62 792 61 792 33 c 0
 792 21 788 0 755 0 c 2
 621 0 l 2
 608 0 584 2 584 29 c 0
 584 59 611 62 620 62 c 2
 648 62 l 1
 487 321 l 1
 293 191 l 1
 261 62 l 1
 310 62 l 2
 323 62 347 60 347 33 c 0
 347 20 341 0 310 -0 c 2
 138 -0 l 2
 122 0 101 3 101 29 c 0
EndSplineSet
EndChar

StartChar: L
Encoding: 76 76 122
Width: 725
Flags: HW
TeX: 610 0
HStem: 0 62<96.6418 196 268 588.813> 549 62<233.871 318 389 513.314>
DStem2: 180.496 0 252.496 0 0.242599 0.970127<81.3763 565.958>
AnchorPoint: "below" 363 0 basechar 0
AnchorPoint: "above" 519 622 basechar 0
LayerCount: 2
Fore
SplineSet
95 29 m 0
 95 38 98 61 129 62 c 1
 196 62 l 1
 318 549 l 1
 268 549 l 2
 255 549 232 551 232 578 c 0
 232 588 236 611 268 611 c 2
 478 611 l 2
 510 611 515 594 515 582 c 0
 515 572 511 549 479 549 c 2
 389 549 l 1
 268 62 l 1
 584 62 l 1
 606 158 608 172 638 172 c 2
 639 172 l 2
 670 172 674 153 674 143 c 0
 674 133 670 121 649 37 c 0
 643 13 639 0 610 0 c 2
 130 0 l 2
 100 0 95 17 95 29 c 0
EndSplineSet
EndChar

StartChar: M
Encoding: 77 77 123
Width: 1016
Flags: HW
TeX: 610 0
ItalicCorrection: 136
HStem: -0 62<102.987 203 261 345.376 685.987 785 843 927.438> 549 62<240.686 324 965 1065.13>
DStem2: 187.496 -0 245.496 -0 0.242599 0.970127<77.9799 565.715> 432 578 381 544 0.185943 -0.982561<23.924 510.91> 527 76 564 47 0.566529 0.824042<0 598.975> 769.496 -0 827.496 -0 0.242599 0.970127<77.9799 559.652>
AnchorPoint: "below" 507 0 basechar 0
AnchorPoint: "above" 662 622 basechar 0
LayerCount: 2
Fore
SplineSet
101 29 m 0
 101 38 105 61 136 62 c 1
 203 62 l 1
 324 549 l 1
 281 549 l 2
 272 549 262 549 254 553 c 0
 245 558 239 566 239 578 c 0
 239 588 243 611 275 611 c 2
 348 611 l 2
 355 611 362 611 369 610 c 1
 375 611 381 611 387 611 c 2
 389 611 l 2
 416 611 428 599 432 578 c 2
 517 128 l 2
 520 111 523 93 527 76 c 1
 536 90 545 104 555 118 c 2
 870 575 l 2
 892 607 912 611 934 611 c 2
 1030 611 l 2
 1040 611 1067 610 1067 582 c 0
 1067 573 1063 550 1032 549 c 1
 965 549 l 1
 843 62 l 1
 893 62 l 2
 906 62 929 60 929 33 c 0
 929 18 922 0 892 -0 c 2
 721 -0 l 2
 701 0 684 6 684 29 c 0
 684 38 688 61 719 62 c 1
 785 62 l 1
 905 543 l 1
 564 47 l 2
 543 16 522 12 511 12 c 0
 478 12 475 49 474 55 c 2
 391 493 l 2
 388 510 385 527 381 544 c 1
 261 62 l 1
 310 62 l 2
 323 62 347 60 347 33 c 0
 347 20 342 0 310 -0 c 2
 138 -0 l 2
 118 0 101 6 101 29 c 0
EndSplineSet
EndChar

StartChar: N
Encoding: 78 78 124
Width: 841
Flags: HW
TeX: 610 0
ItalicCorrection: 136
HStem: -0 62<102.642 202 260 344.324> 549 62<239.654 324 647.562 732 784.764 890.271>
DStem2: 186.496 -0 244.496 -0 0.242599 0.970127<77.9799 565.958> 436 577 385 560 0.30896 -0.951075<0.411326 553.05> 595.246 -0 653.248 -0 0.242599 0.970127<52.5705 565.776>
AnchorPoint: "below" 419 0 basechar 0
AnchorPoint: "above" 575 622 basechar 0
LayerCount: 2
Fore
SplineSet
101 29 m 0
 101 38 104 61 135 62 c 1
 202 62 l 1
 324 549 l 1
 275 549 l 2
 261 549 238 551 238 578 c 0
 238 590 243 611 274 611 c 2
 347 611 l 2
 354 611 362 611 369 610 c 1
 375 611 380 611 386 611 c 2
 388 611 l 2
 410 611 428 604 436 577 c 2
 600 74 l 2
 602 66 605 58 608 51 c 1
 732 549 l 1
 682 549 l 2
 669 549 646 551 646 578 c 0
 646 593 653 611 683 611 c 2
 855 611 l 2
 871 611 892 607 892 582 c 0
 892 572 888 550 857 549 c 1
 790 549 l 1
 786 531 781 513 777 495 c 2
 661 31 l 2
 659 24 654 0 629 0 c 0
 627 0 626 1 624 1 c 0
 618 0 612 0 606 0 c 2
 603 0 l 2
 561 0 557 32 551 49 c 2
 405 500 l 2
 399 520 392 540 385 560 c 1
 260 62 l 1
 310 62 l 2
 323 62 346 60 346 33 c 0
 346 21 341 0 309 -0 c 2
 137 -0 l 2
 124 0 101 2 101 29 c 0
EndSplineSet
EndChar

StartChar: O
Encoding: 79 79 125
Width: 900
Flags: HW
TeX: 610 0
ItalicCorrection: 77
HStem: -11 61<359.631 572.257> 560 62<478.512 697.528>
VStem: 167 74<163.476 345.051> 814 70<273.897 453.949>
AnchorPoint: "ogonek" 449 0 basechar 0
AnchorPoint: "below" 449 0 basechar 0
AnchorPoint: "above" 605 622 basechar 0
LayerCount: 2
Fore
SplineSet
167 236 m 0
 167 431 377 622 605 622 c 0
 764 622 884 523 884 375 c 0
 884 182 676 -11 446 -11 c 0
 286 -11 167 88 167 236 c 0
241 256 m 0
 241 133 334 50 461 50 c 0
 652 50 814 224 814 368 c 0
 814 483 718 560 590 560 c 0
 415 560 241 423 241 256 c 0
EndSplineSet
EndChar

StartChar: P
Encoding: 80 80 126
Width: 783
Flags: HW
TeX: 610 0
ItalicCorrection: 85
HStem: -0 62<96.6594 196 268 352.324> 244 61<329 607.319> 549 62<233.559 318 389 660.36>
VStem: 722 72<389.641 499.045>
DStem2: 180.496 -0 252.496 -0 0.242599 0.970127<81.3763 268.856 331.916 565.958>
AnchorPoint: "below" 356 0 basechar 0
AnchorPoint: "above" 512 622 basechar 0
LayerCount: 2
Fore
SplineSet
95 29 m 0
 95 38 98 61 129 62 c 1
 196 62 l 1
 318 549 l 1
 268 549 l 2
 255 549 232 551 232 578 c 0
 232 591 237 611 269 611 c 2
 576 611 l 2
 749 611 794 520 794 460 c 0
 794 361 671 244 491 244 c 2
 313 244 l 1
 268 62 l 1
 318 62 l 2
 331 62 354 60 354 33 c 0
 354 21 349 0 317 -0 c 2
 130 -0 l 2
 99 0 95 19 95 29 c 0
329 305 m 1
 482 305 l 2
 645 305 722 387 722 446 c 0
 722 487 684 549 545 549 c 2
 389 549 l 1
 329 305 l 1
EndSplineSet
EndChar

StartChar: Q
Encoding: 81 81 127
Width: 900
Flags: HW
TeX: 610 138
ItalicCorrection: 77
HStem: -139 21G<665.5 700> -11 61<356.008 523.626> 560 62<476.749 696.912>
VStem: 167 72<158.504 343.348> 812 72<269.645 452.399>
DStem2: 593 77 525 57 0.539756 -0.841821<-125.386 -19.867 58.5214 226.531>
AnchorPoint: "below" 393 -222 basechar 0
AnchorPoint: "above" 605 622 basechar 0
LayerCount: 2
Fore
SplineSet
167 236 m 0
 167 430 377 622 605 622 c 0
 764 622 884 523 884 375 c 0
 884 223 756 83 625 28 c 1
 715 -109 717 -108 717 -119 c 0
 717 -127 713 -139 687 -139 c 2
 676 -139 l 2
 655 -139 648 -135 634 -113 c 0
 574 -19 567 -8 560 4 c 1
 515 -7 486 -11 445 -11 c 0
 287 -11 167 88 167 236 c 0
239 249 m 0
 239 130 333 50 462 50 c 0
 481 50 500 52 525 57 c 1
 491 113 470 136 470 151 c 0
 470 156 472 171 501 171 c 2
 505 171 l 2
 540 171 532 169 593 77 c 1
 714 125 812 242 812 362 c 0
 812 481 717 560 589 560 c 0
 408 560 239 406 239 249 c 0
EndSplineSet
EndChar

StartChar: R
Encoding: 82 82 128
Width: 841
Flags: HW
TeX: 610 0
ItalicCorrection: 12
HStem: -11 62<657.608 731.446> -0 62<96.6899 196 268 352.441> 275 61<336 585.277> 549 62<233.654 318 389 639.96>
VStem: 585 70<52.7261 186.051> 611 70<121.147 251.188> 710 72<408.187 499.574> 747 73<66.625 123.495>
DStem2: 177.745 -11 249.745 -11 0.242599 0.970127<92.7151 312.21 375.026 577.297>
AnchorPoint: "below" 356 0 basechar 0
AnchorPoint: "above" 512 622 basechar 0
LayerCount: 2
Fore
SplineSet
95 29 m 0
 95 38 98 61 129 62 c 1
 196 62 l 1x74
 318 549 l 1
 269 549 l 2
 256 549 232 551 232 578 c 0
 232 589 237 611 268 611 c 2
 532 611 l 2
 725 611 782 525 782 468 c 0
 782 403 722 344 626 305 c 1
 654 289 681 262 681 217 c 0x76
 681 180 655 123 655 86 c 0
 655 68 662 51 689 51 c 0
 716 51 738 75 747 92 c 0
 756 110 754 126 786 126 c 0
 813 126 820 109 820 98 c 0
 820 64 769 -11 688 -11 c 0
 628 -11 585 25 585 88 c 0xb9
 585 127 611 193 611 216 c 0
 611 257 548 275 476 275 c 2
 321 275 l 1
 268 62 l 1
 318 62 l 2
 331 62 354 60 354 33 c 0
 354 2 328 0 316 -0 c 2
 133 -0 l 2
 120 0 95 1 95 29 c 0
336 336 m 1
 455 336 l 1
 511 338 561 339 626 367 c 0
 639 372 710 402 710 456 c 0x32
 710 493 662 549 509 549 c 2
 389 549 l 1
 336 336 l 1
EndSplineSet
EndChar

StartChar: S
Encoding: 83 83 129
Width: 667
Flags: HW
TeX: 610 0
ItalicCorrection: 94
HStem: -11 61<250.988 453.946> 560 62<360.166 539.451>
VStem: 105 104<12 155.654> 211 67<393.354 491.288> 544 67<130.911 241.168> 577 70<409.224 521.832>
AnchorPoint: "below" 365 0 basechar 0
AnchorPoint: "above" 454 622 basechar 0
LayerCount: 2
Fore
SplineSet
105 17 m 0
 105 24 104 18 143 174 c 0
 149 198 157 203 180 203 c 0
 206 203 213 186 213 175 c 0
 213 160 209 160 209 137 c 0
 209 68 292 50 364 50 c 0
 469 50 544 128 544 190 c 0xf8
 544 286 399 272 306 307 c 0
 262 323 211 363 211 431 c 0
 211 531 324 622 454 622 c 0
 546 622 585 590 607 570 c 1
 629 611 636 622 655 622 c 0
 670 622 685 611 685 594 c 0
 685 587 686 592 647 437 c 0xf4
 644 427 640 407 613 407 c 0
 612 407 613 408 612 408 c 2
 611 408 l 2xf8
 600 408 577 409 577 438 c 2
 577 462 l 2xf4
 577 541 512 560 452 560 c 0
 358 560 278 497 278 438 c 0
 278 336 482 374 566 298 c 0
 597 270 611 234 611 196 c 0xf8
 611 99 510 -11 362 -11 c 0
 257 -11 208 17 181 38 c 1
 161 0 153 -11 134 -11 c 0
 112 -11 105 7 105 17 c 0
EndSplineSet
EndChar

StartChar: T
Encoding: 84 84 130
Width: 841
Flags: HW
TeX: 610 0
ItalicCorrection: 138
HStem: 0 62<261.471 400 472 595.047> 455 156<226.994 268.135 828.075 880.493> 549 62<282.77 522 593 828>
VStem: 813 93<483 583>
DStem2: 384.496 0 456.496 0 0.242599 0.970127<81.3763 565.958>
AnchorPoint: "below" 420 0 basechar 0
AnchorPoint: "above" 575 622 basechar 0
LayerCount: 2
Fore
SplineSet
200 483 m 0
 200 493 204 504 224 582 c 0
 229 601 238 611 258 611 c 2
 871 611 l 2
 903 611 906 591 906 583 c 0
 906 573 903 562 883 482 c 0
 879 463 867 455 848 455 c 0xd0
 836 455 813 456 813 483 c 0
 813 494 818 509 828 549 c 1
 593 549 l 1
 472 62 l 1
 562 62 l 2
 587 62 597 48 597 33 c 0
 597 24 593 1 561 0 c 1
 296 0 l 2xb0
 281 0 260 6 260 29 c 0
 260 42 265 62 297 62 c 2
 400 62 l 1
 522 549 l 1
 287 549 l 1xb0
 268 459 262 455 237 455 c 2
 236 455 l 2
 206 455 200 472 200 483 c 0
EndSplineSet
EndChar

StartChar: U
Encoding: 85 85 131
Width: 841
Flags: HW
TeX: 610 0
ItalicCorrection: 136
HStem: -11 62<345.694 517.131> 549 62<233.313 317 384.095 489.129 641.313 725 797 897.314>
VStem: 227 70<97.035 260.204>
DStem2: 177.483 -11 249.234 -11 0.242599 0.970127<198.749 577.118> 585.233 -11 657.484 -11 0.242599 0.970127<143.224 577.178>
AnchorPoint: "ogonek" 428 0 basechar 0
AnchorPoint: "below" 428 0 basechar 0
AnchorPoint: "above" 575 622 basechar 0
LayerCount: 2
Fore
SplineSet
227 164 m 0
 227 192 234 214 239 235 c 2
 317 549 l 1
 268 549 l 2
 255 549 232 551 232 578 c 0
 232 589 235 611 268 611 c 2
 455 611 l 2
 485 611 491 594 491 582 c 0
 491 572 486 550 455 549 c 1
 389 549 l 1
 374 482 381 516 306 216 c 0
 302 200 297 184 297 163 c 0
 297 95 351 51 425 51 c 0
 513 51 600 110 632 186 c 0
 638 201 642 216 646 232 c 2
 725 549 l 1
 676 549 l 2
 663 549 640 551 640 578 c 0
 640 589 643 611 676 611 c 2
 863 611 l 2
 895 611 899 591 899 582 c 0
 899 572 895 550 864 549 c 1
 797 549 l 1
 788 514 l 1
 716 223 l 2
 709 194 692 95 572 28 c 0
 533 6 484 -11 425 -11 c 0
 313 -11 227 59 227 164 c 0
EndSplineSet
EndChar

StartChar: V
Encoding: 86 86 132
Width: 841
Flags: HW
TeX: 610 0
ItalicCorrection: 167
HStem: -8 21G<383 453> 549 62<214.748 288 363 448.031 681.69 751 812.743 913.954>
DStem2: 363 549 288 549 0.139522 -0.990219<0 501.905> 433 52 498 37 0.538957 0.842333<0.385197 590.028>
AnchorPoint: "below" 421 0 basechar 0
AnchorPoint: "above" 575 622 basechar 0
LayerCount: 2
Fore
SplineSet
213 578 m 0
 213 593 220 611 251 611 c 2
 414 611 l 2
 440 611 450 597 450 582 c 0
 450 570 444 559 434 553 c 0
 426 548 417 549 408 549 c 2
 363 549 l 1
 429 79 l 1
 433 52 l 1
 751 549 l 1
 718 549 l 2
 705 549 680 550 680 578 c 0
 680 588 684 611 716 611 c 2
 880 611 l 2
 913 611 916 590 916 582 c 0
 916 571 910 559 900 553 c 0
 892 548 882 549 873 549 c 2
 826 549 l 1
 821 540 816 532 810 523 c 2
 498 37 l 2
 487 19 472 -8 434 -8 c 2
 403 -8 l 1
 363 -7 363 16 360 38 c 2
 288 549 l 1
 250 549 l 2
 239 549 213 551 213 578 c 0
EndSplineSet
EndChar

StartChar: W
Encoding: 87 87 133
Width: 1133
Flags: HW
TeX: 610 0
ItalicCorrection: 167
HStem: -8 21G<324.5 367.5 750.5 805.5> 549 62<212.471 278 337 426.671 995.38 1069 1116.83 1209.55>
VStem: 281 56<413 549> 732 56<44.8438 177.88>
DStem2: 363 44 412 26 0.481208 0.876606<0.126553 614.077> 791 44 847 37 0.482252 0.876033<0.782004 576.462>
AnchorPoint: "below" 566 0 basechar 0
AnchorPoint: "above" 721 622 basechar 0
LayerCount: 2
Fore
SplineSet
211 578 m 0
 211 591 216 611 248 611 c 2
 392 611 l 2
 424 611 428 591 428 582 c 0
 428 551 404 549 390 549 c 2
 337 549 l 1
 361 76 l 1
 363 44 l 1
 373 64 385 84 396 104 c 2
 649 565 l 2
 660 584 670 611 712 611 c 2
 726 611 l 2
 765 611 763 586 764 566 c 2
 788 98 l 2
 789 80 789 62 791 44 c 1
 1069 549 l 1
 1030 549 l 2
 1019 549 994 550 994 578 c 0
 994 609 1019 611 1032 611 c 2
 1175 611 l 2
 1206 611 1211 594 1211 582 c 0
 1211 551 1185 549 1173 549 c 0
 1158 549 1143 549 1128 549 c 1
 1124 540 1120 532 1115 524 c 2
 847 37 l 2
 837 19 826 -8 785 -8 c 2
 771 -8 l 2
 730 -8 734 17 732 39 c 2
 707 535 l 2
 707 543 706 550 705 558 c 1
 701 549 696 542 691 533 c 2
 412 26 l 2
 395 -4 378 -8 357 -8 c 0
 352 -8 347 -8 342 -8 c 0
 307 -8 305 11 304 33 c 2
 281 493 l 2
 280 512 278 530 278 549 c 1
 246 549 l 2
 237 549 211 551 211 578 c 0
EndSplineSet
EndChar

StartChar: X
Encoding: 88 88 134
Width: 841
Flags: HW
TeX: 610 0
ItalicCorrection: 138
HStem: -0 62<92.4332 210.209 274 328.328 524.519 591 679 760.314> 549 62<246.624 328 417 482.574 620.824 673 738.455 856.617>
DStem2: 228 101 274 62 0.704727 0.709478<4.7478 298.912 397.397 631.45> 417 549 328 549 0.475177 -0.87989<0 189.303 273.666 511.187>
AnchorPoint: "below" 419 0 basechar 0
AnchorPoint: "above" 574 622 basechar 0
LayerCount: 2
Fore
SplineSet
91 29 m 0
 91 60 116 62 131 62 c 2
 168 62 l 2
 194 62 189 63 228 101 c 2
 454 324 l 1
 328 549 l 1
 282 549 l 2
 269 549 245 551 245 578 c 0
 245 589 249 611 282 611 c 2
 448 611 l 2
 478 611 484 594 484 582 c 0
 484 551 458 549 448 549 c 2
 417 549 l 1
 508 383 l 1
 673 549 l 1
 654 549 l 2
 623 549 619 568 619 578 c 0
 619 590 625 611 655 611 c 2
 823 611 l 2
 854 611 858 591 858 582 c 0
 858 551 833 549 819 549 c 2
 781 549 l 2
 753 549 761 549 720 509 c 2
 533 325 l 1
 679 62 l 1
 725 62 l 2
 738 62 762 60 762 33 c 0
 762 23 758 0 726 -0 c 2
 558 -0 l 2
 526 0 523 19 523 29 c 0
 523 55 541 62 562 62 c 2
 591 62 l 1
 480 272 l 1
 274 62 l 1
 294 62 l 2
 324 62 330 45 330 33 c 0
 330 24 327 0 295 -0 c 2
 126 -0 l 2
 96 0 91 20 91 29 c 0
EndSplineSet
EndChar

StartChar: Y
Encoding: 89 89 135
Width: 841
Flags: HW
TeX: 610 0
ItalicCorrection: 178
HStem: -0 62<299.874 401 471 555.324> 549 62<218.62 298 385 453.615 676.5 730 797.344 911.561>
DStem2: 385 549 298 549 0.437724 -0.899109<0 261.191> 499 314 529 258 0.704559 0.709646<0 329.52>
AnchorPoint: "below" 419 0 basechar 0
AnchorPoint: "above" 575 622 basechar 0
LayerCount: 2
Fore
SplineSet
217 578 m 0
 217 589 221 611 253 611 c 2
 420 611 l 2
 451 611 455 591 455 582 c 0
 455 554 435 549 416 549 c 2
 385 549 l 1
 499 314 l 1
 730 549 l 1
 710 549 l 2
 679 549 675 568 675 578 c 0
 675 588 678 611 711 611 c 2
 879 611 l 2
 909 611 913 591 913 582 c 0
 913 551 887 549 876 549 c 0
 860 549 844 549 828 549 c 0
 817 549 812 543 806 537 c 2
 529 258 l 2
 512 240 521 261 471 62 c 1
 521 62 l 2
 534 62 557 60 557 33 c 0
 557 21 552 0 520 -0 c 2
 334 -0 l 2
 303 0 298 19 298 29 c 0
 298 38 302 61 333 62 c 1
 401 62 l 1
 446 245 l 1
 298 549 l 1
 253 549 l 2
 241 549 217 551 217 578 c 0
EndSplineSet
EndChar

StartChar: Z
Encoding: 90 90 136
Width: 725
Flags: HW
TeX: 610 0
ItalicCorrection: 123
HStem: -0 62<214 580.029> 549 62<317.504 663>
VStem: 575 91<64.6357 147.243>
DStem2: 128 66 214 62 0.742258 0.670114<61.1538 720.773>
AnchorPoint: "below" 365 0 basechar 0
AnchorPoint: "above" 521 622 basechar 0
LayerCount: 2
Fore
SplineSet
106 22 m 0
 106 48 124 62 128 66 c 2
 663 549 l 1
 322 549 l 1
 305 469 300 454 269 454 c 0
 252 454 236 463 236 483 c 0
 236 493 239 503 259 582 c 0
 266 611 285 611 297 611 c 2
 739 611 l 2
 753 611 770 609 770 589 c 0
 770 563 751 547 749 545 c 2
 214 62 l 1
 575 62 l 1
 598 161 600 175 630 175 c 2
 632 175 l 2
 657 175 666 163 666 146 c 0
 666 142 665 138 664 133 c 0
 634 12 639 0 601 -0 c 2
 139 -0 l 2
 127 0 106 1 106 22 c 0
EndSplineSet
EndChar

StartChar: bracketleft
Encoding: 91 91 137
Width: 380
Flags: HW
TeX: 694 83
ItalicCorrection: 173
HStem: -83 61<216 299.685> 632 62<380 478.314>
DStem2: 128.747 -83 200.746 -83 0.242599 0.970127<80.3453 754.594>
LayerCount: 2
Fore
SplineSet
137 -55 m 0
 137 -49 139 -44 140 -38 c 2
 315 662 l 2
 321 686 330 694 352 694 c 2
 444 694 l 2
 476 694 480 675 480 665 c 0
 480 654 475 632 444 632 c 2
 380 632 l 1
 216 -22 l 1
 263 -22 l 2
 278 -22 301 -23 301 -51 c 0
 301 -62 297 -83 264 -83 c 2
 174 -83 l 2
 144 -83 137 -66 137 -55 c 0
EndSplineSet
EndChar

StartChar: backslash
Encoding: 92 92 138
Width: 608
Flags: HW
TeX: 694 83
HStem: -83 21G<448.5 470>
DStem2: 338 620 269 645 0.227454 -0.973789<-58.2027 689.595>
LayerCount: 2
Fore
SplineSet
265 663 m 0
 265 681 282 694 296 694 c 0
 325 694 328 665 338 620 c 2
 490 -34 l 2
 491 -40 494 -46 494 -52 c 0
 494 -70 477 -83 463 -83 c 0
 434 -83 432 -50 429 -40 c 2
 269 645 l 2
 268 651 265 657 265 663 c 0
EndSplineSet
EndChar

StartChar: bracketright
Encoding: 93 93 139
Width: 380
Flags: HW
TeX: 694 83
ItalicCorrection: 91
HStem: -83 61<51.8977 151> 632 62<230.949 315>
DStem2: 135.746 -83 208.248 -83 0.242599 0.970127<62.8784 737.127>
LayerCount: 2
Fore
SplineSet
50 -55 m 0
 50 -45 55 -22 87 -22 c 2
 151 -22 l 1
 315 632 l 1
 266 632 l 2
 253 632 229 634 229 661 c 0
 229 672 234 694 267 694 c 2
 354 694 l 2
 376 694 393 689 393 666 c 0
 393 660 392 655 391 649 c 2
 216 -52 l 2
 211 -73 204 -83 178 -83 c 2
 87 -83 l 2
 56 -83 50 -65 50 -55 c 0
EndSplineSet
EndChar

StartChar: asciicircum
Encoding: 94 94 140
Width: 725
Flags: HW
TeX: 610 0
ItalicCorrection: 62
HStem: 422 72<260.253 347.017 620.439 690.67> 496 69<433.48 539.556>
LayerCount: 2
Fore
SplineSet
258 461 m 0
 258 483 275 488 291 494 c 0
 481 562 488 565 496 565 c 2
 497 565 l 2
 507 565 506 564 668 494 c 0
 682 488 697 481 697 462 c 0
 697 450 682 422 661 422 c 2
 660 422 l 2
 643 422 500 496 492 496 c 0
 481 496 303 422 287 422 c 0
 269 422 258 437 258 461 c 0
EndSplineSet
EndChar

StartChar: underscore
Encoding: 95 95 141
Width: 900
Flags: HW
TeX: 0 95
HStem: -95 70<116.637 751.404>
LayerCount: 2
Fore
SplineSet
114 -60 m 0
 114 -51 118 -25 156 -25 c 2
 714 -25 l 2
 749 -25 754 -50 754 -60 c 0
 754 -69 750 -95 713 -95 c 2
 158 -95 l 2
 121 -95 114 -74 114 -60 c 0
EndSplineSet
EndChar

StartChar: quoteleft
Encoding: 8216 8216 142
Width: 375
Flags: HW
TeX: 610 0
ItalicCorrection: 86
HStem: 372 238
VStem: 234 109<384.848 463.541>
LayerCount: 2
Fore
SplineSet
234 434 m 0
 234 525 329 610 360 610 c 0
 377 610 391 593 391 579 c 0
 391 546 337 550 304 472 c 1
 341 465 343 437 343 428 c 0
 343 400 319 372 287 372 c 0
 264 372 234 387 234 434 c 0
EndSplineSet
EndChar

StartChar: a
Encoding: 97 97 143
Width: 608
Flags: HW
TeX: 430 0
ItalicCorrection: 99
HStem: -5 61<234.809 343.276 485.416 541.069> 374 62<313.676 421.689>
VStem: 140 70<81.5797 252.909> 447 33<88 275> 545 91<75.7168 146.801>
AnchorPoint: "ogonek" 419 0 basechar 0
AnchorPoint: "affricate-below" 552 -222 basechar 0
AnchorPoint: "affricate-above" 761 611 basechar 0
AnchorPoint: "below" 267 0 basechar 0
AnchorPoint: "above" 376 436 basechar 0
LayerCount: 2
Fore
SplineSet
140 157 m 0
 140 295 256 436 376 436 c 0
 439 436 470 398 481 386 c 1
 489 419 511 421 518 421 c 0
 536 421 552 408 552 388 c 0
 552 382 550 376 549 372 c 2
 482 105 l 2
 480 98 480 93 480 88 c 0
 480 79 483 73 488 65 c 1
 497 59 506 57 513 57 c 0
 526 57 535 66 545 84 c 0
 573 138 557 172 603 172 c 0
 632 172 636 152 636 143 c 0
 636 134 607 -5 512 -5 c 0
 468 -5 431 19 416 54 c 1
 389 30 341 -5 280 -5 c 0
 196 -5 140 65 140 157 c 0
210 153 m 0
 210 119 224 56 282 56 c 0
 359 56 447 168 447 275 c 0
 447 336 417 374 374 374 c 0
 305 374 210 274 210 153 c 0
EndSplineSet
EndChar

StartChar: b
Encoding: 98 98 144
Width: 550
Flags: HW
TeX: 610 0
ItalicCorrection: 51
HStem: -5 61<234.809 341.775> 374 62<314.445 420.627> 549 62<129.313 230>
VStem: 140 70<81.1394 251.181> 446 70<182.177 349.132>
AnchorPoint: "affricate-below" 494 -222 basechar 0
AnchorPoint: "affricate-above" 703 611 basechar 0
AnchorPoint: "below" 273 0 basechar 0
AnchorPoint: "above" 426 611 basechar 0
LayerCount: 2
Fore
SplineSet
128 578 m 0
 128 589 131 611 164 611 c 2
 274 611 l 2
 284 611 309 610 309 582 c 0
 309 574 310 581 264 396 c 1
 289 414 329 436 376 436 c 0
 460 436 516 367 516 274 c 0
 516 132 397 -5 280 -5 c 0
 196 -5 140 63 140 157 c 0
 140 190 147 216 153 240 c 2
 230 549 l 1
 163 549 l 2
 132 549 128 569 128 578 c 0
210 153 m 0
 210 119 224 56 282 56 c 0
 359 56 446 168 446 275 c 0
 446 336 417 374 374 374 c 0
 304 374 210 273 210 153 c 0
EndSplineSet
EndChar

StartChar: c
Encoding: 99 99 145
Width: 550
Flags: HW
TeX: 430 0
ItalicCorrection: 49
HStem: -5 61<249.472 460.271> 374 62<330.431 454.39>
VStem: 141 70<93.7608 249.874> 441 91<290.546 356.623>
AnchorPoint: "affricate-below" 494 -222 basechar 0
AnchorPoint: "affricate-above" 703 611 basechar 0
AnchorPoint: "below" 326 0 basechar 0
AnchorPoint: "above" 404 436 basechar 0
LayerCount: 2
Fore
SplineSet
141 166 m 0
 141 305 271 436 405 436 c 0
 479 436 532 398 532 341 c 0
 532 295 502 281 482 281 c 0
 457 281 441 299 441 321 c 0
 441 338 449 349 456 357 c 1
 448 363 435 374 404 374 c 0
 310 374 211 270 211 165 c 0
 211 121 232 56 315 56 c 2
 319 56 l 2
 499 56 481 109 517 109 c 0
 536 109 553 87 553 73 c 0
 553 62 548 54 536 44 c 0
 474 -6 382 -5 319 -5 c 0
 176 -5 141 100 141 166 c 0
EndSplineSet
EndChar

StartChar: d
Encoding: 100 100 146
Width: 608
Flags: HW
TeX: 610 0
ItalicCorrection: 99
HStem: -5 61<234.809 343.276 485.392 540.648> 374 62<313.676 421.689> 549 62<420.562 521>
VStem: 140 70<81.5797 252.909> 447 33<89 275>
DStem2: 383.223 -5 454.21 -5 0.242599 0.970127<403.04 570.875>
AnchorPoint: "affricate-below" 552 -222 basechar 0
AnchorPoint: "affricate-above" 761 611 basechar 0
AnchorPoint: "below" 347 0 basechar 0
AnchorPoint: "above" 427 611 basechar 0
LayerCount: 2
Fore
SplineSet
140 157 m 0
 140 295 256 436 376 436 c 0
 439 436 470 398 481 386 c 1
 521 549 l 1
 452 549 l 2
 426 549 419 566 419 578 c 0
 419 593 426 611 456 611 c 2
 566 611 l 2
 592 611 600 598 600 582 c 0
 600 577 598 572 597 566 c 2
 482 106 l 2
 480 99 480 94 480 89 c 0
 480 81 483 74 488 65 c 1
 496 60 504 57 512 57 c 0
 518 57 524 59 530 64 c 0
 573 106 549 172 601 172 c 0
 617 172 636 166 636 143 c 0
 636 134 607 -5 512 -5 c 0
 468 -5 431 19 416 54 c 1
 389 30 341 -5 280 -5 c 0
 196 -5 140 65 140 157 c 0
210 153 m 0
 210 119 224 56 282 56 c 0
 359 56 447 168 447 275 c 0
 447 336 417 374 374 374 c 0
 305 374 210 274 210 153 c 0
EndSplineSet
EndChar

StartChar: e
Encoding: 101 101 147
Width: 550
Flags: HW
TeX: 430 0
ItalicCorrection: 84
HStem: -5 61<251.867 460.697> 189 61<232 413.711> 374 62<327.173 457.739>
VStem: 142 70<93.5838 188.43> 465 70<287.254 364.311>
AnchorPoint: "ogonek" 322 0 basechar 0
AnchorPoint: "affricate-below" 494 -222 basechar 0
AnchorPoint: "affricate-above" 703 611 basechar 0
AnchorPoint: "below" 322 0 basechar 0
AnchorPoint: "above" 406 436 basechar 0
LayerCount: 2
Fore
SplineSet
142 168 m 0
 142 313 276 436 406 436 c 0
 480 436 535 393 535 331 c 0
 535 303 524 222 390 198 c 0
 345 190 295 189 244 189 c 2
 213 189 l 1
 212 181 212 174 212 166 c 0
 212 117 234 56 320 56 c 0
 503 57 480 109 518 109 c 0
 532 109 553 91 553 73 c 0
 553 57 521 -5 328 -5 c 2
 314 -5 l 2
 201 -5 142 76 142 168 c 0
232 250 m 1
 263 250 l 2
 332 250 465 256 465 331 c 0
 465 357 440 374 404 374 c 0
 335 374 261 317 232 250 c 1
EndSplineSet
EndChar

StartChar: f
Encoding: 102 102 148
Width: 375
Flags: HW
TeX: 610 222
ItalicCorrection: 196
HStem: -227 61<69.734 115.516> 369 61<140.562 232 314 423.346> 554 62<337.667 396.323>
VStem: -16 91<-162.581 -109.111> 392 90<498.066 551.624>
DStem2: 219 298 303 369 0.178885 0.98387<-142.484 72.1803 146.865 271.873>
AnchorPoint: "affricate-below" 319 -222 basechar 0
AnchorPoint: "affricate-above" 528 611 basechar 0
AnchorPoint: "above" 373 611 basechar 0
AnchorPoint: "below" 185 0 basechar 0
LayerCount: 2
Fore
SplineSet
-16 -155 m 0
 -16 -116 13 -100 34 -100 c 0
 55 -100 75 -116 75 -140 c 0
 75 -149 73 -154 69 -163 c 1
 75 -164 80 -166 85 -166 c 0
 139 -166 161 -24 219 298 c 0
 223 322 228 345 232 369 c 1
 176 369 l 2
 162 369 139 371 139 398 c 0
 139 408 143 429 174 430 c 1
 243 430 l 1
 261 531 264 616 375 616 c 0
 424 616 482 598 482 543 c 0
 482 501 450 489 433 489 c 0
 410 489 392 505 392 528 c 0
 392 535 393 544 397 552 c 1
 389 553 382 554 374 554 c 0
 330 554 332 522 314 430 c 1
 391 430 l 2
 421 430 425 411 425 402 c 0
 425 391 420 369 389 369 c 2
 303 369 l 1
 303 369 238 -16 210 -105 c 0
 198 -145 160 -227 85 -227 c 0
 41 -227 -16 -208 -16 -155 c 0
EndSplineSet
EndChar

StartChar: g
Encoding: 103 103 149
Width: 550
Flags: HW
TeX: 430 222
ItalicCorrection: 84
HStem: -228 62<163.777 302.098> 0 62<234.527 344.504> 374 62<314.318 422.326>
VStem: 73 90<-165.051 -119.867> 141 69<87.1564 251.591> 447 104<219.5 399>
AnchorPoint: "affricate-below" 494 -222 basechar 0
AnchorPoint: "affricate-above" 703 611 basechar 0
AnchorPoint: "below" 218 -222 basechar 0
AnchorPoint: "above" 383 436 basechar 0
LayerCount: 2
Fore
SplineSet
73 -163 m 0xf4
 73 -136 93 -111 123 -111 c 0
 146 -111 163 -126 163 -152 c 0xf4
 163 -155 163 -159 162 -163 c 1
 179 -165 196 -166 213 -166 c 2
 218 -166 l 2
 240 -166 316 -162 356 -92 c 0
 361 -83 366 -78 393 40 c 1
 365 20 327 0 282 0 c 0
 197 0 141 70 141 162 c 0xec
 141 296 254 436 376 436 c 0
 418 436 453 419 480 387 c 1
 483 398 491 421 518 421 c 0
 535 421 551 409 551 389 c 0
 551 383 549 377 548 371 c 2
 442 -55 l 2
 437 -74 432 -95 424 -111 c 0
 389 -183 306 -228 220 -228 c 2
 213 -228 l 2
 162 -228 73 -227 73 -163 c 0xf4
210 159 m 0
 210 101 239 62 283 62 c 0xec
 353 62 447 161 447 278 c 0
 447 322 426 374 374 374 c 0
 301 374 211 271 210 159 c 0
EndSplineSet
EndChar

StartChar: h
Encoding: 104 104 150
Width: 608
Flags: HW
TeX: 610 0
ItalicCorrection: 99
HStem: -5 62<463.121 527.798> 374 62<332.844 453.548> 549 62<129.712 230>
VStem: 102 66<-2.97528 91.4375> 392 71<57.5491 147.134> 461 70<228.381 365.585> 566 70<97.9633 170.672>
AnchorPoint: "affricate-below" 552 -222 basechar 0
AnchorPoint: "affricate-above" 761 611 basechar 0
AnchorPoint: "below" 274 0 basechar 0
AnchorPoint: "above" 427 611 basechar 0
LayerCount: 2
Fore
SplineSet
102 28 m 0
 102 33 103 37 104 42 c 2
 217 494 l 2
 222 512 226 531 230 549 c 1
 163 549 l 2
 132 549 128 569 128 578 c 0
 128 588 132 611 165 611 c 2
 273 611 l 2
 289 611 309 607 309 582 c 0
 309 572 310 581 258 373 c 1
 295 408 340 436 406 436 c 0
 478 436 531 399 531 323 c 0xf6
 531 247 463 105 463 81 c 0
 463 65 475 57 487 57 c 0
 519 57 551 95 566 143 c 0
 573 166 580 172 601 172 c 2
 606 172 l 2
 623 172 636 161 636 143 c 0
 636 112 582 -5 484 -5 c 0
 433 -5 392 29 392 81 c 0xfa
 392 123 461 256 461 323 c 0
 461 354 446 374 404 374 c 0
 235 374 182 46 168 17 c 0
 165 11 155 -5 135 -5 c 0
 117 -5 102 8 102 28 c 0
EndSplineSet
EndChar

StartChar: i
Encoding: 105 105 151
Width: 375
Flags: HW
TeX: 610 0
ItalicCorrection: 99
HStem: -5 62<229.596 294.357> 374 62<187.338 251.547> 522 89<275.058 345.823>
VStem: 159 70<58.0044 146.105> 252 70<284.167 372.996> 266 89<531.057 601.889> 328 75<91.8781 168.532>
AnchorPoint: "above" 334 591 basechar 0
AnchorPoint: "ogonek" 187 0 basechar 0
AnchorPoint: "affricate-below" 319 -222 basechar 0
AnchorPoint: "affricate-above" 528 611 basechar 0
AnchorPoint: "below" 186 0 basechar 0
LayerCount: 2
Fore
SplineSet
266 563 m 0
 266 587 288 611 315 611 c 0
 335 611 355 595 355 571 c 0
 355 544 331 522 307 522 c 0xf4
 282 522 266 542 266 563 c 0
EndSplineSet
Refer: 71 305 S 1 0 0 1 0 0 3
EndChar

StartChar: j
Encoding: 106 106 152
Width: 375
Flags: HW
TeX: 610 222
ItalicCorrection: 129
HStem: -227 61<62.5104 131.059> 374 62<203.798 292.074> 522 89<314.48 386.561>
VStem: -27 91<-164.766 -120.164> 294 70<250.188 370.602> 306 90<531.561 602.482>
DStem2: 152.986 -227 225.236 -227 0.242599 0.970127<106.69 585.939>
AnchorPoint: "affricate-below" 319 -222 basechar 0
AnchorPoint: "affricate-above" 528 611 basechar 0
AnchorPoint: "below" 113 -222 basechar 0
LayerCount: 2
Fore
SplineSet
-27 -164 m 0
 -27 -132 -2 -111 22 -111 c 0
 47 -111 64 -129 64 -151 c 0
 64 -156 63 -160 62 -165 c 1
 64 -165 66 -166 68 -166 c 0
 94 -166 113 -158 134 -142 c 0
 187 -101 198 -46 205 -19 c 2
 291 325 l 2
 292 330 294 336 294 342 c 0xf8
 294 361 279 374 258 374 c 0
 236 374 184 357 151 285 c 0
 143 268 137 259 117 259 c 2
 113 259 l 2
 104 259 84 260 80 282 c 1
 76 318 155 436 261 436 c 0
 318 436 364 399 364 342 c 0
 364 323 358 303 355 291 c 2
 274 -32 l 2
 270 -49 265 -66 259 -82 c 0
 232 -149 164 -227 69 -227 c 0
 23 -227 -27 -212 -27 -164 c 0
306 563 m 0
 306 591 331 611 355 611 c 0
 375 611 396 595 396 571 c 0
 396 543 370 522 347 522 c 0xf4
 323 522 306 543 306 563 c 0
EndSplineSet
EndChar

StartChar: k
Encoding: 107 107 153
Width: 550
Flags: HW
TeX: 610 0
ItalicCorrection: 107
HStem: -5 61<409.795 475.854> 374 62<429.373 492.737> 549 62<129.5 230>
VStem: 337 70<59.489 165.605> 468 94<283.918 352.333> 489 89<80.1161 152.779>
DStem2: 91.4965 -5 163.737 -5 0.242599 0.970127<34.5922 220.44 293.837 571.051>
AnchorPoint: "affricate-below" 494 -222 basechar 0
AnchorPoint: "affricate-above" 703 611 basechar 0
AnchorPoint: "below" 263 0 basechar 0
AnchorPoint: "above" 416 611 basechar 0
LayerCount: 2
Fore
SplineSet
101 28 m 0
 101 34 103 39 104 45 c 2
 218 500 l 1
 230 549 l 1
 161 549 l 2
 135 549 128 567 128 578 c 0
 128 594 135 611 166 611 c 2
 273 611 l 2
 297 611 309 600 309 582 c 0
 309 578 308 575 307 570 c 2
 231 263 l 1
 312 305 383 436 491 436 c 0
 539 436 562 397 562 353 c 0
 562 284 530 272 509 272 c 0
 484 272 468 292 468 313 c 0xf8
 468 328 476 344 494 355 c 1
 492 374 l 1
 420 370 390 311 303 239 c 1
 356 228 413 197 413 133 c 0
 413 110 407 101 407 90 c 0
 407 71 425 56 442 56 c 0
 456 56 473 66 489 96 c 0
 514 143 502 172 545 172 c 0
 572 172 578 154 578 143 c 0
 578 121 536 -5 442 -5 c 0
 388 -5 337 30 337 91 c 0
 337 109 342 118 342 131 c 0
 342 176 260 186 212 188 c 1
 172 27 174 -5 135 -5 c 0xf4
 115 -5 101 12 101 28 c 0
EndSplineSet
EndChar

StartChar: l
Encoding: 108 108 154
Width: 317
Flags: HW
TeX: 610 0
ItalicCorrection: 99
HStem: -5 62<189.307 249.799> 549 62<128.862 230>
VStem: 118 70<59.6669 177.047> 273 71<82.8185 170.088>
DStem2: 91.24 -5 163.242 -5 0.242599 0.970127<114.061 571.113>
AnchorPoint: "affricate-below" 261 -222 basechar 0
AnchorPoint: "affricate-above" 470 611 basechar 0
AnchorPoint: "below" 128 0 basechar 0
AnchorPoint: "above" 281 611 basechar 0
LayerCount: 2
Fore
SplineSet
118 89 m 0
 118 108 124 127 127 138 c 2
 230 549 l 1
 160 549 l 2
 135 549 127 567 127 578 c 0
 127 589 132 611 165 611 c 2
 274 611 l 2
 300 611 308 598 308 582 c 0
 308 577 307 572 306 566 c 2
 193 114 l 2
 191 106 188 96 188 88 c 0
 188 63 211 57 221 57 c 0
 249 57 262 103 273 142 c 0
 276 152 281 172 307 172 c 2
 308 172 l 2
 339 172 344 154 344 143 c 0
 344 135 317 -5 220 -5 c 0
 169 -5 118 29 118 89 c 0
EndSplineSet
EndChar

StartChar: m
Encoding: 109 109 155
Width: 958
Flags: HW
TeX: 430 0
ItalicCorrection: 99
HStem: -5 62<812.595 877.348> 374 62<173.583 233.458 391.128 512.123 683.458 802.571>
VStem: 79 63<260.537 332.156> 160 65<-3.07396 88.25> 451 67<-2.41993 95.0184> 742 70<57.5167 146.673> 810 70<228.64 365.797> 915 71<97.4303 170.243>
AnchorPoint: "affricate-below" 902 -222 basechar 0
AnchorPoint: "affricate-above" 1111 611 basechar 0
AnchorPoint: "below" 477 0 basechar 0
AnchorPoint: "above" 587 436 basechar 0
LayerCount: 2
Fore
SplineSet
79 287 m 0
 79 297 108 436 203 436 c 0
 251 436 294 407 303 360 c 1
 336 393 382 436 465 436 c 0
 519 436 574 413 586 350 c 1
 626 395 678 436 755 436 c 0
 826 436 880 399 880 323 c 0xfb
 880 247 812 104 812 80 c 0
 812 67 821 57 835 57 c 0
 867 57 899 93 915 143 c 0
 923 170 935 172 951 172 c 0
 983 172 986 150 986 144 c 0
 986 110 931 -5 834 -5 c 0
 783 -5 742 29 742 81 c 0xfd
 742 121 810 259 810 323 c 0
 810 358 792 374 753 374 c 0
 587 374 531 52 518 19 c 0
 515 13 504 -5 484 -5 c 0
 463 -5 451 12 451 28 c 0xfb
 451 46 519 289 519 323 c 0
 519 354 504 374 462 374 c 0
 292 374 241 47 225 15 c 0
 216 -2 199 -5 193 -5 c 0
 176 -5 161 7 160 27 c 0
 160 35 162 43 164 50 c 2
 232 322 l 2
 234 328 235 336 235 342 c 0
 235 365 216 374 202 374 c 0
 163 374 153 286 142 271 c 0
 136 263 128 259 116 259 c 2
 114 259 l 2
 82 259 79 278 79 287 c 0
EndSplineSet
EndChar

StartChar: n
Encoding: 110 110 156
Width: 667
Flags: HW
TeX: 430 0
ItalicCorrection: 99
HStem: -5 62<521.595 585.907> 374 62<173.483 233.458 391.665 511.342>
VStem: 79 63<260.537 332.156> 160 66<-3.0979 90.8125> 451 70<57.5139 146.756> 519 70<228.386 365.585> 628 67<106.375 170.076>
AnchorPoint: "affricate-below" 611 -222 basechar 0
AnchorPoint: "affricate-above" 820 611 basechar 0
AnchorPoint: "below" 331 0 basechar 0
AnchorPoint: "above" 440 436 basechar 0
LayerCount: 2
Fore
SplineSet
79 287 m 0
 79 297 108 436 203 436 c 0
 251 436 294 407 303 360 c 1
 342 398 388 436 464 436 c 0
 535 436 589 399 589 323 c 0xf6
 589 250 521 101 521 80 c 0
 521 65 530 57 544 57 c 0
 600 57 628 155 628 155 c 1
 634 167 647 172 660 172 c 0
 677 172 694 163 695 144 c 1
 695 110 640 -5 543 -5 c 0
 492 -5 451 29 451 81 c 0xfa
 451 125 519 254 519 323 c 0
 519 354 504 374 462 374 c 0
 292 374 241 46 226 16 c 0
 223 10 213 -5 193 -5 c 0
 173 -5 161 10 160 25 c 0
 159 33 161 40 163 48 c 2
 232 322 l 2
 234 328 235 335 235 342 c 0
 235 365 216 374 202 374 c 0
 163 374 152 284 142 271 c 0
 136 263 128 259 116 259 c 2
 114 259 l 2
 82 259 79 278 79 287 c 0
EndSplineSet
EndChar

StartChar: o
Encoding: 111 111 157
Width: 608
Flags: HW
TeX: 430 0
ItalicCorrection: 51
HStem: -5 61<247.594 382.78> 374 62<330.204 466.406>
VStem: 141 70<93.8849 249.874> 503 70<180.014 336.482>
AnchorPoint: "ogonek" 310 0 basechar 0
AnchorPoint: "affricate-below" 552 -222 basechar 0
AnchorPoint: "affricate-above" 761 611 basechar 0
AnchorPoint: "below" 310 0 basechar 0
AnchorPoint: "above" 404 436 basechar 0
LayerCount: 2
Fore
SplineSet
141 166 m 0
 141 305 272 436 405 436 c 0
 506 436 573 361 573 265 c 0
 573 123 440 -5 309 -5 c 0
 208 -5 141 68 141 166 c 0
211 165 m 0
 211 100 251 56 311 56 c 0
 402 56 503 159 503 266 c 0
 503 331 463 374 403 374 c 0
 309 374 211 270 211 165 c 0
EndSplineSet
EndChar

StartChar: p
Encoding: 112 112 158
Width: 608
Flags: HW
TeX: 430 222
ItalicCorrection: 51
HStem: -222 62<21.4519 111 182 283.288> -5 61<292.25 399.951> 374 62<173.924 232.739 370.486 478.627>
VStem: 79 63<260.058 333.183> 234 34<153 350> 504 70<182.598 349.132>
DStem2: 95.4957 -222 166.496 -222 0.242599 0.970127<81.1337 291.655>
AnchorPoint: "affricate-below" 552 -222 basechar 0
AnchorPoint: "affricate-above" 761 611 basechar 0
AnchorPoint: "below" 276 -222 basechar 0
AnchorPoint: "above" 441 436 basechar 0
LayerCount: 2
Fore
SplineSet
20 -193 m 0
 20 -162 45 -160 59 -160 c 2
 111 -160 l 1
 123 -110 l 1
 231 320 l 2
 233 329 236 339 234 350 c 0
 231 364 217 374 203 374 c 0
 161 374 154 287 142 271 c 0
 136 263 127 259 115 259 c 2
 113 259 l 2
 103 259 79 260 79 286 c 0
 79 307 112 436 203 436 c 0
 246 436 284 413 298 377 c 1
 361 433 414 436 434 436 c 0
 518 436 574 367 574 274 c 0
 574 133 456 -5 338 -5 c 0
 291 -5 259 15 234 44 c 1
 182 -160 l 1
 251 -160 l 2
 281 -160 285 -180 285 -189 c 0
 285 -199 281 -222 248 -222 c 2
 56 -222 l 2
 25 -222 20 -203 20 -193 c 0
268 153 m 0
 268 119 282 56 340 56 c 0
 417 56 504 169 504 275 c 0
 504 336 475 374 432 374 c 0
 363 374 268 274 268 153 c 0
EndSplineSet
EndChar

StartChar: q
Encoding: 113 113 159
Width: 550
Flags: HW
TeX: 430 222
ItalicCorrection: 84
HStem: -222 62<227.969 344 416 516.346> -5 61<235.442 343.943> 374 62<313.676 421.802>
VStem: 140 70<81.6885 252.909> 447 109<221.5 415.5> 485 71<383.375 424.388>
DStem2: 328.496 -222 400.496 -222 0.242599 0.970127<81.3763 264.971>
AnchorPoint: "affricate-below" 494 -222 basechar 0
AnchorPoint: "affricate-above" 703 611 basechar 0
AnchorPoint: "below" 218 -222 basechar 0
AnchorPoint: "above" 383 436 basechar 0
LayerCount: 2
Fore
SplineSet
140 157 m 0
 140 295 256 436 376 436 c 0
 428 436 464 409 485 380 c 1xf4
 500 414 505 435 529 435 c 0
 541 435 556 424 556 407 c 0
 556 402 555 397 554 392 c 2
 416 -160 l 1
 484 -160 l 2
 514 -160 518 -180 518 -189 c 0
 518 -201 513 -222 482 -222 c 2
 262 -222 l 2
 236 -222 226 -208 226 -193 c 0
 226 -185 230 -160 262 -160 c 2
 344 -160 l 1
 393 35 l 1
 359 12 325 -5 280 -5 c 0
 196 -5 140 65 140 157 c 0
210 153 m 0xf8
 210 109 230 56 282 56 c 0
 359 56 447 168 447 275 c 0
 447 336 417 374 374 374 c 0
 305 374 210 274 210 153 c 0xf8
EndSplineSet
EndChar

StartChar: r
Encoding: 114 114 160
Width: 506
Flags: HW
TeX: 430 0
ItalicCorrection: 107
HStem: -5 21G<183 199> 373 63<173.569 233.619 369.435 483.027>
VStem: 79 70<260.542 347.471> 466 92<283 349.621>
AnchorPoint: "affricate-below" 450 -222 basechar 0
AnchorPoint: "affricate-above" 659 611 basechar 0
AnchorPoint: "below" 194 0 basechar 0
AnchorPoint: "above" 322 436 basechar 0
LayerCount: 2
Fore
SplineSet
79 287 m 0
 79 296 107 436 203 436 c 0
 229 436 275 427 299 375 c 1
 329 408 375 436 434 436 c 0
 504 436 558 396 558 335 c 0
 558 288 527 272 507 272 c 0
 484 272 466 288 466 312 c 0
 466 329 474 342 484 350 c 1
 475 362 463 374 432 374 c 0
 284 374 243 42 224 12 c 0
 217 2 205 -5 193 -5 c 0
 173 -5 160 12 160 28 c 0
 160 36 162 44 164 52 c 2
 230 315 l 2
 232 324 235 332 235 341 c 0
 235 363 219 373 204 373 c 0
 171 373 157 316 149 288 c 0
 146 278 142 259 116 259 c 2
 114 259 l 2
 84 259 79 276 79 287 c 0
EndSplineSet
EndChar

StartChar: s
Encoding: 115 115 161
Width: 492
Flags: HW
TeX: 430 0
ItalicCorrection: 78
HStem: -5 61<173.252 346.75> 374 62<268.811 398.607>
VStem: 95 92<77.5149 141.647> 177 63<274.534 346.877> 390 86<301.943 360.485> 392 62<96.3387 178.695>
AnchorPoint: "affricate-below" 436 -222 basechar 0
AnchorPoint: "affricate-above" 645 611 basechar 0
AnchorPoint: "below" 253 0 basechar 0
AnchorPoint: "above" 345 436 basechar 0
LayerCount: 2
Fore
SplineSet
95 91 m 0
 95 137 126 152 146 152 c 0
 167 152 187 136 187 112 c 0
 187 98 181 88 172 77 c 1
 185 68 204 56 253 56 c 0xe4
 367 56 392 119 392 144 c 0xe4
 392 197 298 195 252 210 c 0
 200 227 177 265 177 302 c 0
 177 350 218 436 345 436 c 0
 446 436 476 387 476 349 c 0
 476 307 448 294 429 294 c 0
 409 294 390 309 390 331 c 0
 390 340 393 350 400 361 c 1
 381 372 365 374 345 374 c 0
 259 374 240 324 240 303 c 0xd8
 240 262 314 265 364 250 c 0
 426 231 454 187 454 146 c 0
 454 85 401 -5 252 -5 c 0
 125 -5 95 52 95 91 c 0
EndSplineSet
EndChar

StartChar: t
Encoding: 116 116 162
Width: 404
Flags: HW
TeX: 610 0
ItalicCorrection: 99
HStem: -5 61<220.772 306.512> 369 61<99.4997 214 302 416.517> 596 20G<286 313>
VStem: 148 70<58.4069 181.685> 361 71<110.917 170.172>
DStem2: 120.991 -5 192.474 -5 0.242599 0.970127<168.433 385.391 465.918 622.352>
AnchorPoint: "affricate-below" 348 -222 basechar 0
AnchorPoint: "affricate-above" 557 611 basechar 0
AnchorPoint: "below" 225 0 basechar 0
AnchorPoint: "above" 312 616 basechar 0
LayerCount: 2
Fore
SplineSet
98 397 m 0
 98 407 101 430 134 430 c 2
 230 430 l 1
 269 587 267 616 305 616 c 0
 321 616 338 603 338 583 c 0
 338 568 316 492 302 430 c 1
 384 430 l 2
 415 430 418 411 418 402 c 0
 418 391 414 369 382 369 c 2
 286 369 l 1
 276 322 218 104 218 89 c 0
 218 70 232 56 253 56 c 0
 296 56 340 99 361 145 c 0
 369 162 375 172 395 172 c 2
 397 172 l 2
 427 172 432 155 432 144 c 0
 432 114 362 -5 252 -5 c 0
 196 -5 148 32 148 88 c 0
 148 100 150 112 153 123 c 2
 214 369 l 1
 132 369 l 2
 101 369 98 390 98 397 c 0
EndSplineSet
EndChar

StartChar: u
Encoding: 117 117 163
Width: 637
Flags: HW
TeX: 430 0
ItalicCorrection: 99
HStem: -5 61<272.243 382.065 514.496 570.301> 374 62<187.446 251.321>
VStem: 189 70<68.9928 219.816> 252 70<284.448 373.21> 595 70<81.6361 170.532>
AnchorPoint: "ogonek" 448 0 basechar 0
AnchorPoint: "affricate-below" 581 -222 basechar 0
AnchorPoint: "affricate-above" 790 611 basechar 0
AnchorPoint: "below" 318 0 basechar 0
AnchorPoint: "above" 427 436 basechar 0
LayerCount: 2
Fore
SplineSet
79 287 m 0
 79 317 132 436 231 436 c 0
 286 436 322 396 322 349 c 0xd8
 322 303 259 198 259 122 c 0xe8
 259 75 286 56 324 56 c 0
 400 56 446 153 469 227 c 0
 512 367 503 430 549 430 c 0
 568 430 583 417 583 397 c 0
 583 389 580 380 578 372 c 2
 513 110 l 2
 511 102 509 97 509 90 c 0
 509 83 511 75 517 65 c 1
 526 59 535 57 542 57 c 0
 564 57 579 83 595 143 c 0
 602 168 612 172 631 172 c 2
 632 172 l 2
 659 172 665 154 665 143 c 0
 665 132 636 -5 541 -5 c 0
 520 -5 471 1 447 50 c 1
 421 25 381 -5 323 -5 c 0
 268 -5 189 20 189 123 c 0xe8
 189 208 252 322 252 350 c 0
 252 365 243 374 229 374 c 0
 218 374 205 368 192 357 c 0
 135 306 164 259 114 259 c 0
 83 259 79 278 79 287 c 0
EndSplineSet
EndChar

StartChar: v
Encoding: 118 118 164
Width: 550
Flags: HW
TeX: 430 0
ItalicCorrection: 107
HStem: -5 61<277.951 386.008> 374 62<187.051 251.63>
VStem: 190 70<74.5836 218.753> 252 71<284.364 373.033> 488 71<237.077 412.76>
AnchorPoint: "affricate-below" 494 -222 basechar 0
AnchorPoint: "affricate-above" 703 611 basechar 0
AnchorPoint: "below" 337 0 basechar 0
AnchorPoint: "above" 367 436 basechar 0
LayerCount: 2
Fore
SplineSet
79 287 m 0
 79 318 133 436 231 436 c 0
 288 436 323 395 323 349 c 0xd8
 323 301 260 198 260 127 c 0
 260 71 301 56 338 56 c 0xe8
 438 56 488 305 488 352 c 0
 488 380 480 385 480 399 c 0
 480 418 496 435 516 435 c 0
 553 435 559 381 559 356 c 0
 559 292 503 -5 336 -5 c 0
 276 -5 190 21 190 127 c 0xe8
 190 209 252 322 252 350 c 0
 252 365 243 374 229 374 c 0
 215 374 198 366 181 347 c 0
 139 298 157 259 116 259 c 2
 114 259 l 2
 83 259 79 276 79 287 c 0
EndSplineSet
EndChar

StartChar: w
Encoding: 119 119 165
Width: 783
Flags: HW
TeX: 430 0
ItalicCorrection: 107
HStem: -5 61<279.863 394.164 524.408 633.432> 374 62<187.702 251.888>
VStem: 79 71<260.641 332.249> 191 69<76.6408 222.573> 252 70<283.527 373.016> 496 72<311.049 425.288> 722 70<237.364 413.278>
AnchorPoint: "affricate-below" 727 -222 basechar 0
AnchorPoint: "affricate-above" 936 611 basechar 0
AnchorPoint: "below" 465 0 basechar 0
AnchorPoint: "above" 542 436 basechar 0
LayerCount: 2
Fore
SplineSet
79 287 m 0
 79 318 133 436 231 436 c 0
 282 436 322 401 322 349 c 0xee
 322 305 260 199 260 130 c 0
 260 67 312 56 345 56 c 0
 424 56 442 172 496 387 c 0
 497 392 502 430 535 430 c 0
 555 430 568 412 568 398 c 0xf6
 568 371 507 181 507 127 c 0
 507 71 548 56 585 56 c 0
 615 56 637 72 659 115 c 0
 684 164 722 305 722 353 c 0
 722 381 713 384 713 400 c 0
 713 417 728 435 749 435 c 0
 783 435 792 389 792 356 c 0
 792 310 765 192 736 124 c 0
 696 29 645 -5 584 -5 c 0
 509 -5 473 29 457 54 c 1
 456 54 l 1
 415 -1 369 -5 344 -5 c 0
 280 -5 191 21 191 130 c 0xf6
 191 212 252 318 252 352 c 0
 252 364 243 374 229 374 c 0
 197 374 165 336 150 288 c 0
 142 262 132 259 113 259 c 2
 111 259 l 2
 86 259 79 276 79 287 c 0
EndSplineSet
EndChar

StartChar: x
Encoding: 120 120 166
Width: 551
Flags: HW
TeX: 430 0
ItalicCorrection: 122
HStem: -5 62<154.501 243.435 352.734 459.69> 374 62<200.051 303.67 413.905 503.499>
VStem: 82 92<79.5164 147.647> 484 92<282.353 351.483> 507 72<103.382 169.981>
AnchorPoint: "affricate-below" 495 -222 basechar 0
AnchorPoint: "affricate-above" 704 611 basechar 0
AnchorPoint: "below" 275 0 basechar 0
AnchorPoint: "above" 384 436 basechar 0
LayerCount: 2
Fore
SplineSet
79 287 m 0
 79 328 148 436 260 436 c 0
 297 436 335 422 359 392 c 1
 360 392 l 1
 391 422 436 436 469 436 c 0
 528 436 576 396 576 337 c 0
 576 287 545 272 525 272 c 0
 502 272 484 288 484 312 c 0xf0
 484 328 492 341 504 352 c 1
 498 362 489 374 467 374 c 0
 439 374 405 354 392 322 c 0
 389 315 342 134 342 114 c 0
 342 80 365 56 399 56 c 0
 442 56 490 94 507 139 c 0
 510 147 513 172 541 172 c 0xe8
 542 172 543 172 544 172 c 0
 574 172 579 154 579 143 c 0xe8
 579 101 509 -5 398 -5 c 0
 339 -5 309 27 299 38 c 1
 298 38 l 1
 275 16 235 -5 189 -5 c 0
 130 -5 82 34 82 93 c 0
 82 144 113 158 133 158 c 0
 155 158 174 142 174 118 c 0
 174 102 166 90 154 79 c 1
 160 69 169 57 191 57 c 0
 212 57 257 70 271 127 c 0
 308 279 315 299 315 317 c 0
 315 351 292 374 258 374 c 0
 215 374 168 337 151 292 c 0
 145 275 143 259 113 259 c 0
 83 259 79 277 79 287 c 0
EndSplineSet
EndChar

StartChar: y
Encoding: 121 121 167
Width: 579
Flags: HW
TeX: 430 222
ItalicCorrection: 84
HStem: -227 61<200.444 309.755> -87 20G<170 189> -5 61<272.713 382.489> 374 62<187.997 251.885>
VStem: 127 92<-144.484 -77.3526> 189 70<69.0132 220.483> 252 71<284.934 373.486>
AnchorPoint: "affricate-below" 523 -222 basechar 0
AnchorPoint: "affricate-above" 732 611 basechar 0
AnchorPoint: "below" 190 -222 basechar 0
AnchorPoint: "above" 427 436 basechar 0
LayerCount: 2
Fore
SplineSet
79 287 m 0
 79 319 132 436 231 436 c 0
 282 436 323 402 323 350 c 0xf2
 323 302 259 201 259 122 c 0xf4
 259 70 291 56 324 56 c 0
 397 56 445 149 469 225 c 0
 512 362 502 430 550 430 c 0
 566 430 583 417 583 397 c 0
 583 389 581 381 579 374 c 2
 488 13 l 2
 483 -6 481 -19 472 -42 c 0
 430 -151 333 -227 240 -227 c 0
 176 -227 127 -189 127 -130 c 0xf8
 127 -78 162 -67 178 -67 c 0
 200 -67 219 -83 219 -107 c 0
 219 -122 212 -134 200 -145 c 1
 208 -157 220 -166 242 -166 c 0
 278 -166 380 -138 420 28 c 1
 391 8 362 -5 323 -5 c 0xfa
 269 -5 189 20 189 123 c 0xf4
 189 208 252 323 252 350 c 0
 252 366 242 374 229 374 c 0
 217 374 201 367 188 354 c 0
 135 302 162 259 114 259 c 0
 84 259 79 276 79 287 c 0
EndSplineSet
EndChar

StartChar: z
Encoding: 122 122 168
Width: 492
Flags: HW
TeX: 430 0
ItalicCorrection: 142
HStem: -5 70<277.345 398.807> 366 70<238.535 346.688>
VStem: 142 71<280.66 340.442> 452 72<118.609 187.99>
AnchorPoint: "affricate-below" 436 -222 basechar 0
AnchorPoint: "affricate-above" 645 611 basechar 0
AnchorPoint: "below" 274 0 basechar 0
AnchorPoint: "above" 383 436 basechar 0
LayerCount: 2
Fore
SplineSet
70 23 m 0
 70 33 78 44 81 48 c 0
 155 160 264 222 380 331 c 1
 336 345 317 366 286 366 c 0
 257 366 225 341 213 308 c 0
 206 289 201 279 177 279 c 0
 160 279 142 283 142 307 c 0
 142 351 204 436 288 436 c 0
 349 436 384 387 417 387 c 0
 448 387 444 436 487 436 c 2
 488 436 l 2
 518 436 521 415 521 407 c 0
 521 397 514 386 511 382 c 0
 445 282 370 240 218 105 c 1
 270 100 303 65 342 65 c 0
 390 65 436 111 452 159 c 0
 457 175 462 190 487 190 c 2
 492 190 l 2
 517 190 524 172 524 162 c 0
 524 121 452 -5 339 -5 c 0
 276 -5 245 44 203 44 c 0
 197 44 165 43 140 14 c 0
 128 0 126 -5 104 -5 c 2
 103 -5 l 2
 84 -5 70 6 70 23 c 0
EndSplineSet
EndChar

StartChar: braceleft
Encoding: 123 123 169
Width: 608
Flags: HW
TeX: 694 83
ItalicCorrection: 145
HStem: -83 60<356.496 494.562> 274 61<175.584 313.129> 616 78<500.809 660.71>
VStem: 324 71<139.004 258.242>
LayerCount: 2
Fore
SplineSet
174 303 m 0
 174 318 184 332 198 335 c 0
 213 338 330 332 363 390 c 0
 369 401 369 405 411 573 c 0
 419 606 442 694 640 694 c 0
 671 694 675 674 675 665 c 0
 675 612 610 646 531 616 c 0
 490 600 485 579 479 557 c 0
 430 360 434 374 424 358 c 0
 409 333 384 313 357 302 c 1
 366 295 395 274 395 232 c 0
 395 213 388 192 349 34 c 0
 347 26 344 16 348 8 c 0
 366 -26 462 -19 476 -23 c 0
 488 -27 496 -38 496 -51 c 0
 496 -60 493 -83 459 -83 c 0
 382 -82 275 -70 275 17 c 0
 275 50 324 205 324 235 c 0
 324 251 298 272 212 274 c 0
 203 274 174 274 174 303 c 0
EndSplineSet
EndChar

StartChar: bar
Encoding: 124 124 170
Width: 375
Flags: HW
TeX: 694 83
ItalicCorrection: 91
HStem: -83 21G<166 190.5>
VStem: 140 72<-79.3195 -15.8772> 315 71<628.959 690.496>
LayerCount: 2
Fore
SplineSet
140 -49 m 0
 140 -42 142 -35 144 -28 c 2
 315 657 l 2
 318 670 326 694 352 694 c 0
 371 694 386 677 386 659 c 0
 386 653 384 649 383 643 c 2
 212 -44 l 2
 211 -49 206 -83 175 -83 c 0
 157 -83 140 -70 140 -49 c 0
EndSplineSet
EndChar

StartChar: braceright
Encoding: 125 125 171
Width: 608
Flags: HW
TeX: 694 83
ItalicCorrection: 48
HStem: -83 59<85.9688 234.707> 276 60<450.045 583.701> 634 60<264.594 403.374>
VStem: 366 71<351.609 472.603> 414 71<500.596 617.438>
LayerCount: 2
Fore
SplineSet
85 -54 m 0
 85 -37 96 -27 104 -24 c 0
 117 -19 251 -29 276 35 c 0
 279 43 277 35 321 212 c 0
 328 240 341 281 404 309 c 1
 392 318 366 337 366 379 c 0xf0
 366 409 414 575 414 592 c 0
 414 638 300 629 284 634 c 0
 272 638 263 649 263 662 c 0
 263 670 266 694 300 694 c 0xe8
 377 694 485 681 485 594 c 0xe8
 485 561 437 408 437 376 c 2
 437 372 l 1
 450 337 539 336 557 336 c 1
 572 335 585 324 585 307 c 0
 585 291 575 279 562 276 c 0
 547 273 430 278 397 221 c 0
 391 210 390 205 348 36 c 0
 341 4 317 -81 126 -83 c 1
 120 -83 l 2
 88 -83 85 -64 85 -54 c 0
EndSplineSet
EndChar

StartChar: asciitilde
Encoding: 126 126 172
Width: 725
Flags: HW
TeX: 610 0
ItalicCorrection: 94
HStem: 491 66<518.634 650.96> 545 66<347.594 479.62>
LayerCount: 2
Fore
SplineSet
260 523 m 0
 260 539 272 546 281 553 c 0
 313 577 363 611 419 611 c 0x40
 493 611 528 557 584 557 c 0
 643 557 684 610 711 610 c 2
 714 610 l 1
 729 607 739 593 739 579 c 0
 739 568 733 560 720 550 c 0
 652 498 607 491 579 491 c 0x80
 507 491 468 545 415 545 c 0x40
 357 545 313 491 290 491 c 0x80
 271 491 260 509 260 523 c 0
EndSplineSet
EndChar

StartChar: Abreve
Encoding: 258 258 174
Width: 841
Flags: HW
TeX: 819 0
HStem: 0 62<91.383 194.812 258 329.566 526.452 614 688 764.64> 171 61<362 595> 603 20<549.5 612> 652 64<504.864 667.118>
VStem: 425 62<734.145 817.089> 718 63<760.412 817.476>
DStem2: 190 72 258 62 0.519947 0.854199<26.8144 167.66 226.103 606.448> 632 581 560 558 0.107277 -0.994229<15.1433 343.017 404.416 514.074>
AnchorPoint: "below" 420 0 basechar 0
AnchorPoint: "above" 623 798 basechar 0
LayerCount: 2
Fore
SplineSet
425 768 m 0
 425 805 438 819 458 819 c 0
 481 819 489 802 489 791 c 0
 489 784 487 777 487 770 c 0
 487 738 526 716 579 716 c 0
 634 716 699 741 718 792 c 0
 719 796 725 819 750 819 c 0
 767 819 781 807 781 790 c 0
 781 743 704 652 578 652 c 0
 489 652 425 698 425 768 c 0
EndSplineSet
Refer: 111 65 S 1 0 0 1 0 0 3
AlternateSubs2: "Stilistic set 01 subtable" Abreve.vn
AlternateSubs2: "Latin alternatives subtable" Abreve.vn
Substitution2: "Latin Vietnamese substitutions subtable" Abreve.vn
EndChar

StartChar: Aogonek
Encoding: 260 260 175
Width: 841
Flags: HW
TeX: 610 222
HStem: -233 62<597.532 684.841> -136 20G<714.5 735> -0 62<91.383 194.812 258 329.566 526.383 596 688 764.38> 171 61<362 595> 603 20G<549.5 612>
VStem: 526 64<-162.828 -71.0313>
DStem2: 190 72 258 62 0.519947 0.854199<26.8144 167.66 226.103 606.448> 632 581 560 558 0.107277 -0.994229<15.1433 343.017 404.416 514.074>
AnchorPoint: "above" 579 622 basechar 0
LayerCount: 2
Fore
SplineSet
90 29 m 0
 90 60 115 62 129 62 c 2
 172 62 l 2
 181 62 184 63 190 72 c 2
 498 578 l 2
 522 618 535 623 564 623 c 2
 594 623 l 2
 630 623 630 594 632 581 c 2
 688 62 l 1
 730 62 l 2
 742 62 766 60 766 33 c 0
 766 23 763 0 730 0 c 2
 722 0 l 2
 685 0 590 -65 590 -123 c 0
 590 -150 611 -171 638 -171 c 0
 687 -171 701 -116 728 -116 c 0
 742 -116 759 -129 759 -146 c 0
 759 -168 706 -233 636 -233 c 0
 580 -233 526 -191 526 -125 c 0
 526 -75 555 -35 596 0 c 1
 564 0 l 2
 550 0 525 1 525 29 c 0
 525 60 550 62 563 62 c 0
 580 62 597 62 614 62 c 1
 602 171 l 1
 333 171 l 2
 322 171 322 168 258 62 c 1
 292 62 l 2
 305 62 331 61 331 33 c 0
 331 3 306 0 296 -0 c 2
 125 -0 l 2
 94 0 90 20 90 29 c 0
362 232 m 1
 595 232 l 1
 560 558 l 1
 362 232 l 1
EndSplineSet
Ligature2: "Latin ligatures subtable" A uni0328
EndChar

StartChar: Cacute
Encoding: 262 262 176
Width: 841
Flags: HW
TeX: 778 0
ItalicCorrection: 123
HStem: -11 61<354.386 592.95> 560 62<484.564 708.927>
VStem: 168 70<158.019 335.776> 712 72<134.028 199.981> 778 71<401.767 503.61>
AnchorPoint: "below" 459 0 basechar 0
AnchorPoint: "above" 639 787 basechar 0
LayerCount: 2
Fore
SplineSet
528 725 m 0
 528 754 543 753 703 803 c 0
 710 805 717 807 724 807 c 0
 744 807 757 792 757 774 c 0
 757 749 735 740 722 736 c 0
 575 690 565 686 558 686 c 0xe0
 548 686 528 692 528 725 c 0
EndSplineSet
Refer: 113 67 S 1 0 0 1 0 0 3
EndChar

StartChar: Ccaron
Encoding: 268 268 177
Width: 841
Flags: HW
TeX: 819 0
ItalicCorrection: 123
HStem: -11 61<354.386 592.95> 560 62<484.564 708.927>
VStem: 168 70<158.019 335.776> 712 72<134.028 199.981> 778 71<401.767 503.61>
AnchorPoint: "below" 459 0 basechar 0
AnchorPoint: "above" 639 784 basechar 0
LayerCount: 2
Fore
SplineSet
505 775 m 0
 505 790 519 804 535 804 c 0
 551 804 559 792 589 758 c 1
 628 711 l 1
 755 802 751 804 766 804 c 0xe0
 781 804 795 791 795 775 c 0
 795 760 783 751 776 746 c 0
 633 636 636 636 622 636 c 0
 608 636 599 646 594 653 c 0
 507 762 505 762 505 775 c 0
EndSplineSet
Refer: 113 67 S 1 0 0 1 0 0 3
EndChar

StartChar: Dcaron
Encoding: 270 270 178
Width: 871
Flags: HW
TeX: 819 0
ItalicCorrection: 77
HStem: -0 62<95.8453 196 267 559.595> 549 62<233.672 317 389 672.911>
VStem: 781 73<261.89 445.406>
DStem2: 180.496 -0 251.496 -0 0.242599 0.970127<81.1337 565.715>
AnchorPoint: "below" 400 0 basechar 0
AnchorPoint: "above" 598 795 basechar 0
LayerCount: 2
Fore
SplineSet
445 775 m 0
 445 790 459 804 475 804 c 0
 491 804 498 792 528 758 c 2
 568 711 l 1
 640 760 686 804 706 804 c 0
 721 804 735 791 735 775 c 0
 735 760 723 751 716 746 c 0
 573 636 576 636 562 636 c 0
 548 636 539 646 534 653 c 0
 447 762 445 762 445 775 c 0
EndSplineSet
Refer: 114 68 S 1 0 0 1 0 -0 3
EndChar

StartChar: Ecaron
Encoding: 282 282 179
Width: 783
Flags: HW
TeX: 819 0
ItalicCorrection: 123
HStem: -0 62<96.6418 196 268 661.812> 286 62<339 520> 549 62<233.562 318 389 749>
VStem: 735 93<483 582>
DStem2: 180.496 -0 252.496 -0 0.242599 0.970127<81.3763 312.27 376.057 565.958>
AnchorPoint: "below" 399 0 basechar 0
AnchorPoint: "above" 598 795 basechar 0
LayerCount: 2
Fore
SplineSet
431 775 m 0
 431 790 445 804 461 804 c 0
 477 804 485 792 515 758 c 1
 554 711 l 1
 627 761 672 804 692 804 c 0
 707 804 721 791 721 775 c 0
 721 760 709 751 702 746 c 0
 559 636 562 636 548 636 c 0
 534 636 525 646 520 653 c 0
 433 762 431 762 431 775 c 0
EndSplineSet
Refer: 115 69 S 1 0 0 1 0 -0 3
EndChar

StartChar: Eogonek
Encoding: 280 280 180
Width: 783
Flags: HW
TeX: 610 222
ItalicCorrection: 123
HStem: -233 62<506.799 594.078> -137 20G<622.5 644.5> 0 62<96.4735 196 268 505 577.162 661.029> 286 62<339 520> 549 62<233.624 318 389 749>
VStem: 435 64<-163.031 -70.8394> 735 93<483 582>
DStem2: 122.229 -233 194.229 -233 0.242599 0.970127<321.551 552.445 616.232 806.133>
AnchorPoint: "above" 534 622 basechar 0
LayerCount: 2
Fore
SplineSet
95 29 m 0
 95 39 98 61 130 62 c 1
 196 62 l 1
 318 549 l 1
 269 549 l 2
 256 549 232 551 232 578 c 0
 232 589 236 611 269 611 c 2
 794 611 l 2
 825 611 828 590 828 582 c 0
 828 572 824 562 804 482 c 0
 799 463 788 455 770 455 c 2
 769 455 l 2
 749 455 735 460 735 483 c 0
 735 499 742 521 749 549 c 1
 389 549 l 1
 339 348 l 1
 535 348 l 1
 541 354 535 403 577 404 c 0
 607 404 613 387 613 375 c 0
 613 370 611 363 585 259 c 0
 582 248 578 229 551 229 c 2
 549 229 l 2
 525 229 515 241 515 259 c 0
 515 267 516 270 520 286 c 1
 324 286 l 1
 324 285 l 1
 268 62 l 1
 656 62 l 1
 679 162 681 172 709 172 c 0
 710 172 711 172 712 172 c 0
 741 172 747 155 747 144 c 0
 747 133 741 113 720 29 c 0
 713 0 696 0 680 0 c 2
 628 0 l 2
 599 0 499 -63 499 -123 c 0
 499 -152 522 -171 547 -171 c 0
 596 -171 609 -117 636 -117 c 0
 653 -117 668 -130 668 -146 c 0
 668 -170 613 -233 546 -233 c 0
 488 -233 435 -191 435 -126 c 0
 435 -67 476 -25 505 0 c 1
 128 0 l 2
 121 0 95 1 95 29 c 0
EndSplineSet
EndChar

StartChar: Gbreve
Encoding: 286 286 181
Width: 900
Flags: HW
TeX: 819 0
ItalicCorrection: 65
HStem: -11 61<352.632 562.098> -0 21G<697 729.5> 208 61<600.447 717 793 871.724> 491 108<801.538 850.925> 560 62<493.3 783.655> 652 64<546.864 708.973>
VStem: 168 70<156.352 339.547> 467 62<734.145 817.089> 761 62<760.412 817.476>
LayerCount: 2
Fore
SplineSet
168 244 m 0
 168 424 358 622 604 622 c 2xaf80
 623 622 l 2xaf80
 782 622 798 599 811 599 c 0x3780
 824 599 838 622 859 622 c 0x2f80
 876 622 888 610 888 593 c 0
 888 585 872 517 868 509 c 0
 862 497 848 491 835 491 c 0x3780
 802 491 802 517 793 533 c 1
 754 560 704 559 637 560 c 1
 628 560 l 2
 551 560 481 546 405 500 c 0
 311 442 238 347 238 244 c 0
 238 116 345 50 459 50 c 0xaf80
 565 50 672 117 717 208 c 1
 633 208 l 2
 602 208 599 226 599 236 c 0
 599 266 625 269 635 269 c 2
 836 269 l 2
 850 269 873 267 873 240 c 0
 873 209 847 207 835 207 c 0
 834 207 833 208 832 208 c 2
 793 208 l 1
 793 207 l 1
 789 190 785 174 751 38 c 0
 746 20 744 0 715 -0 c 2
 713 -0 l 2x6780
 681 0 678 22 678 27 c 0
 678 34 681 44 687 69 c 1
 629 28 552 -11 452 -11 c 0
 291 -11 168 91 168 244 c 0
467 768 m 0
 467 805 480 819 500 819 c 0
 523 819 531 802 531 791 c 0
 531 784 529 777 529 770 c 0x2780
 529 738 568 716 621 716 c 0
 676 716 742 741 761 792 c 0
 762 796 768 819 793 819 c 0
 810 819 823 807 823 790 c 0
 823 750 755 652 620 652 c 0
 531 652 467 698 467 768 c 0
EndSplineSet
EndChar

StartChar: Lacute
Encoding: 313 313 182
Width: 725
Flags: HW
TeX: 778 0
HStem: 0 62<96.6418 196 268 588.813> 549 62<233.871 318 389 513.314>
DStem2: 180.496 0 252.496 0 0.242599 0.970127<81.3763 565.958>
LayerCount: 2
Fore
SplineSet
289 725 m 0
 289 754 304 753 464 803 c 0
 471 805 478 807 485 807 c 0
 505 807 518 792 518 774 c 0
 518 749 496 740 483 736 c 0
 336 690 326 686 319 686 c 0
 309 686 289 692 289 725 c 0
EndSplineSet
Refer: 122 76 S 1 0 0 1 -0 0 3
EndChar

StartChar: Lcaron
Encoding: 317 317 183
Width: 725
Flags: HW
TeX: 819 0
HStem: 0 62<96.6418 196 268 588.813> 549 62<233.871 318 389 513.314>
VStem: 611 111<589.102 670.161>
DStem2: 180.496 0 252.496 0 0.242599 0.970127<81.3763 565.958>
LayerCount: 2
Fore
SplineSet
575 523 m 0
 575 555 608 542 644 584 c 1
 619 592 611 612 611 627 c 0
 611 656 636 683 668 683 c 0
 701 683 722 656 722 623 c 0
 722 552 640 491 606 491 c 0
 588 491 575 509 575 523 c 0
EndSplineSet
Refer: 122 76 S 1 0 0 1 0 -0 3
EndChar

StartChar: Lslash
Encoding: 321 321 184
Width: 725
Flags: HW
TeX: 610 0
HStem: 0 62<96.6418 196 268 588.813> 549 62<233.559 318 389 513.314>
DStem2: 180.496 0 252.496 0 0.242599 0.970127<81.3763 254.542 321.547 351.174 417.288 565.958> 264 333 242 247 0.842963 0.537972<-122.737 -64.8108 103.068 287.251>
LayerCount: 2
Fore
SplineSet
95 29 m 0
 95 38 98 61 129 62 c 1
 196 62 l 1
 242 247 l 1
 206 225 201 220 190 220 c 0
 172 220 161 236 160 251 c 0
 160 265 160 272 264 333 c 1
 318 549 l 1
 268 549 l 2
 255 549 232 551 232 578 c 0
 232 589 236 611 268 611 c 2
 478 611 l 2
 510 611 515 594 515 582 c 0
 515 572 511 549 479 549 c 2
 389 549 l 1
 349 388 l 1
 495 481 496 484 509 484 c 0
 525 484 539 469 539 452 c 0
 539 435 527 429 514 420 c 0
 316 294 330 307 325 290 c 2
 268 62 l 1
 584 62 l 1
 606 158 608 172 638 172 c 2
 639 172 l 2
 670 172 674 153 674 143 c 0
 674 133 670 121 649 37 c 0
 643 13 639 0 610 0 c 2
 130 0 l 2
 100 0 95 17 95 29 c 0
EndSplineSet
EndChar

StartChar: Nacute
Encoding: 323 323 185
Width: 841
Flags: HW
TeX: 778 0
ItalicCorrection: 136
HStem: 0 62<102.642 202 260 344.324> 549 62<239.654 324 647.562 732 784.764 890.271>
DStem2: 186.496 0 244.496 0 0.242599 0.970127<77.9799 565.958> 436 577 385 560 0.30896 -0.951075<0.411326 553.05> 595.246 0 653.248 0 0.242599 0.970127<52.5705 565.776>
LayerCount: 2
Fore
SplineSet
484 725 m 0
 484 754 499 753 659 803 c 0
 666 805 673 807 680 807 c 0
 700 807 713 792 713 774 c 0
 713 749 691 740 678 736 c 0
 531 690 520 686 513 686 c 0
 503 686 484 692 484 725 c 0
EndSplineSet
Refer: 124 78 S 1 0 0 1 0 0 3
EndChar

StartChar: Ncaron
Encoding: 327 327 186
Width: 841
Flags: HW
TeX: 819 0
ItalicCorrection: 136
HStem: 0 62<102.642 202 260 344.324> 549 62<239.654 324 647.562 732 784.764 890.271>
DStem2: 186.496 0 244.496 0 0.242599 0.970127<77.9799 565.958> 436 577 385 560 0.30896 -0.951075<0.411326 553.05> 595.246 0 653.248 0 0.242599 0.970127<52.5705 565.776>
LayerCount: 2
Fore
SplineSet
469 775 m 0
 469 790 483 804 499 804 c 0
 515 804 522 792 552 758 c 2
 592 711 l 1
 664 760 710 804 730 804 c 0
 745 804 759 791 759 775 c 0
 759 760 747 751 740 746 c 0
 597 636 600 636 586 636 c 0
 572 636 563 646 558 653 c 0
 471 762 469 762 469 775 c 0
EndSplineSet
Refer: 124 78 S 1 0 0 1 0 0 3
EndChar

StartChar: Eng
Encoding: 330 330 187
Width: 900
Flags: HW
TeX: 610 0
ItalicCorrection: 152
HStem: -11 62<562.354 708.867> 0 62<95.6594 196 267 351.662> 549 62<233.519 317> 559 70<503.902 755.923>
VStem: 485 77<59.7246 105.254> 835 70<343.851 497.978>
DStem2: 177.745 -11 248.745 -11 0.242599 0.970127<92.4725 517.692>
LayerCount: 2
Fore
SplineSet
94 29 m 0
 94 39 98 61 129 62 c 1
 196 62 l 1
 317 549 l 1x6c
 267 549 l 2
 236 549 232 568 232 578 c 0
 232 604 250 611 271 611 c 2
 364 611 l 2x6c
 382 611 394 600 396 585 c 0
 397 576 394 567 392 559 c 1
 475 613 567 629 641 629 c 0
 796 629 905 555 905 445 c 0
 905 415 902 413 835 142 c 0
 831 125 826 89 788 51 c 0
 744 8 686 -11 632 -11 c 0
 572 -11 485 9 485 86 c 0
 485 131 516 146 536 146 c 0
 558 146 577 129 577 106 c 0
 577 90 569 80 562 71 c 1
 562 70 l 1
 574 62 590 51 634 51 c 0
 689 51 743 85 759 129 c 0
 762 136 763 144 765 151 c 2
 827 398 l 2
 831 412 835 426 835 443 c 0
 835 517 744 559 637 559 c 0x9c
 521 559 400 511 361 425 c 0
 355 411 351 396 347 381 c 2
 277 98 l 2
 274 86 270 74 267 62 c 1
 317 62 l 2
 330 62 353 60 353 33 c 0
 353 1 329 0 312 0 c 2
 132 0 l 2
 118 0 94 2 94 29 c 0
EndSplineSet
EndChar

StartChar: Ohungarumlaut
Encoding: 336 336 188
Width: 900
Flags: HW
TeX: 778 0
ItalicCorrection: 77
HStem: -11 61<359.631 572.257> 560 62<478.512 697.528> 686 121<647.377 695.405>
VStem: 167 74<163.476 345.051> 814 70<273.897 453.949>
AnchorPoint: "below" 449 0 basechar 0
AnchorPoint: "above" 646 787 basechar 0
LayerCount: 2
Fore
SplineSet
469 724 m 0
 469 750 493 755 500 757 c 0
 648 803 658 807 665 807 c 2
 666 807 l 2
 684 807 698 794 698 772 c 0
 698 770 697 767 697 764 c 1
 825 804 834 807 840 807 c 0
 860 807 873 790 873 774 c 0
 873 748 850 740 837 736 c 0
 691 690 680 686 673 686 c 0
 646 686 645 713 644 730 c 1
 514 689 504 686 498 686 c 0
 486 686 469 693 469 724 c 0
EndSplineSet
Refer: 125 79 S 1 0 0 1 -0 -0 3
EndChar

StartChar: Racute
Encoding: 340 340 189
Width: 841
Flags: HW
TeX: 778 0
ItalicCorrection: 12
HStem: -11 62<657.608 731.446> 0 62<96.6899 196 268 352.441> 275 61<336 585.277> 549 62<233.654 318 389 639.96>
VStem: 585 70<52.7261 186.051> 611 70<121.147 251.188> 710 72<408.187 499.574> 747 73<66.625 123.495>
DStem2: 177.745 -11 249.745 -11 0.242599 0.970127<92.7151 312.21 375.026 577.297>
AnchorPoint: "below" 356 0 basechar 0
AnchorPoint: "above" 556 798 basechar 0
LayerCount: 2
Fore
SplineSet
485 725 m 0
 485 754 500 753 660 803 c 0
 667 805 674 807 681 807 c 0
 701 807 713 792 713 774 c 0
 713 749 691 740 678 736 c 0
 531 690 521 686 514 686 c 0x34
 504 686 485 692 485 725 c 0
EndSplineSet
Refer: 128 82 S 1 0 0 1 0 0 3
EndChar

StartChar: Rcaron
Encoding: 344 344 190
Width: 841
Flags: HW
TeX: 819 0
ItalicCorrection: 12
HStem: -11 62<657.608 731.446> 0 62<96.6899 196 268 352.441> 275 61<336 585.277> 549 62<233.654 318 389 639.96>
VStem: 585 70<52.7261 186.051> 611 70<121.147 251.188> 710 72<408.187 499.574> 747 73<66.625 123.495>
DStem2: 177.745 -11 249.745 -11 0.242599 0.970127<92.7151 312.21 375.026 577.297>
AnchorPoint: "below" 356 0 basechar 0
AnchorPoint: "above" 555 795 basechar 0
LayerCount: 2
Fore
SplineSet
415 775 m 0
 415 790 429 804 445 804 c 0
 461 804 468 792 498 758 c 2
 538 711 l 1
 665 802 661 804 676 804 c 0x30
 691 804 705 791 705 775 c 0
 705 760 693 751 686 746 c 0
 543 636 546 636 532 636 c 0
 518 636 509 646 504 653 c 0
 417 762 415 762 415 775 c 0
EndSplineSet
Refer: 128 82 S 1 0 0 1 0 0 3
EndChar

StartChar: Sacute
Encoding: 346 346 191
Width: 667
Flags: HW
TeX: 778 0
ItalicCorrection: 94
HStem: -11 61<250.988 453.946> 560 62<360.166 539.451> 736 71<510.534 606.923>
VStem: 105 104<12 155.654> 211 67<393.354 491.288> 544 67<130.911 241.168> 577 70<409.224 521.832>
AnchorPoint: "below" 365 0 basechar 0
AnchorPoint: "above" 495 787 basechar 0
LayerCount: 2
Fore
SplineSet
383 725 m 0
 383 754 398 753 558 803 c 0
 565 805 571 807 578 807 c 0
 598 807 611 792 611 774 c 0
 611 749 589 740 576 736 c 0
 429 690 419 686 412 686 c 0xfc
 402 686 383 692 383 725 c 0
EndSplineSet
Refer: 129 83 S 1 0 0 1 0 0 3
EndChar

StartChar: Scaron
Encoding: 352 352 192
Width: 667
Flags: HW
TeX: 819 0
ItalicCorrection: 94
HStem: -11 61<250.988 453.946> 560 62<360.166 539.451>
VStem: 105 104<12 155.654> 211 67<393.354 491.288> 544 67<130.911 241.168> 577 70<409.224 521.832>
AnchorPoint: "below" 365 0 basechar 0
AnchorPoint: "above" 495 784 basechar 0
LayerCount: 2
Fore
SplineSet
382 775 m 0
 382 790 396 804 412 804 c 0
 428 804 435 792 465 758 c 2
 505 711 l 1
 632 802 628 804 643 804 c 0xf0
 658 804 672 791 672 775 c 0
 672 760 660 751 653 746 c 0
 511 637 513 636 500 636 c 2
 499 636 l 2
 485 636 476 646 471 653 c 0
 384 762 382 762 382 775 c 0
EndSplineSet
Refer: 129 83 S 1 0 0 1 0 0 3
EndChar

StartChar: Scedilla
Encoding: 350 350 193
Width: 667
Flags: HW
TeX: 610 194
ItalicCorrection: 94
HStem: -208 61<196.625 369.938> -11 21G<127 143.5> 560 62<360.166 539.451>
VStem: 105 104<8.5 155.654> 211 67<392.901 491.066> 389 71<-126.55 -70.8939> 544 67<130.351 241.514> 577 70<408.912 521.832>
LayerCount: 2
Fore
SplineSet
105 17 m 0
 105 24 104 18 143 174 c 0
 149 198 157 203 180 203 c 0
 206 203 213 186 213 175 c 0
 213 160 209 160 209 137 c 0
 209 68 292 50 364 50 c 0
 470 50 544 129 544 190 c 0xfe
 544 286 399 272 306 307 c 0
 262 323 211 363 211 431 c 0
 211 531 324 622 454 622 c 0
 546 622 585 590 607 570 c 1
 629 611 636 622 655 622 c 0
 670 622 685 611 685 594 c 0
 685 587 686 592 647 437 c 0xfd
 644 427 640 407 613 407 c 2
 611 407 l 2xfe
 600 407 577 409 577 438 c 2
 577 462 l 2xfd
 577 541 512 560 452 560 c 0
 358 560 278 496 278 438 c 0
 278 360 407 362 501 334 c 0
 571 313 611 259 611 197 c 0
 611 110 529 6 389 -10 c 1
 423 -20 460 -45 460 -92 c 0
 460 -133 432 -177 370 -195 c 0
 328 -207 288 -208 239 -208 c 2
 227 -208 l 2
 203 -208 195 -191 195 -180 c 0
 195 -166 202 -147 232 -147 c 2
 249 -147 l 2xfe
 269 -147 389 -148 389 -94 c 0
 389 -81 377 -69 351 -67 c 1
 351 -67 318 -67 318 -39 c 0
 318 -28 321 -18 326 -10 c 1
 237 -2 203 20 181 38 c 1
 161 0 153 -11 134 -11 c 0
 120 -11 105 0 105 17 c 0
EndSplineSet
EndChar

StartChar: Tcaron
Encoding: 356 356 194
Width: 841
Flags: HW
TeX: 819 0
ItalicCorrection: 138
HStem: 0 62<261.471 400 472 595.047> 455 156<226.994 268.135 828.075 880.493> 549 62<282.77 522 593 828>
VStem: 813 93<483 583>
DStem2: 384.496 0 456.496 0 0.242599 0.970127<81.3763 565.958>
AnchorPoint: "below" 420 0 basechar 0
AnchorPoint: "above" 618 795 basechar 0
LayerCount: 2
Fore
SplineSet
469 775 m 0
 469 790 483 804 499 804 c 0
 515 804 523 792 553 758 c 1
 592 711 l 1
 719 802 715 804 730 804 c 0x90
 745 804 759 791 759 775 c 0
 759 760 747 751 740 746 c 0
 598 637 600 636 587 636 c 2
 586 636 l 2
 572 636 563 646 558 653 c 0
 471 762 469 762 469 775 c 0
EndSplineSet
Refer: 130 84 S 1 0 0 1 0 0 3
EndChar

StartChar: Tcommaaccent
Encoding: 354 354 195
Width: 841
Flags: HW
TeX: 610 194
ItalicCorrection: 138
HStem: -208 61<255.426 426.818> 0 62<261.586 385 472 595.275> 455 156<226.994 268.135 828.075 878.621> 549 62<282.77 522 593 828>
VStem: 447 71<-125.963 -70.2427> 813 93<489.062 547.143>
DStem2: 332.986 -208 403.986 -208 0.242599 0.970127<295.659 780.241>
LayerCount: 2
Fore
SplineSet
200 483 m 0
 200 493 204 504 224 582 c 0
 229 601 238 611 258 611 c 2
 871 611 l 2
 903 611 906 591 906 583 c 0
 906 572 882 476 879 471 c 0
 871 456 857 455 848 455 c 0xec
 836 455 813 456 813 483 c 0
 813 494 818 509 828 549 c 1
 593 549 l 1
 472 62 l 1
 561 62 l 2
 587 62 597 47 597 33 c 0
 597 23 593 0 560 0 c 2
 456 0 l 1
 453 -12 l 1
 484 -22 518 -48 518 -92 c 0
 518 -133 492 -176 433 -194 c 0
 389 -208 346 -208 294 -208 c 2
 291 -208 l 2
 273 -208 254 -204 254 -179 c 0
 254 -149 280 -147 290 -147 c 2xdc
 312 -147 l 1
 335 -146 447 -147 447 -93 c 0
 447 -66 403 -66 398 -65 c 0
 382 -61 376 -47 376 -39 c 0
 376 -32 379 -23 385 0 c 1
 295 0 l 2
 269 0 260 14 260 29 c 0
 260 40 264 62 297 62 c 2
 400 62 l 1
 522 549 l 1
 287 549 l 1xdc
 268 459 262 455 237 455 c 2
 236 455 l 2
 206 455 200 472 200 483 c 0
EndSplineSet
EndChar

StartChar: Uhungarumlaut
Encoding: 368 368 196
Width: 841
Flags: HW
TeX: 778 0
ItalicCorrection: 136
HStem: -11 62<345.694 517.131> 549 62<233.313 317 384.095 489.129 641.313 725 797 897.314> 686 121<618.377 666.405>
VStem: 227 70<97.035 260.204>
DStem2: 177.483 -11 249.234 -11 0.242599 0.970127<198.749 577.118> 585.233 -11 657.484 -11 0.242599 0.970127<143.224 577.178>
AnchorPoint: "below" 428 0 basechar 0
AnchorPoint: "above" 619 798 basechar 0
LayerCount: 2
Fore
SplineSet
441 724 m 0
 441 750 464 755 471 757 c 0
 619 803 629 807 636 807 c 0
 654 807 669 796 669 771 c 2
 669 765 l 1
 796 805 805 807 811 807 c 0
 831 807 844 790 844 774 c 0
 844 748 821 740 808 736 c 0
 662 690 651 686 644 686 c 0
 615 686 615 719 615 730 c 1
 485 689 476 686 470 686 c 0
 458 686 441 693 441 724 c 0
EndSplineSet
Refer: 131 85 S 1 0 0 1 0 -0 3
EndChar

StartChar: Uring
Encoding: 366 366 197
Width: 841
Flags: HW
TeX: 819 0
ItalicCorrection: 136
HStem: -11 62<345.694 517.131> 549 62<233.313 317 384.095 489.129 641.313 725 797 897.314> 590 62<543.872 632.588> 766 61<561.862 650.994>
VStem: 227 70<97.035 260.204> 477 61<657.702 741.268> 657 60<674.881 759.518>
DStem2: 177.483 -11 249.234 -11 0.242599 0.970127<198.749 577.118> 585.233 -11 657.484 -11 0.242599 0.970127<143.224 577.178>
LayerCount: 2
Fore
SplineSet
477 679 m 0
 477 753 550 827 627 827 c 0
 680 827 717 791 717 738 c 0
 717 659 640 590 568 590 c 0
 515 590 477 626 477 679 c 0
538 695 m 0
 538 669 558 652 583 652 c 0
 620 652 657 686 657 722 c 0
 657 749 636 766 612 766 c 0xbe
 575 766 538 731 538 695 c 0
EndSplineSet
Refer: 131 85 S 1 0 0 1 0 0 3
EndChar

StartChar: Ydieresis
Encoding: 376 376 198
Width: 841
Flags: HW
TeX: 819 0
ItalicCorrection: 178
HStem: -0 62<299.874 401 471 555.324> 549 62<218.62 298 385 453.615 676.5 730 797.344 911.561> 719 100<472.464 548.152 676.507 752.236>
VStem: 460 101<731.75 806.319> 664 101<731.464 806.472>
DStem2: 385 549 298 549 0.437724 -0.899109<0 261.191> 499 314 529 258 0.704559 0.709646<0 329.52>
AnchorPoint: "below" 419 0 basechar 0
AnchorPoint: "above" 622 810 basechar 0
LayerCount: 2
Fore
SplineSet
664 764 m 0
 664 797 694 819 719 819 c 0
 746 819 765 799 765 774 c 0
 765 746 740 719 709 719 c 0
 682 719 664 740 664 764 c 0
EndSplineSet
Refer: 92 46 S 1 0 0 1 311 719 2
Refer: 135 89 S 1 0 0 1 -0 -0 3
EndChar

StartChar: Zacute
Encoding: 377 377 199
Width: 725
Flags: HW
TeX: 778 0
ItalicCorrection: 123
HStem: 0 62<214 580.029> 549 62<317.504 663>
VStem: 575 91<64.6357 147.243>
DStem2: 128 66 214 62 0.742258 0.670114<61.1538 720.773>
AnchorPoint: "below" 365 0 basechar 0
AnchorPoint: "above" 565 798 basechar 0
LayerCount: 2
Fore
SplineSet
441 725 m 0
 441 754 456 753 616 803 c 0
 623 805 630 807 637 807 c 0
 657 807 669 792 669 774 c 0
 669 749 647 740 634 736 c 0
 487 690 477 686 470 686 c 0
 460 686 441 692 441 725 c 0
EndSplineSet
Refer: 136 90 S 1 0 0 1 0 0 3
EndChar

StartChar: Zcaron
Encoding: 381 381 200
Width: 725
Flags: HW
TeX: 819 0
ItalicCorrection: 123
HStem: 0 62<214 580.029> 549 62<317.504 663>
VStem: 575 91<64.6357 147.243>
DStem2: 128 66 214 62 0.742258 0.670114<61.1538 720.773>
AnchorPoint: "below" 365 0 basechar 0
AnchorPoint: "above" 564 795 basechar 0
LayerCount: 2
Fore
SplineSet
418 775 m 0
 418 790 431 804 447 804 c 0
 463 804 471 792 501 758 c 2
 541 711 l 1
 613 760 659 804 679 804 c 0
 694 804 707 791 707 775 c 0
 707 760 695 751 688 746 c 0
 546 637 549 636 536 636 c 2
 535 636 l 2
 521 636 512 646 507 653 c 0
 420 762 418 762 418 775 c 0
EndSplineSet
Refer: 136 90 S 1 0 0 1 0 0 3
EndChar

StartChar: IJ
Encoding: 306 306 202
Width: 958
Flags: HW
TeX: 610 0
ItalicCorrection: 112
HStem: -11 62<562.354 709.009> -0 62<91.6724 196 267 356.438> 549 62<228.559 317 389 493.341 752.365 865 931.222 1012.54>
VStem: 485 77<60.0117 105.85>
DStem2: 177.745 -11 248.745 -11 0.242599 0.970127<92.4725 577.054> 724.739 -11 796.74 -11 0.242599 0.970127<96.5462 577.298>
LayerCount: 2
Fore
SplineSet
90 29 m 0
 90 38 93 61 124 62 c 1
 196 62 l 1
 317 549 l 1
 299 549 281 549 263 549 c 0
 250 549 227 551 227 578 c 0
 227 588 230 611 263 611 c 2
 460 611 l 2
 491 611 495 592 495 582 c 0
 495 572 491 550 460 549 c 1
 389 549 l 1
 267 62 l 1x70
 285 62 303 62 321 62 c 0
 335 62 358 60 358 33 c 0
 358 22 354 0 322 -0 c 2
 125 -0 l 2
 93 0 90 21 90 29 c 0
485 86 m 0
 485 132 515 146 536 146 c 0
 560 146 577 128 577 106 c 0
 577 103 577 87 562 71 c 1
 562 70 l 1
 574 62 590 51 634 51 c 0
 686 51 748 81 764 146 c 2
 865 549 l 1
 785 549 l 2
 760 549 751 564 751 578 c 0
 751 589 754 611 788 611 c 2
 979 611 l 2
 1010 611 1014 591 1014 582 c 0
 1014 551 988 549 977 549 c 2xb0
 936 549 l 1
 933 535 930 521 926 507 c 2
 832 130 l 2
 807 29 710 -11 632 -11 c 0
 572 -11 485 10 485 86 c 0
EndSplineSet
Ligature2: "Latin Dutch ligatures subtable" I J
EndChar

StartChar: dcroat
Encoding: 273 273 204
Width: 608
Flags: HW
TeX: 610 0
ItalicCorrection: 99
HStem: -5 61<234.809 343.276 485.392 539.732> 374 62<313.676 421.689> 462 61<370.738 500 587 657.62> 549 62<421.017 521>
VStem: 140 70<81.5797 252.909> 447 33<88 275>
LayerCount: 2
Fore
SplineSet
140 157 m 0
 140 295 256 436 376 436 c 0
 439 436 470 398 481 386 c 1
 500 462 l 1
 403 462 l 2
 395 462 369 462 369 490 c 0
 369 500 373 523 407 523 c 2
 515 523 l 1
 521 549 l 1
 452 549 l 1
 428 550 419 564 419 578 c 0
 419 586 423 611 455 611 c 2
 564 611 l 2
 592 611 600 595 600 584 c 0
 600 573 592 542 587 523 c 1
 623 523 l 2
 634 523 659 523 659 495 c 0
 659 464 634 462 621 462 c 2
 571 462 l 1
 555 390 563 426 482 106 c 0
 480 98 480 93 480 88 c 0
 480 79 483 73 488 65 c 1
 496 60 504 57 512 57 c 0
 518 57 524 59 530 64 c 0
 572 105 550 172 601 172 c 0
 617 172 636 165 636 142 c 1
 634 119 601 -5 512 -5 c 0
 468 -5 431 19 416 54 c 1
 389 30 341 -5 280 -5 c 0
 196 -5 140 65 140 157 c 0
210 153 m 0
 210 119 224 56 282 56 c 0
 359 56 447 168 447 275 c 0
 447 336 417 374 374 374 c 0
 305 374 210 274 210 153 c 0
EndSplineSet
AlternateSubs2: "Stilistic set 01 subtable" dcroat.vn
AlternateSubs2: "Latin alternatives subtable" dcroat.vn
Substitution2: "Latin Vietnamese substitutions subtable" dcroat.vn
EndChar

StartChar: section
Encoding: 167 167 205
Width: 550
Flags: HW
TeX: 610 222
HStem: -228 62<178.637 295.696> -84 20G<132 150.5> 554 62<349.314 467.115>
VStem: 101 70<-156.323 -68.601> 160 58<134.523 233.174> 226 57<394.129 492.184> 362 58<-103.782 -5.44453> 428 57<156.856 255.705> 474 70<457.601 545.216>
LayerCount: 2
Fore
SplineSet
101 -120 m 0
 101 -74 124 -64 140 -64 c 0
 161 -64 174 -81 174 -96 c 0
 174 -103 171 -112 171 -121 c 0xf7
 171 -149 196 -166 227 -166 c 0
 295 -166 362 -103 362 -49 c 0
 362 2 291 25 264 37 c 0
 194 68 160 118 160 172 c 0
 160 237 208 304 271 334 c 1
 247 358 226 386 226 433 c 0
 226 521 314 616 421 616 c 0
 490 616 544 573 544 509 c 0
 544 463 521 453 505 453 c 0
 483 453 472 472 472 485 c 0
 472 491 474 500 474 510 c 0xee80
 474 538 451 554 419 554 c 0
 351 554 283 492 283 438 c 0
 283 387 358 362 381 352 c 0
 451 321 485 270 485 216 c 0
 485 151 438 87 375 55 c 1
 398 30 420 3 420 -44 c 0
 420 -134 329 -228 224 -228 c 0
 156 -228 101 -184 101 -120 c 0
218 177 m 0
 218 126 297 97 308 97 c 0
 346 97 428 149 428 212 c 0
 428 265 346 292 337 292 c 0xef
 299 292 218 240 218 177 c 0
EndSplineSet
EndChar

StartChar: abreve
Encoding: 259 259 206
Width: 608
Flags: HW
TeX: 638 0
ItalicCorrection: 99
HStem: -5 61<234.809 343.276 485.416 541.069> 374 62<313.676 421.689> 498 65<344.496 544.415>
VStem: 140 70<81.5797 252.909> 278 62<573.305 637.345> 447 33<88 275> 545 91<75.7168 146.801>
AnchorPoint: "below" 267 0 basechar 0
AnchorPoint: "above" 422 619 basechar 0
LayerCount: 2
Fore
SplineSet
278 594 m 0
 278 615 284 639 310 639 c 0
 328 639 341 626 341 611 c 0
 341 607 340 601 340 597 c 0
 340 569 395 563 437 563 c 0
 604 563 549 639 602 639 c 0
 618 639 632 627 632 610 c 0
 632 588 600 498 435 498 c 0
 305 498 278 556 278 594 c 0
EndSplineSet
Refer: 143 97 S 1 0 0 1 -0 0 3
AlternateSubs2: "Stilistic set 01 subtable" abreve.vn
AlternateSubs2: "Latin alternatives subtable" abreve.vn
Substitution2: "Latin Vietnamese substitutions subtable" abreve.vn
EndChar

StartChar: aogonek
Encoding: 261 261 207
Width: 608
Flags: HW
TeX: 430 222
ItalicCorrection: 99
HStem: -233 62<402.751 491.367> -141 20G<516 537.5> -5 61<235.442 343.49> 374 62<314.029 421.689>
VStem: 140 70<81.6885 250.217> 330 64<-161.251 -73.928> 447 33<88 275> 569 67<89.8963 170.141>
AnchorPoint: "above" 376 436 basechar 0
LayerCount: 2
Fore
SplineSet
140 157 m 0
 140 297 258 436 376 436 c 0
 439 436 470 398 481 386 c 1
 489 419 511 421 518 421 c 0
 536 421 552 408 552 388 c 0
 552 382 550 376 549 372 c 2
 482 105 l 2
 480 98 480 93 480 88 c 0
 480 79 483 73 488 65 c 1
 495 61 502 57 513 57 c 0
 550 57 563 142 569 155 c 0
 575 167 589 172 602 172 c 0
 619 172 636 162 636 143 c 0
 636 127 605 9 527 -4 c 0
 514 -6 511 -3 492 -14 c 0
 410 -59 394 -101 394 -123 c 0
 394 -153 420 -171 445 -171 c 0
 494 -171 502 -121 530 -121 c 0
 545 -121 562 -134 562 -151 c 0
 562 -172 512 -233 443 -233 c 0
 385 -233 330 -191 330 -126 c 0
 330 -66 379 -11 437 23 c 1
 429 32 422 42 416 54 c 1
 389 30 341 -5 280 -5 c 0
 196 -5 140 65 140 157 c 0
210 153 m 0
 210 109 230 56 282 56 c 0
 360 56 447 169 447 275 c 0
 447 336 417 374 374 374 c 0
 305 374 210 274 210 153 c 0
EndSplineSet
EndChar

StartChar: ccaron
Encoding: 269 269 209
Width: 550
Flags: HW
TeX: 638 0
ItalicCorrection: 49
HStem: -5 61<249.472 460.271> 374 62<330.431 454.39>
VStem: 141 70<93.7608 249.874> 441 91<290.546 356.623>
AnchorPoint: "below" 326 0 basechar 0
AnchorPoint: "above" 450 619 basechar 0
LayerCount: 2
Fore
SplineSet
307 609 m 0
 307 625 321 639 337 639 c 0
 353 639 363 627 434 559 c 1
 496 596 550 639 568 639 c 0
 583 639 597 626 597 610 c 0
 597 594 584 585 577 580 c 0
 442 487 441 484 427 484 c 0
 411 484 406 493 319 585 c 0
 312 593 307 599 307 609 c 0
EndSplineSet
Refer: 145 99 S 1 0 0 1 0 0 3
EndChar

StartChar: dcaron
Encoding: 271 271 210
Width: 608
Flags: HW
TeX: 610 0
ItalicCorrection: 99
HStem: -5 61<234.809 343.276 485.392 540.648> 374 62<313.676 421.689> 549 62<420.562 521>
VStem: 140 70<81.5797 252.909> 447 33<89 275> 630 111<538.564 619.536>
DStem2: 383.223 -5 454.21 -5 0.242599 0.970127<403.04 570.875>
LayerCount: 2
Fore
SplineSet
594 472 m 0
 594 505 628 492 662 534 c 1
 637 542 630 562 630 577 c 0
 630 605 654 632 687 632 c 0
 720 632 741 606 741 573 c 0
 741 502 660 441 625 441 c 0
 607 441 594 458 594 472 c 0
EndSplineSet
Refer: 146 100 S 1 0 0 1 0 -0 3
EndChar

StartChar: ecaron
Encoding: 283 283 211
Width: 550
Flags: HW
TeX: 638 0
ItalicCorrection: 84
HStem: -5 61<251.867 460.697> 189 61<232 413.711> 374 62<327.173 457.739>
VStem: 142 70<93.5838 188.43> 465 70<287.254 364.311>
AnchorPoint: "below" 322 0 basechar 0
AnchorPoint: "above" 452 619 basechar 0
LayerCount: 2
Fore
SplineSet
315 609 m 0
 315 625 329 639 345 639 c 0
 361 639 370 627 441 559 c 1
 506 598 558 639 576 639 c 0
 591 639 604 626 604 610 c 0
 604 594 591 585 584 580 c 0
 449 487 449 484 435 484 c 0
 419 484 414 493 327 585 c 0
 320 593 315 599 315 609 c 0
EndSplineSet
Refer: 147 101 S 1 0 0 1 0 0 3
EndChar

StartChar: eogonek
Encoding: 281 281 212
Width: 550
Flags: HW
TeX: 430 222
ItalicCorrection: 84
HStem: -233 62<346.57 433.703> -137 20G<460.5 482.5> -5 61<249.422 337> 189 61<232 414.2> 374 62<326.919 456.968>
VStem: 142 70<93.7574 188.43> 274 64<-162.778 -72.2049> 465 70<286.71 364.645>
AnchorPoint: "above" 405 436 basechar 0
LayerCount: 2
Fore
SplineSet
142 168 m 0
 142 313 276 436 405 436 c 0
 478 436 535 394 535 332 c 0
 535 306 526 228 403 201 c 0
 374 195 327 189 252 189 c 2
 213 189 l 1
 212 181 212 174 212 166 c 0
 212 117 234 56 320 56 c 0
 502 57 480 109 518 109 c 0
 532 109 553 91 553 73 c 0
 553 27 445 13 377 -52 c 0
 344 -84 338 -109 338 -123 c 0
 338 -152 361 -171 386 -171 c 0
 437 -171 446 -117 475 -117 c 0
 490 -117 507 -130 507 -147 c 0
 507 -172 450 -233 383 -233 c 0
 327 -233 274 -191 274 -125 c 0
 274 -69 312 -27 337 -5 c 1
 311 -5 l 2
 209 -5 142 68 142 168 c 0
232 250 m 1
 241 250 l 2
 323 250 465 252 465 331 c 0
 465 360 435 374 404 374 c 0
 335 374 261 317 232 250 c 1
EndSplineSet
EndChar

StartChar: gbreve
Encoding: 287 287 213
Width: 550
Flags: HW
TeX: 638 222
ItalicCorrection: 84
HStem: -228 62<163.777 302.098> 0 62<234.527 344.504> 374 62<314.318 422.326> 498 65<314.89 515.052>
VStem: 73 90<-165.051 -119.867> 141 69<87.1564 251.591> 248 62<573.305 637.01> 447 104<219.5 399>
LayerCount: 2
Fore
SplineSet
248 594 m 0
 248 615 255 639 281 639 c 0
 299 639 311 626 311 611 c 0
 311 607 310 601 310 597 c 0
 310 569 365 563 407 563 c 0
 574 563 520 639 573 639 c 0
 589 639 603 627 603 610 c 0xf3
 603 588 571 498 406 498 c 0
 276 498 248 556 248 594 c 0
EndSplineSet
Refer: 149 103 S 1 0 0 1 -0 0 3
EndChar

StartChar: lacute
Encoding: 314 314 214
Width: 317
Flags: HW
TeX: 778 0
ItalicCorrection: 99
HStem: -5 62<189.307 249.799> 549 62<128.862 230> 736 71<393.5 490.219>
VStem: 118 70<59.6669 177.047> 273 71<82.8185 170.088>
DStem2: 91.24 -5 163.242 -5 0.242599 0.970127<114.061 571.113>
LayerCount: 2
Fore
SplineSet
265 725 m 0
 265 754 281 753 441 803 c 0
 448 805 454 807 461 807 c 0
 481 807 494 790 494 774 c 0
 494 748 471 740 459 736 c 0
 312 690 302 686 295 686 c 0
 285 686 265 692 265 725 c 0
EndSplineSet
Refer: 154 108 S 1 0 0 1 0 0 3
EndChar

StartChar: lcaron
Encoding: 318 318 215
Width: 317
Flags: HW
TeX: 610 0
ItalicCorrection: 99
HStem: -5 62<189.307 249.799> 549 62<128.862 230>
VStem: 118 70<59.6669 177.047> 273 71<82.8185 170.088> 338 111<539.102 619.536>
DStem2: 91.24 -5 163.242 -5 0.242599 0.970127<114.061 571.113>
LayerCount: 2
Fore
SplineSet
303 472 m 0
 303 505 337 492 371 534 c 1
 346 542 338 562 338 577 c 0
 338 605 362 632 395 632 c 0
 428 632 449 606 449 573 c 0
 449 500 367 441 333 441 c 0xe8
 315 441 303 458 303 472 c 0
EndSplineSet
Refer: 154 108 S 1 0 0 1 0 0 3
EndChar

StartChar: lslash
Encoding: 322 322 216
Width: 375
Flags: HW
TeX: 610 0
ItalicCorrection: 99
HStem: -5 62<204.75 264.878> 549 62<144.5 245>
VStem: 133 70<58.9146 181.857> 298 61<102.098 170.515>
DStem2: 106.98 -5 177.978 -5 0.242599 0.970127<113.974 288.622 356.233 384.599 451.368 567.888> 110 306 177 275 0.845258 0.534359<-23.7074 40.0672 205.854 296.998>
AnchorPoint: "above" 296 611 basechar 0
LayerCount: 2
Fore
SplineSet
90 277 m 0
 90 294 105 302 110 306 c 0
 181 351 189 357 198 362 c 1
 245 549 l 1
 178 549 l 2
 147 549 143 568 143 578 c 0
 143 588 146 611 179 611 c 2
 289 611 l 2
 299 611 324 610 324 582 c 0
 324 574 325 580 284 416 c 1
 334 448 351 461 364 461 c 0
 375 461 392 448 392 429 c 0
 392 417 386 409 372 400 c 0
 249 321 263 335 257 311 c 0
 207 111 203 98 203 88 c 0
 203 69 219 57 235 57 c 0
 278 57 283 147 298 163 c 0
 304 169 313 172 324 172 c 0
 354 172 359 154 359 143 c 0
 359 135 331 -5 235 -5 c 0
 180 -5 133 32 133 89 c 0
 133 109 134 104 177 275 c 1
 138 251 131 245 120 245 c 0
 102 245 90 263 90 277 c 0
EndSplineSet
EndChar

StartChar: nacute
Encoding: 324 324 217
Width: 667
Flags: HW
TeX: 610 0
ItalicCorrection: 99
HStem: -5 62<521.595 585.907> 374 62<173.483 233.458 391.665 511.342> 506 69<383.647 454.813>
VStem: 79 63<260.537 332.156> 160 66<-3.0979 90.8125> 451 70<57.5139 146.756> 519 70<228.386 365.585> 628 67<106.375 170.076>
LayerCount: 2
Fore
SplineSet
381 545 m 0
 381 562 392 570 404 575 c 0
 565 638 564 639 575 639 c 0
 592 639 608 626 608 606 c 0
 608 576 595 576 433 512 c 0
 426 509 419 506 411 506 c 2
 410 506 l 2xf9
 386 506 381 532 381 545 c 0
EndSplineSet
Refer: 156 110 S 1 0 0 1 0 0 3
EndChar

StartChar: ncaron
Encoding: 328 328 218
Width: 667
Flags: HW
TeX: 638 0
ItalicCorrection: 99
HStem: -5 62<521.595 585.907> 374 62<173.483 233.458 391.665 511.342>
VStem: 79 63<260.537 332.156> 160 66<-3.0979 90.8125> 451 70<57.5139 146.756> 519 70<228.386 365.585> 628 67<106.375 170.076>
LayerCount: 2
Fore
SplineSet
286 609 m 0
 286 626 300 639 315 639 c 0
 331 639 341 627 412 559 c 1
 474 596 528 639 546 639 c 0xf2
 561 639 575 626 575 610 c 0
 575 594 562 585 555 580 c 0
 420 487 420 484 406 484 c 0
 390 484 385 493 298 585 c 0
 291 593 286 599 286 609 c 0
EndSplineSet
Refer: 156 110 S 1 0 0 1 -0 0 3
EndChar

StartChar: eng
Encoding: 331 331 219
Width: 667
Flags: HW
TeX: 430 222
ItalicCorrection: 99
HStem: -228 62<306.17 360.342> -5 21G<184 199.5> 374 62<173.603 233.458 396.422 511.917>
VStem: 79 63<260.537 332.156> 217 91<-163.719 -116.27> 519 70<230.686 366.344>
AnchorPoint: "affricate-below" 611 -222 basechar 0
AnchorPoint: "affricate-above" 820 611 basechar 0
AnchorPoint: "below" 276 -222 basechar 0
AnchorPoint: "above" 441 436 basechar 0
LayerCount: 2
Fore
SplineSet
79 287 m 0
 79 297 108 436 203 436 c 0
 251 436 294 407 303 360 c 1
 334 390 381 436 464 436 c 2
 465 436 l 2
 537 436 589 397 589 322 c 0
 589 262 542 148 526 103 c 0
 503 35 468 -228 320 -228 c 0
 275 -228 217 -212 217 -160 c 0
 217 -130 239 -107 267 -107 c 0
 288 -107 308 -122 308 -146 c 0
 308 -152 307 -158 305 -164 c 1
 311 -165 316 -166 321 -166 c 0
 402 -166 437 62 463 132 c 0
 490 205 519 285 519 323 c 0
 519 354 505 374 461 374 c 0
 292 374 240 39 225 14 c 0
 219 3 206 -5 193 -5 c 0
 175 -5 162 7 160 25 c 0
 159 34 162 44 164 53 c 2
 232 323 l 2
 234 329 235 336 235 342 c 0
 235 364 216 374 202 374 c 0
 164 374 151 283 142 271 c 0
 136 263 129 259 116 259 c 2
 114 259 l 2
 82 259 79 278 79 287 c 0
EndSplineSet
EndChar

StartChar: rcaron
Encoding: 345 345 222
Width: 506
Flags: HW
TeX: 638 0
ItalicCorrection: 107
HStem: -5 21<183 199> 373 63<173.569 233.619 369.435 483.027>
VStem: 79 70<260.542 347.471> 466 92<283 349.621>
AnchorPoint: "below" 194 0 basechar 0
AnchorPoint: "above" 368 619 basechar 0
LayerCount: 2
Fore
SplineSet
224 609 m 0
 224 625 238 639 254 639 c 0
 270 639 279 626 350 559 c 1
 412 596 467 639 485 639 c 0
 500 639 513 626 513 610 c 0
 513 594 500 585 493 580 c 0
 358 487 358 484 344 484 c 0
 328 484 323 493 236 585 c 0
 229 593 224 599 224 609 c 0
EndSplineSet
Refer: 160 114 S 1 0 0 1 0 0 3
EndChar

StartChar: sacute
Encoding: 347 347 223
Width: 492
Flags: HW
TeX: 610 0
ItalicCorrection: 78
HStem: -5 61<173.252 351.474> 374 62<265.531 399.126>
VStem: 95 92<77.5149 141.647> 177 62<275.329 348.49> 390 86<301.943 360.485> 392 62<95.2256 177.698>
AnchorPoint: "below" 253 0 basechar 0
AnchorPoint: "above" 391 619 basechar 0
LayerCount: 2
Fore
SplineSet
95 91 m 0
 95 137 126 152 146 152 c 0
 167 152 187 136 187 112 c 0
 187 98 181 88 172 77 c 1
 185 68 204 56 254 56 c 0
 308 56 370 66 389 128 c 0
 391 134 392 139 392 144 c 0xe4
 392 197 293 197 251 211 c 0
 217 223 177 251 177 302 c 0
 177 338 202 436 344 436 c 0
 450 436 476 384 476 350 c 0
 476 307 448 294 429 294 c 0
 408 294 390 309 390 331 c 0xd8
 390 340 393 350 400 361 c 1
 381 373 361 374 344 374 c 0
 247 374 239 316 239 304 c 0
 239 262 315 265 364 250 c 0
 399 240 454 208 454 146 c 0xd4
 454 112 432 -4 256 -5 c 0
 121 -5 95 52 95 91 c 0
293 546 m 0
 293 564 307 571 316 575 c 0
 477 638 476 639 487 639 c 0
 504 639 520 625 520 605 c 0
 520 575 508 576 345 512 c 0
 338 509 331 506 323 506 c 0xc0
 299 506 293 533 293 546 c 0
EndSplineSet
EndChar

StartChar: scaron
Encoding: 353 353 224
Width: 492
Flags: HW
TeX: 638 0
ItalicCorrection: 130
HStem: -5 61<173.042 352.153> 374 62<265.242 399.319>
VStem: 95 92<77.5149 141.647> 178 62<277.98 349.732> 390 86<301.943 360.485> 391 62<92.1203 173.648>
AnchorPoint: "below" 253 0 basechar 0
AnchorPoint: "above" 391 619 basechar 0
LayerCount: 2
Fore
SplineSet
95 91 m 0
 95 137 126 152 146 152 c 0
 167 152 187 136 187 112 c 0
 187 98 181 88 172 77 c 1
 185 68 205 56 255 56 c 0
 378 56 391 122 391 141 c 0xe4
 391 218 178 177 178 305 c 0
 178 341 203 436 344 436 c 0
 451 436 476 384 476 349 c 0
 476 307 448 294 429 294 c 0
 408 294 390 309 390 331 c 0xd8
 390 340 393 350 400 361 c 1
 381 373 360 374 343 374 c 0
 252 374 240 324 240 306 c 0
 240 266 319 265 380 240 c 0
 429 220 453 182 453 143 c 0xd4
 453 100 423 -4 256 -5 c 0
 120 -5 95 52 95 91 c 0
253 609 m 0
 253 625 267 639 283 639 c 0
 299 639 308 627 379 559 c 1
 444 598 496 639 514 639 c 0xc0
 529 639 542 626 542 610 c 0
 542 594 529 585 522 580 c 0
 387 487 387 484 373 484 c 0
 357 484 352 493 265 585 c 0
 258 593 253 599 253 609 c 0
EndSplineSet
EndChar

StartChar: scedilla
Encoding: 351 351 225
Width: 492
Flags: HW
TeX: 430 194
ItalicCorrection: 78
HStem: -208 61<79.4285 252.988> 374 62<265.537 397.99>
VStem: 95 92<77.3765 141.577> 177 63<274.442 349.388> 272 71<-126.833 -70.8348> 390 86<301.943 360.485> 392 62<94.9249 178.645>
LayerCount: 2
Fore
SplineSet
78 -180 m 0
 78 -149 104 -147 115 -147 c 0
 122 -147 129 -147 136 -147 c 0
 157 -147 272 -148 272 -95 c 0
 272 -82 261 -71 239 -68 c 0
 233 -67 201 -67 201 -38 c 0
 201 -32 203 -25 208 -3 c 1
 207 -2 95 6 95 91 c 0
 95 137 126 152 146 152 c 0
 171 152 187 134 187 112 c 0
 187 95 179 85 172 77 c 1
 185 69 203 57 249 57 c 2xea
 263 57 l 2
 361 57 392 109 392 144 c 0xea
 392 197 294 197 251 211 c 0
 199 229 177 265 177 302 c 0
 177 332 199 436 345 436 c 0
 451 436 476 384 476 350 c 0
 476 307 448 294 429 294 c 0
 408 294 390 309 390 331 c 0
 390 340 393 350 400 361 c 1
 390 366 378 374 344 374 c 0
 256 374 240 325 240 304 c 0xdc
 240 249 351 274 415 223 c 0
 436 206 454 181 454 145 c 0
 454 115 432 4 280 -5 c 1
 278 -13 l 1
 323 -28 343 -60 343 -92 c 0
 343 -133 314 -178 253 -195 c 0
 212 -207 172 -208 124 -208 c 2
 110 -208 l 2
 84 -208 78 -190 78 -180 c 0
EndSplineSet
EndChar

StartChar: tcaron
Encoding: 357 357 226
Width: 404
Flags: HW
TeX: 610 0
ItalicCorrection: 99
HStem: -5 61<220.772 306.512> 369 61<99.4997 214 302 416.517> 596 20<286 313>
VStem: 148 70<58.4069 181.685> 361 71<110.917 170.172> 397 111<589.979 669.461>
DStem2: 120.991 -5 192.474 -5 0.242599 0.970127<168.433 385.391 465.918 622.352>
LayerCount: 2
Fore
SplineSet
361 521 m 0xf8
 361 553 395 541 430 583 c 1
 415 588 397 600 397 626 c 0
 397 655 421 682 454 682 c 0
 487 682 508 655 508 622 c 0
 508 552 428 490 392 490 c 0xf4
 374 490 361 507 361 521 c 0xf8
EndSplineSet
Refer: 162 116 S 1 0 0 1 0 -0 3
EndChar

StartChar: tcommaaccent
Encoding: 355 355 227
Width: 404
Flags: HW
TeX: 610 194
ItalicCorrection: 99
HStem: -208 61<79.5 252.988> 369 61<98.5054 214 302 416.324> 596 20G<286 313>
VStem: 148 70<58.4299 181.567> 272 71<-126.448 -70.7787> 360 72<109.183 169.935>
LayerCount: 2
Fore
SplineSet
78 -180 m 0
 78 -150 104 -147 115 -147 c 0
 122 -147 130 -147 137 -147 c 0
 157 -147 272 -147 272 -95 c 0
 272 -82 262 -71 239 -68 c 0
 234 -67 201 -67 201 -38 c 0
 201 -31 204 -22 210 2 c 1
 160 23 148 60 148 88 c 0
 148 104 144 91 214 369 c 1
 132 369 l 2
 107 369 97 383 97 398 c 0
 97 407 101 430 134 430 c 2
 230 430 l 1
 269 587 267 616 305 616 c 0
 321 616 338 603 338 583 c 0
 338 568 320 507 302 430 c 1
 383 430 l 2
 414 430 418 411 418 402 c 0
 418 391 413 369 381 369 c 2
 286 369 l 1
 273 311 218 104 218 88 c 0
 218 67 232 57 252 57 c 0
 284 57 333 84 360 143 c 0
 370 165 375 172 398 172 c 0
 425 172 432 154 432 143 c 0
 432 121 381 20 280 -3 c 1
 278 -13 l 1
 323 -27 343 -60 343 -92 c 0
 343 -133 317 -176 253 -195 c 0
 212 -207 172 -208 124 -208 c 2
 111 -208 l 2
 85 -208 78 -190 78 -180 c 0
EndSplineSet
EndChar

StartChar: uhungarumlaut
Encoding: 369 369 228
Width: 637
Flags: HW
TeX: 610 0
ItalicCorrection: 223
HStem: -5 61<281.549 381.732 514.41 569.688> 374 62<186.949 252.377> 506 133<486.93 527.551>
VStem: 198 70<67.5876 261.313> 253 69<297.317 373.446> 519 64<345.8 427.935> 595 70<83.1115 170.473>
AnchorPoint: "below" 318 0 basechar 0
AnchorPoint: "above" 473 619 basechar 0
LayerCount: 2
Fore
SplineSet
79 288 m 0
 79 318 132 436 231 436 c 0
 282 436 322 402 322 350 c 0xee
 322 301 297 293 284 245 c 1
 279 222 268 178 268 139 c 0
 268 96 277 56 326 56 c 0
 460 56 499 382 519 413 c 0
 526 423 537 430 549 430 c 0
 568 430 583 417 583 397 c 0
 583 389 580 380 578 372 c 2
 513 110 l 2
 511 100 509 94 509 88 c 0
 509 79 512 73 517 65 c 1
 526 59 535 57 542 57 c 0
 566 57 580 87 595 143 c 0
 602 168 612 172 631 172 c 2
 632 172 l 2
 656 172 665 161 665 144 c 0xf6
 665 120 630 -5 541 -5 c 0
 522 -5 473 1 448 49 c 1
 419 21 382 -5 325 -5 c 0
 270 -5 198 23 198 139 c 0xf6
 198 196 218 268 223 281 c 0
 230 299 253 329 253 351 c 0
 253 365 243 374 229 374 c 0
 217 374 203 367 191 357 c 0
 134 306 165 259 112 259 c 0
 103 259 79 261 79 288 c 0
EndSplineSet
Refer: 52 733 S 1 0 0 1 15 0 2
EndChar

StartChar: uring
Encoding: 367 367 229
Width: 637
Flags: HW
TeX: 638 0
ItalicCorrection: 99
HStem: -5 61<268.697 381.845 514.496 570.339> 374 62<187.446 251.034> 473 35<403.292 496.606> 612 35<420.443 512.917>
VStem: 188 70<67.5126 213.782> 252 70<282.736 373.564> 339 59<511.638 594.497> 518 60<363.938 428.313 525.71 608.714> 595 70<81.8007 170.532>
LayerCount: 2
Fore
SplineSet
79 287 m 0
 79 317 132 436 231 436 c 0
 284 436 322 398 322 349 c 0xf780
 322 302 258 193 258 115 c 0xfb80
 258 80 274 56 323 56 c 0
 359 56 389 75 419 118 c 0
 465 184 478 262 513 397 c 0
 519 420 535 430 550 430 c 0
 566 430 581 419 583 400 c 0
 584 390 580 381 578 372 c 2
 513 110 l 2
 511 100 509 94 509 88 c 0
 509 79 512 73 517 65 c 1
 526 59 535 57 542 57 c 0
 566 57 580 87 595 143 c 0
 602 168 612 172 631 172 c 2
 632 172 l 2
 659 172 665 154 665 143 c 0
 665 132 635 -5 541 -5 c 0
 520 -5 471 1 447 50 c 1
 410 14 372 -5 322 -5 c 0xf780
 261 -5 188 19 188 116 c 0xfb80
 188 204 252 322 252 350 c 0
 252 365 243 374 229 374 c 0
 218 374 205 368 192 357 c 0
 135 306 164 259 114 259 c 0
 83 259 79 278 79 287 c 0
339 536 m 0
 339 568 353 647 482 647 c 0
 534 647 578 635 578 584 c 0
 578 553 564 473 435 473 c 0
 381 473 339 486 339 536 c 0
398 544 m 0
 398 516 420 508 443 508 c 0xf380
 509 508 518 556 518 576 c 0
 518 604 497 612 474 612 c 0
 409 612 398 564 398 544 c 0
EndSplineSet
EndChar

StartChar: ydieresis
Encoding: 255 255 230
Width: 579
Flags: HW
TeX: 638 222
ItalicCorrection: 84
HStem: -227 61<200.444 309.755> -87 20G<170 189> -5 61<268.947 382.725> 374 62<188.164 251.885> 511 100<288.764 364.265 493.372 569.125>
VStem: 127 92<-144.484 -77.3526> 188 70<67.5126 212.526> 252 71<283.176 373.486> 276 101<524.087 598.4> 481 101<523.681 598.628> 517 66<330.718 427.935>
AnchorPoint: "below" 190 -222 basechar 0
AnchorPoint: "above" 466 591 basechar 0
LayerCount: 2
Fore
SplineSet
79 287 m 0
 79 319 133 436 231 436 c 0
 282 436 323 402 323 350 c 0xf9
 323 303 258 195 258 115 c 0xfa
 258 80 274 56 323 56 c 0
 466 56 494 369 517 410 c 0
 523 422 537 430 550 430 c 0
 566 430 583 417 583 397 c 0
 583 389 581 381 579 374 c 2
 488 13 l 2
 483 -6 481 -19 472 -42 c 0
 430 -151 333 -227 240 -227 c 0
 176 -227 127 -189 127 -130 c 0xfd20
 127 -78 162 -67 178 -67 c 0
 200 -67 219 -83 219 -107 c 0xfd20
 219 -122 212 -134 200 -145 c 1
 208 -157 220 -166 242 -166 c 0
 278 -166 380 -138 420 28 c 1
 390 7 362 -5 321 -5 c 0
 263 -5 188 19 188 116 c 0xfa
 188 206 252 320 252 350 c 0xf9
 252 366 242 374 229 374 c 0
 217 374 201 367 188 354 c 0xfa
 135 302 162 259 114 259 c 0
 84 259 79 276 79 287 c 0
481 556 m 0xf840
 481 587 509 611 536 611 c 0
 563 611 582 591 582 566 c 0
 582 536 554 511 526 511 c 0
 501 511 481 531 481 556 c 0xf840
EndSplineSet
Refer: 403 183 S 1 0 0 1 85 342 2
EndChar

StartChar: zacute
Encoding: 378 378 231
Width: 492
Flags: HW
TeX: 610 0
ItalicCorrection: 142
HStem: -5 70<277.345 398.807> 366 70<238.535 346.688>
VStem: 142 71<280.66 340.442> 452 72<118.609 187.99>
AnchorPoint: "below" 274 0 basechar 0
AnchorPoint: "above" 429 619 basechar 0
LayerCount: 2
Fore
SplineSet
293 545 m 0
 293 562 304 570 316 575 c 0
 477 638 476 639 487 639 c 0
 504 639 520 625 520 605 c 0
 520 575 508 576 345 512 c 0
 338 509 331 506 323 506 c 0
 299 506 293 532 293 545 c 0
EndSplineSet
Refer: 168 122 S 1 0 0 1 0 0 3
EndChar

StartChar: zcaron
Encoding: 382 382 232
Width: 492
Flags: HW
TeX: 638 0
ItalicCorrection: 142
HStem: -5 70<277.345 398.807> 366 70<238.535 346.688>
VStem: 142 71<280.66 340.442> 452 72<118.609 187.99>
AnchorPoint: "below" 274 0 basechar 0
AnchorPoint: "above" 429 619 basechar 0
LayerCount: 2
Fore
SplineSet
267 609 m 0
 267 626 281 639 296 639 c 0
 312 639 322 627 393 559 c 1
 455 596 510 639 528 639 c 0
 543 639 556 626 556 610 c 0
 556 594 543 585 536 580 c 0
 401 487 401 484 387 484 c 0
 371 484 366 493 279 585 c 0
 272 593 267 599 267 609 c 0
EndSplineSet
Refer: 168 122 S 1 0 0 1 -0 0 3
EndChar

StartChar: zdotaccent
Encoding: 380 380 233
Width: 492
Flags: HW
TeX: 610 0
ItalicCorrection: 142
HStem: -5 70<277.345 398.807> 366 70<238.535 346.688> 522 89<364.48 436.561>
VStem: 142 71<280.66 340.442> 356 90<531.541 602.482> 452 72<118.609 187.99>
AnchorPoint: "below" 274 0 basechar 0
AnchorPoint: "above" 422 591 basechar 0
LayerCount: 2
Fore
SplineSet
356 563 m 0
 356 591 381 611 405 611 c 0
 425 611 446 595 446 571 c 0
 446 543 420 522 397 522 c 0
 377 522 356 539 356 563 c 0
EndSplineSet
Refer: 168 122 S 1 0 0 1 0 0 3
EndChar

StartChar: ij
Encoding: 307 307 234
Width: 667
Flags: HW
TeX: 610 222
ItalicCorrection: 99
HStem: -227 61<353.51 421.469> -5 62<229.278 294.177> 374 62<186.997 251.85 493.517 582.124> 522 89<275.058 345.889 606.057 677.824>
VStem: 159 70<58.0044 146.306> 252 70<284.338 372.061> 264 90<-165 -121.353 530.302 600.541> 327 76<91.2927 167.966> 370 71<260.672 319.813> 584 71<249.75 372.021> 597 90<531.252 601.889>
DStem2: 443.986 -227 516.236 -227 0.242599 0.970127<106.05 585.696>
LayerCount: 2
Fore
SplineSet
79 287 m 0
 79 317 132 436 231 436 c 0
 282 436 322 401 322 349 c 2
 322 344 l 2
 322 312 229 106 229 80 c 0
 229 65 238 57 252 57 c 0
 274 57 307 78 327 127 c 0
 336 149 336 172 366 172 c 2
 367 172 l 2
 398 172 403 152 403 144 c 0xfd
 403 110 349 -5 250 -5 c 0
 200 -5 159 29 159 81 c 2
 159 86 l 2
 159 119 252 325 252 350 c 0
 252 361 245 374 228 374 c 0
 211 374 200 364 186 353 c 1
 134 289 157 259 116 259 c 2
 114 259 l 2
 83 259 79 276 79 287 c 0
264 -164 m 0
 264 -133 290 -111 314 -111 c 0
 336 -111 354 -127 354 -151 c 0
 354 -157 354 -161 353 -165 c 1
 355 -165 357 -166 359 -166 c 0
 386 -166 462 -154 496 -19 c 2
 582 325 l 2
 583 330 584 336 584 342 c 0
 584 363 569 374 549 374 c 0
 504 374 462 330 441 285 c 0xfac0
 433 268 427 259 407 259 c 2
 406 259 l 2
 374 259 370 279 370 287 c 0
 370 317 442 436 551 436 c 0
 608 436 655 399 655 342 c 0
 655 322 648 302 645 290 c 2
 565 -32 l 2
 561 -49 556 -66 550 -82 c 0
 524 -148 453 -227 360 -227 c 0
 314 -227 264 -212 264 -164 c 0
266 563 m 0
 266 587 288 611 315 611 c 0
 339 611 355 591 355 571 c 0
 355 547 334 522 307 522 c 0
 282 522 266 543 266 563 c 0
597 563 m 0xf820
 597 587 619 611 646 611 c 0
 666 611 687 595 687 571 c 0
 687 544 662 522 638 522 c 0
 612 522 597 542 597 563 c 0xf820
EndSplineSet
Ligature2: "Latin Dutch ligatures subtable" i j
EndChar

StartChar: exclamdown
Encoding: 161 161 235
Width: 375
Flags: HW
TeX: 388 222
ItalicCorrection: 30
HStem: -233 21G<124 161> 289 100<233.464 309.152>
VStem: 189 82<148.71 203.49> 221 101<301.75 376.319>
DStem2: 78.2451 -233 179.246 -233 0.242599 0.970127<45.9921 444.331>
LayerCount: 2
Fore
SplineSet
90 -189 m 0
 90 -179 94 -170 96 -162 c 2
 189 174 l 2
 197 204 210 205 226 205 c 2xe0
 234 205 l 2
 260 205 271 196 271 177 c 0
 271 173 270 168 269 163 c 2
 193 -178 l 1
 193 -178 186 -233 136 -233 c 0
 112 -233 90 -216 90 -189 c 0
EndSplineSet
Refer: 92 46 S 1 0 0 1 72 289 2
EndChar

StartChar: questiondown
Encoding: 191 191 236
Width: 608
Flags: HW
TeX: 388 222
HStem: -233 61<186.199 348.753> -62 20G<434 458> 143 62<289.269 355.946> 289 100<350.464 426.152>
VStem: 103 65<-153.718 -68.2414> 338 101<301.75 376.319> 356 66<99.7457 142.649> 396 90<-135.96 -51.177>
LayerCount: 2
Fore
SplineSet
103 -113 m 0
 103 34 356 69 356 130 c 0
 356 142 349 143 341 143 c 0
 325 143 297 135 283 114 c 0
 276 103 275 83 245 83 c 0
 219 83 210 95 210 111 c 0
 210 156 271 205 345 205 c 0
 393 205 422 172 422 131 c 0xfa
 422 96 402 64 375 44 c 0
 362 34 347 28 232 -36 c 0
 175 -68 168 -99 168 -115 c 0
 169 -150 206 -172 255 -172 c 0
 336 -172 399 -126 399 -108 c 0
 399 -104 396 -100 396 -92 c 0
 396 -61 422 -42 446 -42 c 0xf9
 470 -42 486 -62 486 -82 c 0xf9
 486 -139 403 -233 254 -233 c 0
 167 -233 103 -185 103 -113 c 0
EndSplineSet
Refer: 57 729 S 1 0 0 1 47 -222 2
EndChar

StartChar: sterling
Encoding: 163 163 237
Width: 869
Flags: HW
TeX: 610 0
HStem: -5 127<144.511 288.321> -5 65<429.09 609.882> 40 76<292.5 327.373> 275 61<265.483 365 453 581.502> 557 62<550.334 682.242>
VStem: 640 72<90.9956 147.971> 678 94<425.441 493.963>
LayerCount: 2
Fore
SplineSet
112 45 m 0
 112 76 135 122 241 122 c 0x9c
 282 122 298 116 307 116 c 0
 326 116 338 156 365 275 c 1
 298 275 l 1
 274 276 264 289 264 304 c 0
 264 313 268 336 300 336 c 2
 381 336 l 1
 410 453 l 2
 440 576 555 619 625 619 c 0
 707 619 772 567 772 488 c 0
 772 427 740 414 719 414 c 0
 694 414 678 433 678 454 c 0x3a
 678 471 686 484 701 495 c 1
 693 552 642 557 624 557 c 0
 569 557 510 520 487 467 c 0
 482 455 479 441 453 336 c 1
 547 336 l 2
 573 336 583 322 583 308 c 0
 583 298 580 275 548 275 c 2
 437 275 l 1
 437 274 l 1
 399 99 383 96 383 96 c 1
 397 92 483 60 543 60 c 0
 593 60 627 90 640 119 c 0x5c
 642 123 646 147 669 150 c 1
 678 150 l 2x5a
 698 150 712 142 712 122 c 0x9c
 712 77 644 -5 538 -5 c 0x5c
 452 -5 352 40 336 40 c 0x3c
 319 40 283 -3 198 -5 c 1
 189 -5 l 2
 125 -5 112 25 112 45 c 0
EndSplineSet
EndChar

StartChar: Agrave
Encoding: 192 192 238
Width: 841
Flags: HW
TeX: 778 0
HStem: 0 62<91.383 194.812 258 329.566 526.452 614 688 764.64> 171 61<362 595> 603 20<549.5 612> 686 71<606.935 683.96>
DStem2: 190 72 258 62 0.519947 0.854199<26.8144 167.66 226.103 606.448> 632 581 560 558 0.107277 -0.994229<15.1433 343.017 404.416 514.074>
AnchorPoint: "below" 420 0 basechar 0
AnchorPoint: "above" 620 786 basechar 0
LayerCount: 2
Fore
SplineSet
485 770 m 0
 485 790 503 807 521 807 c 0
 531 807 545 801 663 757 c 0
 677 752 690 745 690 727 c 0
 690 714 676 686 655 686 c 2
 654 686 l 2
 649 686 644 688 515 736 c 0
 502 741 485 750 485 770 c 0
EndSplineSet
Refer: 111 65 S 1 0 0 1 -0 0 3
AlternateSubs2: "Stilistic set 01 subtable" Agrave.vn
AlternateSubs2: "Latin alternatives subtable" Agrave.vn
Substitution2: "Latin Vietnamese substitutions subtable" Agrave.vn
EndChar

StartChar: Aacute
Encoding: 193 193 239
Width: 841
Flags: HW
TeX: 778 0
HStem: 0 62<91.383 194.812 258 329.566 526.452 614 688 764.64> 171 61<362 595> 603 20<549.5 612>
DStem2: 190 72 258 62 0.519947 0.854199<26.8144 167.66 226.103 606.448> 632 581 560 558 0.107277 -0.994229<15.1433 343.017 404.416 514.074>
AnchorPoint: "below" 420 0 basechar 0
AnchorPoint: "above" 620 786 basechar 0
LayerCount: 2
Fore
SplineSet
485 725 m 0
 485 754 500 753 660 803 c 0
 667 805 674 807 681 807 c 0
 701 807 713 792 713 774 c 0
 713 749 691 740 678 736 c 0
 531 690 521 686 514 686 c 0
 504 686 485 692 485 725 c 0
EndSplineSet
Refer: 111 65 S 1 0 0 1 0 0 3
AlternateSubs2: "Stilistic set 01 subtable" Aacute.vn
AlternateSubs2: "Latin alternatives subtable" Aacute.vn
Substitution2: "Latin Vietnamese substitutions subtable" Aacute.vn
EndChar

StartChar: Acircumflex
Encoding: 194 194 240
Width: 841
Flags: HW
TeX: 819 0
HStem: -0 62<91.383 194.812 258 329.566 526.452 614 688 764.64> 171 61<362 595> 603 20<549.5 612>
DStem2: 190 72 258 62 0.519947 0.854199<26.8144 167.66 226.103 606.448> 632 581 560 558 0.107277 -0.994229<15.1433 343.017 404.416 514.074>
AnchorPoint: "below" 420 0 basechar 0
AnchorPoint: "above" 624 803 basechar 0
LayerCount: 2
Fore
SplineSet
418 698 m 0
 418 715 433 723 441 728 c 0
 595 823 595 824 606 824 c 0
 619 824 627 815 639 805 c 0
 738 717 744 715 744 697 c 0
 744 680 723 659 706 659 c 0
 691 659 691 661 600 751 c 1
 463 661 463 659 451 659 c 0
 430 659 418 683 418 698 c 0
EndSplineSet
Refer: 111 65 S 1 0 0 1 -0 -0 3
AlternateSubs2: "Stilistic set 01 subtable" Acircumflex.vn
AlternateSubs2: "Latin alternatives subtable" Acircumflex.vn
Substitution2: "Latin Vietnamese substitutions subtable" Acircumflex.vn
EndChar

StartChar: Atilde
Encoding: 195 195 241
Width: 841
Flags: HW
TeX: 819 0
HStem: -0 62<91.383 194.812 258 329.566 526.452 614 688 764.64> 171 61<362 595> 603 20<549.5 612> 690 67<634.626 729.439> 753 66<490.472 584.238>
DStem2: 190 72 258 62 0.519947 0.854199<26.8144 167.66 226.103 606.448> 632 581 560 558 0.107277 -0.994229<15.1433 343.017 404.416 514.074>
AnchorPoint: "below" 420 0 basechar 0
AnchorPoint: "above" 623 798 basechar 0
LayerCount: 2
Fore
SplineSet
398 722 m 0
 398 735 405 741 418 753 c 0
 448 780 494 819 545 819 c 0xe8
 613 819 637 757 678 757 c 0xf0
 724 757 766 819 790 819 c 0xe8
 802 819 821 807 821 788 c 0
 821 776 815 769 802 757 c 0
 777 734 724 690 673 690 c 0xf0
 608 690 580 753 541 753 c 0xe8
 497 753 453 691 429 691 c 0
 412 691 398 707 398 722 c 0
EndSplineSet
Refer: 111 65 S 1 0 0 1 -0 -0 3
AlternateSubs2: "Stilistic set 01 subtable" Atilde.vn
AlternateSubs2: "Latin alternatives subtable" Atilde.vn
Substitution2: "Latin Vietnamese substitutions subtable" Atilde.vn
EndChar

StartChar: Adieresis
Encoding: 196 196 242
Width: 841
Flags: HW
TeX: 819 0
HStem: 0 62<91.383 194.812 258 329.566 526.452 614 688 764.64> 171 61<362 595> 603 20<549.5 612> 719 100<472.764 548.265 676.868 752.642>
VStem: 460 101<732.087 806.4> 664 101<730.989 806.472>
DStem2: 190 72 258 62 0.519947 0.854199<26.8144 167.66 226.103 606.448> 632 581 560 558 0.107277 -0.994229<15.1433 343.017 404.416 514.074>
AnchorPoint: "below" 420 0 basechar 0
AnchorPoint: "above" 623 798 basechar 0
LayerCount: 2
Fore
SplineSet
664 764 m 0
 664 797 695 819 720 819 c 0
 747 819 765 799 765 774 c 0
 765 746 741 719 710 719 c 0
 683 719 664 740 664 764 c 0
EndSplineSet
Refer: 403 183 S 1 0 0 1 269 550 2
Refer: 111 65 S 1 0 0 1 0 0 3
EndChar

StartChar: Aring
Encoding: 197 197 243
Width: 841
Flags: HW
TeX: 778 0
HStem: 0 62<91.4257 193.998 258 329.318 526.452 614 688 764.64> 171 61<362 595> 766 61<551.298 633.624>
VStem: 459 60<630.682 731.979> 641 61<657.181 760.248>
DStem2: 194 78 258 62 0.519023 0.85476<19.5413 160.363 218.829 587.995> 631 594 560 558 0.106533 -0.994309<28.2313 356.105 417.503 527.161>
LayerCount: 2
Fore
SplineSet
90 29 m 0
 90 59 116 62 126 62 c 2
 172 62 l 1
 185 63 186 65 194 78 c 2
 497 577 l 1
 484 586 459 609 459 658 c 0
 459 744 538 827 614 827 c 0
 667 827 702 786 702 731 c 0
 702 676 670 624 631 594 c 1
 688 62 l 1
 726 62 l 2
 742 62 766 61 766 33 c 0
 766 17 759 0 729 0 c 2
 561 0 l 2
 530 0 525 19 525 29 c 0
 525 60 550 62 563 62 c 0
 580 62 597 62 614 62 c 1
 602 171 l 1
 333 171 l 2
 322 171 322 168 258 62 c 1
 295 62 l 2
 306 62 331 61 331 33 c 0
 331 17 323 0 293 0 c 2
 127 0 l 2
 96 0 90 17 90 29 c 0
362 232 m 1
 595 232 l 1
 560 558 l 1
 362 232 l 1
519 674 m 0
 519 644 537 624 563 624 c 0
 600 624 641 668 641 715 c 0
 641 745 624 766 598 766 c 0
 560 766 519 720 519 674 c 0
EndSplineSet
EndChar

StartChar: AE
Encoding: 198 198 244
Width: 1016
Flags: HW
TeX: 610 0
ItalicCorrection: 123
HStem: -0 62<94.4201 188 265 332.248 448.524 524 596 893.796> 182 62<390 554> 286 62<668 796> 549 62<475.712 524 600 646 718 981>
VStem: 966 94<489.062 546.685>
DStem2: 188 62 265 62 0.567891 0.823104<43.7276 189.067 264.519 591.663> 508.496 -0 580.496 -0 0.242599 0.970127<81.3763 187.602 252.602 312.27 376.3 565.958>
AnchorPoint: "below" 514 0 basechar 0
AnchorPoint: "above" 700 622 basechar 0
LayerCount: 2
Fore
SplineSet
93 29 m 0
 93 60 117 62 131 62 c 2
 188 62 l 1
 524 549 l 1
 519 549 514 549 509 549 c 0
 479 549 474 569 474 578 c 0
 474 588 478 611 511 611 c 2
 1023 611 l 2
 1055 611 1060 594 1060 583 c 0
 1060 572 1036 476 1033 471 c 0
 1027 460 1013 454 1000 454 c 0
 976 454 966 471 966 482 c 0
 966 488 968 499 981 549 c 1
 718 549 l 1
 668 348 l 1
 811 348 l 1
 817 354 811 403 853 404 c 0
 883 404 889 387 889 375 c 0
 889 370 890 374 861 259 c 0
 858 248 854 229 827 229 c 2
 825 229 l 2
 801 229 791 241 791 259 c 0
 791 267 792 270 796 286 c 1
 652 286 l 1
 652 285 l 1
 596 62 l 1
 889 62 l 1
 911 159 912 172 943 172 c 2
 945 172 l 2
 973 172 979 155 979 144 c 0
 979 134 975 122 954 37 c 0
 947 8 942 0 915 -0 c 2
 482 -0 l 2
 450 0 447 21 447 29 c 0
 447 55 465 62 487 62 c 2
 524 62 l 1
 554 182 l 1
 347 182 l 1
 265 62 l 1
 296 62 l 2
 308 62 334 61 334 33 c 0
 334 23 330 0 297 -0 c 2
 127 -0 l 2
 119 0 93 1 93 29 c 0
390 244 m 1
 570 244 l 1
 570 245 l 1
 646 549 l 1
 600 549 l 1
 390 244 l 1
EndSplineSet
EndChar

StartChar: Ccedilla
Encoding: 199 199 245
Width: 841
Flags: HW
TeX: 610 194
ItalicCorrection: 123
HStem: -208 61<283.532 455.971> 560 62<485.971 708.779>
VStem: 168 70<154.951 341.04> 476 70<-126.583 -70.2796> 713 71<135.897 200.238> 778 71<402.018 504.377>
AnchorPoint: "above" 598 622 basechar 0
LayerCount: 2
Fore
SplineSet
168 243 m 0xf8
 168 438 375 622 599 622 c 2
 600 622 l 2
 660 622 739 610 796 560 c 1
 797 560 l 1
 832 608 839 622 859 622 c 0
 876 622 889 610 889 594 c 0
 889 586 890 593 849 429 c 0
 846 418 841 400 814 400 c 2
 813 400 l 2
 801 400 778 401 778 432 c 2
 778 444 l 2xf4
 778 514 706 560 603 560 c 0
 421 560 238 407 238 243 c 0
 238 127 332 50 465 50 c 0
 566 50 684 86 713 173 c 0
 715 180 719 202 747 202 c 2
 749 202 l 2
 779 202 784 184 784 174 c 0
 784 138 729 12 508 -9 c 0
 498 -10 488 -10 478 -11 c 1
 511 -21 546 -47 546 -92 c 0
 546 -133 520 -175 460 -194 c 0
 417 -207 375 -208 325 -208 c 2
 314 -208 l 2
 288 -208 282 -190 282 -180 c 0
 282 -170 285 -147 318 -147 c 2
 335 -147 l 2
 355 -147 476 -149 476 -94 c 0
 476 -80 462 -69 439 -67 c 0
 438 -67 405 -67 405 -38 c 0
 405 -26 409 -16 414 -9 c 1
 282 4 168 96 168 243 c 0xf8
EndSplineSet
EndChar

StartChar: Egrave
Encoding: 200 200 246
Width: 783
Flags: HW
TeX: 778 0
ItalicCorrection: 123
HStem: 0 62<96.6418 196 268 661.812> 286 62<339 520> 549 62<233.562 318 389 749> 686 71<606.935 683.96>
VStem: 735 93<483 582>
DStem2: 180.496 0 252.496 0 0.242599 0.970127<81.3763 312.27 376.057 565.958>
AnchorPoint: "below" 399 0 basechar 0
AnchorPoint: "above" 599 798 basechar 0
LayerCount: 2
Fore
SplineSet
485 770 m 0
 485 790 503 807 521 807 c 0
 531 807 545 801 663 757 c 0
 677 752 690 745 690 727 c 0
 690 714 676 686 655 686 c 2
 654 686 l 2
 649 686 643 688 514 736 c 0
 501 741 485 750 485 770 c 0
EndSplineSet
Refer: 115 69 S 1 0 0 1 -0 0 3
AlternateSubs2: "Stilistic set 01 subtable" Egrave.vn
AlternateSubs2: "Latin alternatives subtable" Egrave.vn
Substitution2: "Latin Vietnamese substitutions subtable" Egrave.vn
EndChar

StartChar: Eacute
Encoding: 201 201 247
Width: 783
Flags: HW
TeX: 778 0
ItalicCorrection: 123
HStem: 0 62<96.6418 196 268 661.812> 286 62<339 520> 549 62<233.562 318 389 749>
VStem: 735 93<483 582>
DStem2: 180.496 0 252.496 0 0.242599 0.970127<81.3763 312.27 376.057 565.958>
AnchorPoint: "below" 399 0 basechar 0
AnchorPoint: "above" 599 798 basechar 0
LayerCount: 2
Fore
SplineSet
499 725 m 0
 499 754 514 753 674 803 c 0
 681 805 688 807 695 807 c 0
 715 807 728 792 728 774 c 0
 728 749 706 740 693 736 c 0
 546 690 536 686 529 686 c 0
 519 686 499 692 499 725 c 0
EndSplineSet
Refer: 115 69 S 1 0 0 1 -0 0 3
AlternateSubs2: "Stilistic set 01 subtable" Eacute.vn
AlternateSubs2: "Latin alternatives subtable" Eacute.vn
Substitution2: "Latin Vietnamese substitutions subtable" Eacute.vn
EndChar

StartChar: Ecircumflex
Encoding: 202 202 248
Width: 783
Flags: HW
TeX: 819 0
ItalicCorrection: 123
HStem: -0 62<96.6418 196 268 661.812> 286 62<339 520> 549 62<233.562 318 389 749>
VStem: 735 93<483 582>
DStem2: 180.496 -0 252.496 -0 0.242599 0.970127<81.3763 312.27 376.057 565.958>
AnchorPoint: "below" 399 0 basechar 0
AnchorPoint: "above" 603 815 basechar 0
LayerCount: 2
Fore
SplineSet
403 698 m 0
 403 714 418 723 426 728 c 0
 580 823 579 824 591 824 c 2
 592 824 l 2
 605 824 603 823 711 726 c 0
 717 720 729 712 729 697 c 0
 729 680 707 659 690 659 c 0
 674 659 672 665 585 751 c 1
 448 661 448 659 436 659 c 0
 415 659 403 683 403 698 c 0
EndSplineSet
Refer: 115 69 S 1 0 0 1 -0 -0 3
AlternateSubs2: "Stilistic set 01 subtable" Ecircumflex.vn
AlternateSubs2: "Latin alternatives subtable" Ecircumflex.vn
Substitution2: "Latin Vietnamese substitutions subtable" Ecircumflex.vn
EndChar

StartChar: Edieresis
Encoding: 203 203 249
Width: 783
Flags: HW
TeX: 819 0
ItalicCorrection: 123
HStem: 0 62<96.6418 196 268 661.812> 286 62<339 520> 549 62<233.562 318 389 749> 719 100<443.764 519.152 647.868 723.236>
VStem: 431 101<731.75 806.536> 635 101<731.464 806.472> 735 93<483 582>
DStem2: 180.496 0 252.496 0 0.242599 0.970127<81.3763 312.27 376.057 565.958>
AnchorPoint: "below" 399 0 basechar 0
AnchorPoint: "above" 602 810 basechar 0
LayerCount: 2
Fore
SplineSet
431 764 m 0
 431 792 456 819 487 819 c 0
 514 819 532 799 532 774 c 0
 532 744 504 719 476 719 c 0
 451 719 431 738 431 764 c 0
635 764 m 0xfc
 635 797 666 819 691 819 c 0
 718 819 736 799 736 774 c 0
 736 746 711 719 680 719 c 0
 653 719 635 740 635 764 c 0xfc
EndSplineSet
Refer: 115 69 S 1 0 0 1 -0 0 3
EndChar

StartChar: Igrave
Encoding: 204 204 250
Width: 433
Flags: HW
TeX: 778 0
ItalicCorrection: 138
HStem: 0 62<91.6724 196 267 356.346> 549 62<228.876 317 389 493.341> 686 71<416.935 493.96>
DStem2: 180.496 0 251.496 0 0.242599 0.970127<81.1337 565.715>
AnchorPoint: "below" 215 0 basechar 0
AnchorPoint: "above" 415 798 basechar 0
LayerCount: 2
Fore
SplineSet
295 770 m 0
 295 790 313 807 331 807 c 0
 341 807 355 801 473 757 c 0
 487 752 500 745 500 727 c 0
 500 714 486 686 465 686 c 2
 464 686 l 2
 459 686 453 688 324 736 c 0
 311 741 295 750 295 770 c 0
EndSplineSet
Refer: 119 73 S 1 0 0 1 -0 0 3
AlternateSubs2: "Stilistic set 01 subtable" Igrave.vn
AlternateSubs2: "Latin alternatives subtable" Igrave.vn
Substitution2: "Latin Vietnamese substitutions subtable" Igrave.vn
EndChar

StartChar: Iacute
Encoding: 205 205 251
Width: 433
Flags: HW
TeX: 778 0
ItalicCorrection: 138
HStem: 0 62<91.6724 196 267 356.346> 549 62<228.876 317 389 493.341> 736 71<404.5 500.923>
DStem2: 180.496 0 251.496 0 0.242599 0.970127<81.1337 565.715>
AnchorPoint: "below" 215 0 basechar 0
AnchorPoint: "above" 415 798 basechar 0
LayerCount: 2
Fore
SplineSet
276 725 m 0
 276 754 292 753 452 803 c 0
 459 805 465 807 472 807 c 0
 492 807 505 792 505 774 c 0
 505 749 483 740 470 736 c 0
 323 690 313 686 306 686 c 0
 296 686 276 692 276 725 c 0
EndSplineSet
Refer: 119 73 S 1 0 0 1 0 0 3
AlternateSubs2: "Stilistic set 01 subtable" Iacute.vn
AlternateSubs2: "Latin alternatives subtable" Iacute.vn
Substitution2: "Latin Vietnamese substitutions subtable" Iacute.vn
EndChar

StartChar: Icircumflex
Encoding: 206 206 252
Width: 433
Flags: HW
TeX: 819 0
ItalicCorrection: 138
HStem: 0 62<91.6724 196 267 356.346> 549 62<228.876 317 389 493.341>
DStem2: 180.496 0 251.496 0 0.242599 0.970127<81.1337 565.715>
AnchorPoint: "below" 215 0 basechar 0
AnchorPoint: "above" 419 815 basechar 0
LayerCount: 2
Fore
SplineSet
227 698 m 0
 227 716 248 726 251 728 c 0
 405 823 404 824 415 824 c 2
 416 824 l 2
 429 824 428 823 536 726 c 0
 548 715 553 709 553 697 c 0
 553 680 532 659 515 659 c 0
 499 659 495 667 409 751 c 1
 272 661 273 659 261 659 c 0
 241 659 227 682 227 698 c 0
EndSplineSet
Refer: 119 73 S 1 0 0 1 0 0 3
EndChar

StartChar: Idieresis
Encoding: 207 207 253
Width: 433
Flags: HW
TeX: 819 0
ItalicCorrection: 138
HStem: 0 62<91.6724 196 267 356.346> 549 62<228.876 317 389 493.341> 719 100<267.764 343.265 471.5 548.152>
VStem: 255 101<732.087 806.4> 459 102<731.735 805.798>
DStem2: 180.496 0 251.496 0 0.242599 0.970127<81.1337 565.715>
AnchorPoint: "below" 215 0 basechar 0
AnchorPoint: "above" 418 810 basechar 0
LayerCount: 2
Fore
SplineSet
459 764 m 0
 459 795 488 819 515 819 c 0
 539 819 561 801 561 774 c 0
 561 744 533 719 505 719 c 0
 477 719 459 740 459 764 c 0
EndSplineSet
Refer: 403 183 S 1 0 0 1 64 550 2
Refer: 119 73 S 1 0 0 1 0 0 3
EndChar

StartChar: Eth
Encoding: 208 208 254
Width: 871
Flags: HW
TeX: 610 0
ItalicCorrection: 77
HStem: -0 62<95.8453 196 267 559.595> 269 62<163.642 247 335 550.346> 549 62<233.672 317 389 672.911>
VStem: 781 73<261.89 445.406>
DStem2: 180.496 -0 251.496 -0 0.242599 0.970127<81.1337 277.098 358.595 565.715>
LayerCount: 2
Fore
SplineSet
94 29 m 0
 94 39 99 62 129 62 c 2
 196 62 l 1
 247 269 l 1
 198 269 l 2
 185 269 162 271 162 298 c 0
 162 307 165 330 196 331 c 1
 263 331 l 1
 317 549 l 1
 268 549 l 2
 256 549 232 551 232 578 c 0
 232 587 235 611 267 611 c 2
 589 611 l 2
 643 611 690 605 742 575 c 0
 778 554 854 494 854 373 c 0
 854 187 667 0 443 -0 c 2
 129 -0 l 2
 99 0 94 18 94 29 c 0
267 62 m 1
 441 62 l 2
 633 62 781 213 781 356 c 0
 781 433 735 549 558 549 c 2
 389 549 l 1
 335 331 l 1
 510 331 l 2
 524 331 552 330 552 302 c 0
 552 290 547 269 516 269 c 2
 319 269 l 1
 267 62 l 1
EndSplineSet
EndChar

StartChar: Ntilde
Encoding: 209 209 255
Width: 841
Flags: HW
TeX: 819 0
ItalicCorrection: 136
HStem: -0 62<102.642 202 260 344.324> 549 62<239.654 324 647.562 732 784.764 890.271> 690 67<633.643 728.608> 753 66<489.472 583.946>
DStem2: 186.496 -0 244.496 -0 0.242599 0.970127<77.9799 565.958> 436 577 385 560 0.30896 -0.951075<0.411326 553.05> 595.246 -0 653.248 -0 0.242599 0.970127<52.5705 565.776>
LayerCount: 2
Fore
SplineSet
397 722 m 0
 397 735 404 741 417 753 c 0
 447 780 493 819 544 819 c 0xd0
 609 819 638 757 677 757 c 0xe0
 723 757 766 819 790 819 c 0xd0
 802 819 820 807 820 788 c 0
 820 776 814 769 801 757 c 0
 776 734 723 690 672 690 c 0xe0
 607 690 579 753 540 753 c 0xd0
 496 753 452 691 428 691 c 0
 411 691 397 707 397 722 c 0
EndSplineSet
Refer: 124 78 S 1 0 0 1 -0 -0 3
EndChar

StartChar: Ograve
Encoding: 210 210 256
Width: 900
Flags: HW
TeX: 778 0
ItalicCorrection: 77
HStem: -11 61<359.631 572.257> 560 62<478.512 697.528> 686 71<664.935 741.96>
VStem: 167 74<163.476 345.051> 814 70<273.897 453.949>
AnchorPoint: "below" 449 0 basechar 0
AnchorPoint: "above" 646 787 basechar 0
LayerCount: 2
Fore
SplineSet
543 770 m 0
 543 790 561 807 579 807 c 0
 589 807 603 801 721 757 c 0
 735 752 748 745 748 727 c 0
 748 714 734 686 713 686 c 2
 712 686 l 2
 707 686 701 688 572 736 c 0
 559 741 543 750 543 770 c 0
EndSplineSet
Refer: 125 79 S 1 0 0 1 -0 0 3
AlternateSubs2: "Stilistic set 01 subtable" Ograve.vn
AlternateSubs2: "Latin alternatives subtable" Ograve.vn
Substitution2: "Latin Vietnamese substitutions subtable" Ograve.vn
EndChar

StartChar: Oacute
Encoding: 211 211 257
Width: 900
Flags: HW
TeX: 778 0
ItalicCorrection: 77
HStem: -11 61<359.631 572.257> 560 62<478.512 697.528>
VStem: 167 74<163.476 345.051> 814 70<273.897 453.949>
AnchorPoint: "below" 449 0 basechar 0
AnchorPoint: "above" 646 787 basechar 0
LayerCount: 2
Fore
SplineSet
513 725 m 0
 513 754 528 753 688 803 c 0
 695 805 702 807 709 807 c 0
 729 807 742 792 742 774 c 0
 742 749 720 740 707 736 c 0
 560 690 549 686 542 686 c 0
 532 686 513 692 513 725 c 0
EndSplineSet
Refer: 125 79 S 1 0 0 1 0 0 3
AlternateSubs2: "Stilistic set 01 subtable" Oacute.vn
AlternateSubs2: "Latin alternatives subtable" Oacute.vn
Substitution2: "Latin Vietnamese substitutions subtable" Oacute.vn
EndChar

StartChar: Ocircumflex
Encoding: 212 212 258
Width: 900
Flags: HW
TeX: 819 0
ItalicCorrection: 77
HStem: -11 61<359.631 572.257> 560 62<478.512 697.528>
VStem: 167 74<163.476 345.051> 814 70<273.897 453.949>
AnchorPoint: "below" 449 0 basechar 0
AnchorPoint: "above" 651 804 basechar 0
LayerCount: 2
Fore
SplineSet
460 698 m 0
 460 715 476 723 484 728 c 0
 638 823 637 824 648 824 c 2
 649 824 l 2
 662 824 661 823 769 726 c 0
 781 715 786 709 786 697 c 0
 786 680 765 659 748 659 c 0
 732 659 728 667 642 751 c 1
 505 661 506 659 494 659 c 0
 474 659 460 682 460 698 c 0
EndSplineSet
Refer: 125 79 S 1 0 0 1 -0 -0 3
AlternateSubs2: "Stilistic set 01 subtable" Ocircumflex.vn
AlternateSubs2: "Latin alternatives subtable" Ocircumflex.vn
Substitution2: "Latin Vietnamese substitutions subtable" Ocircumflex.vn
EndChar

StartChar: Otilde
Encoding: 213 213 259
Width: 900
Flags: HW
TeX: 819 0
ItalicCorrection: 77
HStem: -11 61<359.631 572.257> 560 62<478.512 697.528> 690 67<662.124 757.95> 753 66<518.865 613.876>
VStem: 167 74<163.476 345.051> 814 70<273.897 453.949>
AnchorPoint: "below" 449 0 basechar 0
AnchorPoint: "above" 649 799 basechar 0
LayerCount: 2
Fore
SplineSet
426 722 m 0
 426 735 434 742 447 754 c 0
 499 801 538 819 574 819 c 0xdc
 639 819 667 757 706 757 c 0xec
 752 757 795 819 819 819 c 0xdc
 831 819 849 807 849 788 c 0
 849 776 843 769 830 757 c 0
 805 734 753 690 702 690 c 0xec
 637 690 609 753 570 753 c 0xdc
 526 753 481 691 457 691 c 0
 440 691 426 707 426 722 c 0
EndSplineSet
Refer: 125 79 S 1 0 0 1 0 -0 3
AlternateSubs2: "Stilistic set 01 subtable" Otilde.vn
AlternateSubs2: "Latin alternatives subtable" Otilde.vn
Substitution2: "Latin Vietnamese substitutions subtable" Otilde.vn
EndChar

StartChar: Odieresis
Encoding: 214 214 260
Width: 900
Flags: HW
TeX: 819 0
ItalicCorrection: 77
HStem: -11 61<359.631 572.257> 560 62<478.512 697.528> 719 100<501.764 577.236 705.875 781.536>
VStem: 167 74<163.476 345.051> 489 101<731.464 806.536> 693 101<731.681 805.798> 814 70<273.897 453.949>
AnchorPoint: "below" 449 0 basechar 0
AnchorPoint: "above" 649 799 basechar 0
LayerCount: 2
Fore
SplineSet
489 764 m 0
 489 792 514 819 545 819 c 0
 572 819 590 799 590 774 c 0
 590 746 565 719 534 719 c 0
 509 719 489 738 489 764 c 0
693 764 m 0
 693 795 722 819 749 819 c 0
 773 819 794 801 794 774 c 0
 794 744 767 719 739 719 c 0
 712 719 693 739 693 764 c 0
EndSplineSet
Refer: 125 79 S 1 0 0 1 -0 -0 3
EndChar

StartChar: OE
Encoding: 338 338 261
Width: 1133
Flags: HW
TeX: 610 0
ItalicCorrection: 123
HStem: -11 61<359.876 553.945> -0 62<652 1010.81> 286 62<724 927> 549 62<774 1098> 560 62<475.351 673.594>
VStem: 167 74<163.641 341.523> 1083 94<490.948 547.189>
DStem2: 561.987 -11 633.745 -11 0.242599 0.970127<94.2133 323.55 387.58 525.075>
AnchorPoint: "above" 756 622 basechar 0
LayerCount: 2
Fore
SplineSet
167 236 m 0
 167 429 376 622 605 622 c 0xae
 662 622 693 611 768 611 c 2
 1137 611 l 2
 1143 611 1177 610 1177 583 c 0
 1177 572 1152 476 1149 471 c 0
 1143 460 1130 454 1117 454 c 0
 1098 454 1083 466 1083 483 c 0
 1083 494 1088 510 1098 549 c 1
 774 549 l 1
 724 348 l 1
 943 348 l 1
 949 354 942 403 984 404 c 1
 985 404 l 2
 1011 404 1020 391 1020 375 c 0
 1020 370 1019 363 993 259 c 0
 990 248 985 229 958 229 c 2
 957 229 l 2
 933 229 922 241 922 259 c 0
 922 267 923 270 927 286 c 1
 708 286 l 1
 708 285 l 1
 652 62 l 1
 1006 62 l 1x76
 1028 158 1030 172 1059 172 c 0
 1060 172 1061 172 1062 172 c 0
 1091 172 1097 155 1097 143 c 0
 1097 137 1068 24 1064 15 c 0
 1057 1 1042 0 1031 -0 c 2
 593 -0 l 1x76
 543 -1 496 -11 446 -11 c 0
 286 -11 167 88 167 236 c 0
241 256 m 0
 241 144 319 50 467 50 c 0
 534 50 580 60 608 173 c 2
 673 433 l 2
 676 446 684 474 684 501 c 0
 684 547 661 560 596 560 c 0xae
 393 560 241 406 241 256 c 0
EndSplineSet
EndChar

StartChar: Oslash
Encoding: 216 216 262
Width: 900
Flags: HW
TeX: 666 55
ItalicCorrection: 77
HStem: -85 21G<170.5 184.5> -11 61<349.497 576.44> 560 62<478.51 703.939>
VStem: 167 59<162.419 344.412> 825 59<265.323 448.077>
DStem2: 244 59 210 -65 0.695363 0.718658<-148.821 0 80.3162 665.472 745.788 894.642>
LayerCount: 2
Fore
SplineSet
146 -54 m 0
 146 -38 149 -38 244 59 c 1
 192 106 167 169 167 236 c 0
 167 431 379 622 605 622 c 0
 657 622 710 612 756 587 c 1
 860 695 859 696 874 696 c 0
 890 696 905 681 905 665 c 0
 905 650 901 649 807 552 c 1
 823 537 884 481 884 375 c 0
 884 177 670 -11 446 -11 c 0
 400 -11 349 -3 295 24 c 1
 287 15 278 5 210 -65 c 0
 202 -73 192 -85 177 -85 c 0
 164 -85 146 -72 146 -54 c 0
226 254 m 0
 226 195 247 146 291 108 c 1
 707 537 l 1
 685 546 649 560 590 560 c 0
 397 560 226 404 226 254 c 0
344 74 m 1
 366 65 404 50 463 50 c 0
 648 50 825 201 825 359 c 0
 825 426 794 473 760 503 c 1
 344 74 l 1
EndSplineSet
EndChar

StartChar: Ugrave
Encoding: 217 217 263
Width: 841
Flags: HW
TeX: 778 0
ItalicCorrection: 136
HStem: -11 62<345.694 517.131> 549 62<233.313 317 384.095 489.129 641.313 725 797 897.314> 686 71<635.842 712.96>
VStem: 227 70<97.035 260.204>
DStem2: 177.483 -11 249.234 -11 0.242599 0.970127<198.749 577.118> 585.233 -11 657.484 -11 0.242599 0.970127<143.224 577.178>
AnchorPoint: "below" 428 0 basechar 0
AnchorPoint: "above" 619 798 basechar 0
LayerCount: 2
Fore
SplineSet
513 770 m 0
 513 790 531 807 549 807 c 0
 559 807 574 801 692 757 c 0
 706 752 719 745 719 727 c 0
 719 714 705 686 684 686 c 2
 683 686 l 2
 678 686 672 688 543 736 c 0
 530 741 513 750 513 770 c 0
EndSplineSet
Refer: 131 85 S 1 0 0 1 -0 0 3
AlternateSubs2: "Stilistic set 01 subtable" Ugrave.vn
AlternateSubs2: "Latin alternatives subtable" Ugrave.vn
Substitution2: "Latin Vietnamese substitutions subtable" Ugrave.vn
EndChar

StartChar: Uacute
Encoding: 218 218 264
Width: 841
Flags: HW
TeX: 778 0
ItalicCorrection: 136
HStem: -11 62<345.694 517.131> 549 62<233.313 317 384.095 489.129 641.313 725 797 897.314>
VStem: 227 70<97.035 260.204>
DStem2: 177.483 -11 249.234 -11 0.242599 0.970127<198.749 577.118> 585.233 -11 657.484 -11 0.242599 0.970127<143.224 577.178>
AnchorPoint: "below" 428 0 basechar 0
AnchorPoint: "above" 619 798 basechar 0
LayerCount: 2
Fore
SplineSet
528 725 m 0
 528 754 543 753 703 803 c 0
 710 805 717 807 724 807 c 0
 744 807 757 792 757 774 c 0
 757 749 735 740 722 736 c 0
 575 690 564 686 557 686 c 0
 547 686 528 692 528 725 c 0
EndSplineSet
Refer: 131 85 S 1 0 0 1 -0 0 3
AlternateSubs2: "Stilistic set 01 subtable" Uacute.vn
AlternateSubs2: "Latin alternatives subtable" Uacute.vn
Substitution2: "Latin Vietnamese substitutions subtable" Uacute.vn
EndChar

StartChar: Ucircumflex
Encoding: 219 219 265
Width: 841
Flags: HW
TeX: 819 0
ItalicCorrection: 136
HStem: -11 62<345.694 517.131> 549 62<233.313 317 384.095 489.129 641.313 725 797 897.314>
VStem: 227 70<97.035 260.204>
DStem2: 177.483 -11 249.234 -11 0.242599 0.970127<198.749 577.118> 585.233 -11 657.484 -11 0.242599 0.970127<143.224 577.178>
AnchorPoint: "below" 428 0 basechar 0
AnchorPoint: "above" 623 815 basechar 0
LayerCount: 2
Fore
SplineSet
432 698 m 0
 432 714 447 723 455 728 c 0
 609 823 607 824 619 824 c 0
 632 824 641 814 652 805 c 0
 750 718 758 715 758 697 c 0
 758 680 736 659 719 659 c 0
 703 659 701 665 614 751 c 1
 477 661 477 659 465 659 c 0
 444 659 432 683 432 698 c 0
EndSplineSet
Refer: 131 85 S 1 0 0 1 0 -0 3
EndChar

StartChar: Udieresis
Encoding: 220 220 266
Width: 841
Flags: HW
TeX: 819 0
ItalicCorrection: 136
HStem: -11 62<345.694 517.131> 549 62<233.313 317 384.095 489.129 641.313 725 797 897.314> 719 100<471.764 547.265 676.868 752.152>
VStem: 227 70<97.035 260.204> 459 101<732.087 806.4> 664 101<732.098 806.472>
DStem2: 177.483 -11 249.234 -11 0.242599 0.970127<198.749 577.118> 585.233 -11 657.484 -11 0.242599 0.970127<143.224 577.178>
AnchorPoint: "below" 428 0 basechar 0
AnchorPoint: "above" 622 810 basechar 0
LayerCount: 2
Fore
SplineSet
664 764 m 0
 664 797 695 819 720 819 c 0
 747 819 765 799 765 774 c 0
 765 744 737 719 709 719 c 0
 680 719 664 741 664 764 c 0
EndSplineSet
Refer: 403 183 S 1 0 0 1 268 550 2
Refer: 131 85 S 1 0 0 1 -0 -0 3
EndChar

